<?xml version="1.0" encoding="utf-8"?>
<!-- Generator: Adobe Illustrator 25.1.0, SVG Export Plug-In . SVG Version: 6.00 Build 0)  -->
<svg version="1.1" id="Layer_1" xmlns="http://www.w3.org/2000/svg" xmlns:xlink="http://www.w3.org/1999/xlink" x="0px" y="0px"
	 viewBox="0 0 44 40" style="enable-background:new 0 0 44 40;" xml:space="preserve">
<style type="text/css">
	.st0{filter:url(#Adobe_OpacityMaskFilter);}
	.st1{fill-rule:evenodd;clip-rule:evenodd;fill:#FFFFFF;}
	.st2{mask:url(#icon-amazon-b_1_);fill-rule:evenodd;clip-rule:evenodd;fill:#FFFFFF;}
	.st3{filter:url(#Adobe_OpacityMaskFilter_1_);}
	.st4{mask:url(#icon-amazon-d_1_);fill-rule:evenodd;clip-rule:evenodd;fill:#FFFFFF;}
</style>
<g>
	<g transform="translate(0 29.868)">
		<defs>
			<filter id="Adobe_OpacityMaskFilter" filterUnits="userSpaceOnUse" x="0" y="0" width="43.8" height="9.9">
				<feColorMatrix  type="matrix" values="1 0 0 0 0  0 1 0 0 0  0 0 1 0 0  0 0 0 1 0"/>
			</filter>
		</defs>
		<mask maskUnits="userSpaceOnUse" x="0" y="0" width="43.8" height="9.9" id="icon-amazon-b_1_">
			<g class="st0">
				<polygon id="icon-amazon-a_1_" class="st1" points="0,0 43.8,0 43.8,9.9 0,9.9 				"/>
			</g>
		</mask>
		<path class="st2" d="M35.6,1.7c0.1-0.1,0.1-0.2,0.2-0.3c0.7-0.5,1.3-0.8,1.9-0.9c1-0.3,2-0.4,2.9-0.4c0.3,0,0.5,0,0.8,0
			c1.2,0.1,1.9,0.3,2.1,0.6c0.1,0.2,0.2,0.4,0.2,0.7v0.3c0,0.9-0.3,2-0.8,3.3c-0.5,1.3-1.2,2.3-2.1,3c-0.1,0.1-0.3,0.2-0.4,0.2
			c-0.1,0-0.1,0-0.2,0c-0.2-0.1-0.2-0.2-0.1-0.4c1-2.3,1.5-3.9,1.5-4.8c0-0.3-0.1-0.5-0.2-0.6c-0.3-0.3-1-0.5-2.2-0.5
			c-0.5,0-1,0-1.6,0.1C37.1,1.9,36.5,2,35.9,2c-0.2,0-0.3,0-0.3-0.1c-0.1-0.1-0.1-0.1,0-0.2C35.6,1.8,35.6,1.7,35.6,1.7 M0.1,1
			c0.1-0.2,0.3-0.2,0.6,0c6.6,3.8,13.8,5.8,21.6,5.8c5.2,0,10.3-1,15.4-2.9c0.1-0.1,0.3-0.1,0.6-0.2c0.3-0.1,0.4-0.2,0.5-0.2
			c0.4-0.2,0.7-0.1,0.9,0.2c0.2,0.3,0.2,0.6-0.2,0.9c-0.5,0.3-1.1,0.7-1.8,1.2c-2.3,1.4-4.8,2.4-7.6,3.1c-2.8,0.7-5.6,1.1-8.2,1.1
			c-4.1,0-8-0.7-11.7-2.2c-3.7-1.4-7-3.5-9.9-6.1C0.1,1.5,0,1.4,0,1.3C0,1.2,0,1.1,0.1,1"/>
	</g>
	<g transform="translate(12.04 .013)">
		<defs>
			<filter id="Adobe_OpacityMaskFilter_1_" filterUnits="userSpaceOnUse" x="0" y="0" width="22.5" height="26.8">
				<feColorMatrix  type="matrix" values="1 0 0 0 0  0 1 0 0 0  0 0 1 0 0  0 0 0 1 0"/>
			</filter>
		</defs>
		<mask maskUnits="userSpaceOnUse" x="0" y="0" width="22.5" height="26.8" id="icon-amazon-d_1_">
			<g class="st3">
				<polygon id="icon-amazon-c_1_" class="st1" points="0,0 22.5,0 22.5,26.8 0,26.8 				"/>
			</g>
		</mask>
		<path class="st4" d="M13.9,15c0,0.8,0,1.5,0,1.8c0,0.4-0.1,0.9-0.2,1.5c-0.1,0.6-0.4,1.1-0.7,1.7c-0.6,1.1-1.5,1.9-2.6,2.1
			c-0.1,0-0.2,0-0.3,0c-0.1,0-0.3,0-0.3,0c-0.9,0-1.6-0.3-2.1-0.9c-0.5-0.6-0.8-1.5-0.8-2.5c0-2.3,1.2-3.8,3.5-4.4
			c0.8-0.2,2-0.3,3.5-0.3V15z M22.2,22.1c-0.4-0.6-0.7-1-0.9-1.2c-0.2-0.3-0.4-0.7-0.6-1.2c-0.2-0.6-0.3-1.2-0.3-1.9V8.1
			c0-0.1,0-0.4,0-1c0-0.6-0.1-0.9-0.1-1.1c-0.1-0.2-0.1-0.5-0.2-0.9c-0.1-0.5-0.2-0.8-0.4-1c-0.1-0.2-0.3-0.5-0.5-0.8
			c-0.2-0.3-0.5-0.6-0.7-0.9C16.7,0.8,14.4,0,11.3,0h-1C8,0.1,5.9,0.8,4.2,1.9C2.4,3.1,1.3,4.8,0.8,7.2c0,0.1,0,0.2,0,0.3
			c0,0.4,0.2,0.6,0.7,0.7l4.6,0.6c0.4-0.1,0.7-0.4,0.8-0.9C7,7,7.4,6.3,8.1,5.8S9.5,5.1,10.4,5h0.3c1.2,0,2.1,0.4,2.6,1.2
			c0.4,0.6,0.6,1.7,0.6,3.4v0.7c-1.6,0.1-2.8,0.2-3.5,0.3c-2.1,0.3-3.9,0.7-5.3,1.3c-1.6,0.7-2.8,1.6-3.7,2.9
			C0.5,16.1,0,17.7,0,19.5c0,2.3,0.7,4.1,2,5.3c1.3,1.3,3,1.9,5,1.9c1.3,0,2.4-0.1,3.3-0.4c1.4-0.4,2.9-1.4,4.4-3
			c0.1,0.1,0.3,0.4,0.6,0.8c0.3,0.4,0.5,0.6,0.6,0.8c0.1,0.1,0.3,0.3,0.6,0.6c0.3,0.3,0.6,0.6,1,0.9c0.5,0.2,0.8,0.2,1.2-0.1
			c0.2-0.2,1.4-1.2,3.6-3.1c0.2-0.2,0.3-0.3,0.3-0.6C22.5,22.5,22.4,22.3,22.2,22.1L22.2,22.1z"/>
	</g>
</g>
</svg>
