<?xml version="1.0" encoding="UTF-8" standalone="no"?>
<!-- Created with Inkscape (http://www.inkscape.org/) -->

<svg
   width="250"
   height="250"
   viewBox="0 0 250 250"
   version="1.1"
   id="svg1"
   xml:space="preserve"
   inkscape:version="1.3.2 (091e20e, 2023-11-25, custom)"
   sodipodi:docname="watermark.svg"
   inkscape:export-filename="watermark.png"
   inkscape:export-xdpi="1800"
   inkscape:export-ydpi="1800"
   xmlns:inkscape="http://www.inkscape.org/namespaces/inkscape"
   xmlns:sodipodi="http://sodipodi.sourceforge.net/DTD/sodipodi-0.dtd"
   xmlns:xlink="http://www.w3.org/1999/xlink"
   xmlns="http://www.w3.org/2000/svg"
   xmlns:svg="http://www.w3.org/2000/svg"><sodipodi:namedview
     id="namedview1"
     pagecolor="#ffffff"
     bordercolor="#000000"
     borderopacity="0.25"
     inkscape:showpageshadow="2"
     inkscape:pageopacity="0.0"
     inkscape:pagecheckerboard="0"
     inkscape:deskcolor="#d1d1d1"
     inkscape:document-units="px"
     inkscape:zoom="2"
     inkscape:cx="79.25"
     inkscape:cy="20.25"
     inkscape:window-width="1797"
     inkscape:window-height="1343"
     inkscape:window-x="0"
     inkscape:window-y="0"
     inkscape:window-maximized="0"
     inkscape:current-layer="layer1"
     showguides="true" /><defs
     id="defs1"><linearGradient
       id="swatch3"
       inkscape:swatch="solid"><stop
         style="stop-color:#666666;stop-opacity:1;"
         offset="0"
         id="stop3" /></linearGradient><linearGradient
       id="linearGradient15"
       inkscape:collect="always"><stop
         style="stop-color:#000000;stop-opacity:1;"
         offset="0"
         id="stop15" /><stop
         style="stop-color:#000000;stop-opacity:0;"
         offset="1"
         id="stop16" /></linearGradient><radialGradient
       inkscape:collect="always"
       xlink:href="#linearGradient15"
       id="radialGradient16"
       cx="131.95383"
       cy="51.774654"
       fx="131.95383"
       fy="51.774654"
       r="28.141367"
       gradientTransform="matrix(1,0,0,0.95587029,0,2.2848005)"
       gradientUnits="userSpaceOnUse" /><clipPath
       clipPathUnits="userSpaceOnUse"
       id="clipPath419"><g
         inkscape:label="Clip"
         id="use419"
         style="display:inline"><path
           id="path6"
           style="display:inline;fill:none;fill-opacity:1;stroke:none;stroke-width:0.01;stroke-dasharray:none;stroke-opacity:1;paint-order:stroke markers fill"
           inkscape:label="logo"
           d="m 29.561143,1.7610692 c -0.932256,1.3597256 -1.092582,0.9883094 -1.597835,0.4475179 -0.642644,0.8730241 -0.713958,0.3961277 0.03101,2.1755778 0.05605,0.1338848 0.913695,-0.4527366 2.744018,-0.4020427 1.760926,0.04877 2.718733,0.6504122 2.768307,0.5431193 0.822332,-1.7797591 0.694186,-1.2830759 0.247013,-2.1021972 -0.489349,0.4189967 -0.785584,0.726789 -1.550809,-0.5818767 -1.097496,1.0450881 -1.957029,0.8375139 -2.6417,-0.080098 z m 5.052922,3.0737142 c -0.585338,0.7801842 -1.350442,0.6275062 -1.705839,0.5255493 -6.046765,-1.7831602 -7.325094,2.5978983 -5.624463,3.905188 0.297509,-1.8996531 3.134058,-0.2322618 3.497461,1.2071613 -0.926444,-0.120878 -1.91253,0.610004 -2.896981,-0.01034 0.0022,1.743627 1.771395,2.103197 2.884062,1.730644 1.171068,2.001343 -2.401195,0.171572 -2.933671,5.77019 -0.0201,0.350683 -0.728796,-0.134788 -1.445907,0.426331 -0.558049,0.436656 -0.823279,0.849652 -1.860351,0.747758 -1.320272,-0.129719 -1.80884,-1.004647 -2.640666,-1.852601 -0.600487,-0.612129 -1.789048,-0.481754 -2.524911,-1.145666 -1.019457,-0.919778 -0.681928,-1.403641 -0.738973,-2.244824 -0.05048,-0.744431 -0.675949,-1.153051 -0.909505,-1.668116 -0.171304,-0.377776 -0.112813,-0.893145 0.03411,-1.669148 3.280966,0.120653 2.13054,-3.7523093 -1.038697,-3.5098636 C 14.034497,7.2517062 10.932536,8.1745334 9.4517764,8.8267878 10.214939,9.4343042 8.625749,9.6390784 7.1010155,9.7817682 8.4146542,11.042316 10.562576,10.475252 11.810806,10.386382 9.446724,11.507575 7.9848672,12.407377 6.9547712,13.244089 8.0484121,13.560751 5.3009704,15.077506 3.7518659,15.297194 5.9393638,16.82923 9.3627554,14.030259 11.994774,13.685406 7.9994428,17.41808 6.4228653,18.628235 5.2944074,20.585243 6.5489752,20.745636 3.4815724,23.541057 2.1033878,24.564328 6.1120537,25.37548 8.801317,20.864611 12.579234,18.01124 8.4220814,24.462178 7.1717031,27.678269 5.6075666,31.375799 6.7873224,31.060834 4.9901901,36.980121 1.9096011,40.263629 8.043925,40.758974 10.357249,28.235466 14.388426,23.611415 c -2.262248,5.222652 -2.126777,5.202296 -4.034379,12.426115 1.40011,-0.47352 -1.2296358,9.038046 -3.8633301,11.993066 6.5421241,0.798417 8.1630241,-18.397157 12.3294801,-23.81405 -0.920046,4.014274 -1.632088,5.565855 -1.863969,8.421708 1.171823,-0.847312 0.07087,7.000071 -0.86558,8.609294 3.666966,-0.205981 4.323661,-5.573749 6.408911,-16.200045 0.370995,2.123577 0.47366,3.316045 0.4408,4.699972 0.605289,-0.370612 0.357895,1.535912 -0.03514,2.617411 1.923792,-0.475501 2.052852,-3.483868 2.164209,-7.282243 3.070682,-0.30047 1.475063,3.469059 1.415934,6.000151 -3.087322,2.125526 -3.650349,6.343247 -5.668388,7.148917 0.203453,0.241695 0.908388,0.41152 1.609721,0.111105 -2.203921,4.428051 -4.256273,7.231144 -5.075142,6.273002 -0.8369,-0.979222 -1.621684,-1.831581 -2.062924,-1.874821 -0.819429,-0.0803 -1.702899,0.40857 -1.496549,1.737361 0.406383,-0.803528 0.740414,-1.066448 1.246952,-0.690914 -0.47161,0.590772 -0.658551,0.976084 -0.444417,1.149801 0.339976,0.275801 0.720571,-0.09795 0.897103,0.01189 0.177585,0.110492 0.145941,0.4496 0.343648,0.51418 0.392444,0.128202 0.745162,0.132593 1.054199,0.338998 -2.843443,0.244819 -5.264243,0.671185 -4.398698,2.888195 0.156226,-0.838156 0.244053,-1.077461 0.999423,-1.170471 -0.05195,0.866433 0.257213,0.992643 0.76171,0.895553 0.300445,-0.05782 0.297388,-0.580705 0.548804,-0.722437 0.239389,-0.134989 0.566397,0.304802 0.912089,0.10542 0.524181,-0.302328 1.028215,-0.827079 1.575614,-1.086755 -2.720306,3.660957 -1.359656,4.524736 -0.47904,4.751648 -0.523768,-0.663436 -0.614107,-0.980775 -0.152962,-1.468128 0.747111,0.551729 0.901257,-0.04727 1.052132,-0.470772 0.05832,-0.163815 0.0062,-0.621792 0.05323,-0.821138 0.07718,-0.326971 0.575859,-0.436516 0.695564,-0.815971 0.107491,-0.340745 0.02933,-0.900978 0.200505,-1.255221 l 1.860868,-1.063501 c 0.417281,-0.03673 1.028824,0.107097 1.379244,0.09147 0.586718,-0.02616 0.90244,-0.477023 1.067635,-0.478523 0.213062,-0.002 0.157646,0.390323 0.59893,0.386023 0.743344,-0.0073 0.97152,-0.189932 0.73949,-1.177706 0.445712,-0.236598 0.784517,0.02666 1.046448,0.829923 0.755498,-3.237265 -2.815163,-1.267539 -4.625558,-0.891418 0.850399,-1.708705 2.576493,-2.954596 4.017843,-4.422469 0.22366,2.266711 1.366281,3.397301 1.805574,3.890201 -0.728715,-3.067167 0.660232,-5.955873 1.874304,-9.235611 l 0.0062,-0.0057 c 2.191246,11.213164 -1.539638,14.42508 -4.872054,13.33252 1.306813,2.382093 -2.065172,0.826693 -2.427242,0.269751 -0.221567,2.323006 3.512217,3.22208 5.791894,1.8526 -0.735984,2.701413 -7.250577,3.466257 -6.047176,6.450252 0.958157,-2.168306 5.535639,-0.279088 8.448063,-5.091162 -0.3169,2.931927 -1.908919,5.001698 -4.039547,5.069458 1.69383,0.960785 -0.408345,1.280673 -2.066023,0.984953 0.981682,1.645092 4.918017,1.66365 6.82749,-1.414901 0.181407,2.47671 -3.196072,3.694408 -1.09244,6.283337 -0.01944,-0.837449 0.249618,-1.432909 1.376144,-2.811198 -0.219107,2.989267 0.482291,4.044257 1.793172,4.222999 -0.82971,-1.236306 -0.961376,-2.72484 0.204122,-1.775086 -0.370454,-1.051506 -0.453426,-1.220404 -0.329179,-2.630847 1.630587,1.929458 1.442372,2.141359 1.491382,2.978113 2.103632,-2.58893 -1.273847,-3.80611 -1.09244,-6.282821 1.909473,3.078551 5.845808,3.059476 6.82749,1.414384 -1.657678,0.295721 -3.76037,-0.02365 -2.06654,-0.984436 -2.130628,-0.06776 -3.722131,-2.138049 -4.03903,-5.069975 2.912424,4.812073 7.489389,2.922856 8.447546,5.091162 1.203401,-2.983995 -5.310675,-3.74884 -6.046659,-6.450252 2.279676,1.369481 6.012944,0.470407 5.791377,-1.8526 -0.36207,0.556942 -3.734055,2.112343 -2.427242,-0.269751 -3.32625,1.090784 -7.072326,-2.156767 -4.871537,-13.33252 l 0.0062,0.0062 c 1.214073,3.279738 2.602503,6.168444 1.873788,9.235612 0.439293,-0.492901 1.582431,-1.624007 1.806091,-3.890719 1.44135,1.467874 3.166927,2.713765 4.017326,4.422469 -1.810395,-0.376121 -5.380539,-2.345846 -4.625041,0.891419 0.261931,-0.803263 0.600735,-1.066005 1.046448,-0.829407 -0.23203,0.987774 -0.0039,1.169927 0.73949,1.177189 0.441284,0.0043 0.385868,-0.387992 0.59893,-0.386023 0.165194,0.0015 0.480917,0.45236 1.067635,0.478524 0.350419,0.01563 0.961446,-0.128197 1.378727,-0.09147 l 1.861385,1.063501 c 0.171169,0.354243 0.09301,0.914476 0.200504,1.255221 0.119705,0.379456 0.618389,0.489 0.695565,0.815971 0.04705,0.199347 -0.0051,0.657323 0.05323,0.821138 0.150875,0.423506 0.305021,1.022501 1.052132,0.470773 0.461145,0.487352 0.370805,0.804692 -0.152962,1.468127 0.880616,-0.226912 2.241266,-1.090691 -0.479041,-4.751648 0.5474,0.259676 1.051433,0.784428 1.575615,1.086755 0.345691,0.199382 0.6727,-0.240408 0.912089,-0.105419 0.251416,0.141731 0.248359,0.664613 0.548804,0.722436 0.504497,0.09709 0.813662,-0.02912 0.76171,-0.895552 0.755369,0.09301 0.843197,0.332831 0.999422,1.170987 0.865545,-2.21701 -1.555254,-2.643892 -4.398698,-2.888712 0.309038,-0.206405 0.661756,-0.210796 1.0542,-0.338997 0.197706,-0.06458 0.165546,-0.403172 0.343131,-0.513664 0.176532,-0.10984 0.557644,0.263398 0.89762,-0.0124 0.214134,-0.173716 0.02668,-0.559029 -0.444934,-1.1498 0.506538,-0.375535 0.841086,-0.112614 1.247469,0.690914 0.20635,-1.328792 -0.677121,-1.817662 -1.49655,-1.737362 -0.441239,0.04324 -1.226024,0.895599 -2.062923,1.874821 -0.818869,0.958142 -2.871221,-1.844433 -5.075142,-6.272485 0.701333,0.300416 1.406268,0.130073 1.609721,-0.111621 -2.018039,-0.805671 -2.581322,-5.023141 -5.668905,-7.148401 0.11447,-1.700888 -1.764458,-6.404546 1.463477,-6.01462 0.111356,3.798375 0.240416,6.806742 2.164209,7.282243 -0.393036,-1.081499 -0.64043,-2.988023 -0.03514,-2.617412 -0.03286,-1.383926 0.08013,-2.566059 0.451135,-4.689636 2.08525,10.626295 2.731609,15.983729 6.398576,16.18971 -0.936454,-1.609223 -2.037403,-9.457123 -0.865581,-8.609811 -0.23194,-2.855853 -0.932037,-4.406917 -1.852083,-8.421191 4.166456,5.416892 5.775471,24.612466 12.317594,23.81405 -2.633694,-2.95502 -5.263433,-12.466548 -3.86333,-11.993066 -1.907601,-7.223818 -1.758178,-7.202947 -4.020426,-12.425599 4.031176,4.624052 6.330548,17.146526 12.464872,16.65118 -3.080589,-3.283507 -4.877721,-9.202277 -3.697965,-8.887312 -1.564137,-3.697531 -2.808315,-6.878482 -6.965467,-13.329419 3.777917,2.853371 6.46098,7.329099 10.469646,6.517948 -1.378185,-1.023271 -4.445588,-3.818692 -3.19102,-3.979085 -1.128458,-1.957008 -2.705036,-3.167163 -6.700366,-6.899837 2.632017,0.344852 6.05541,3.143824 8.242907,1.611788 -1.549104,-0.219688 -4.296546,-1.736443 -3.202905,-2.053105 -1.030096,-0.836712 -2.491954,-1.736514 -4.856034,-2.857707 1.248229,0.08887 3.396151,0.655934 4.70979,-0.6046141 C 53.860673,9.609106 52.290113,9.4103294 53.032062,8.791131 51.551303,8.1388767 48.451925,7.2212171 45.776691,7.0165623 42.607454,6.7741166 41.457028,10.647595 44.737995,10.526942 c 0.142243,0.854063 0.189408,0.987501 0.139526,1.478463 -0.05085,0.500467 -0.934264,1.106871 -0.997355,1.759583 -0.09381,0.970555 0.257154,1.300789 -0.528133,2.196765 -0.653243,0.745317 -1.75729,0.711099 -2.577104,1.207161 -0.457873,0.277056 -1.164572,1.51428 -2.40037,1.863452 -0.690986,0.195237 -1.710933,0.0647 -2.842721,-0.588077 -0.710856,-0.409996 -0.963894,-0.517202 -1.81746,-0.575676 -0.313599,-0.02148 -0.0026,-0.969675 0.686263,-2.3797 0.240855,0.06791 0.61891,-0.04453 0.810287,-0.166914 -0.256321,-0.256359 -0.26589,-0.68966 -0.08113,-1.153935 0.287472,0.07763 0.543384,0.124324 0.805635,0.07596 -0.530291,-0.458723 -0.482238,-1.336066 -0.534334,-2.10168 0.254195,0.10324 0.529051,0.281172 1.049031,0.106453 -0.503211,-0.3117 -0.678108,-0.948454 -0.797367,-1.802991 0.359335,0.03354 0.803142,-0.04192 1.130164,-0.419095 -0.610566,-0.03095 -0.991867,-0.2953462 -1.32395,-0.9756515 0.637519,-0.08216 1.196751,-0.5577678 1.399397,-1.0386963 -0.644781,0.1815958 -1.878469,0.2271295 -2.247408,-0.4697388 0.242406,-0.07455 1.256956,-0.3881097 1.392163,-1.127063 -0.235619,0.1564529 -0.856942,0.3181173 -1.64176,0.2030884 0.348701,-0.3357367 0.457168,-1.0615382 0.252698,-1.7838704 z" /></g></clipPath><clipPath
       clipPathUnits="userSpaceOnUse"
       id="clipPath421"><g
         inkscape:label="Clip"
         id="use421"><path
           sodipodi:type="star"
           style="display:inline;opacity:1;fill:#d7f4ee;fill-opacity:1;stroke:none;stroke-width:3;stroke-linecap:butt;stroke-linejoin:round;stroke-dasharray:none;stroke-opacity:1;paint-order:stroke fill markers"
           id="path423"
           inkscape:flatsided="false"
           sodipodi:sides="5"
           sodipodi:cx="-257.04892"
           sodipodi:cy="42.969372"
           sodipodi:r1="52.562145"
           sodipodi:r2="26.281075"
           sodipodi:arg1="0.65080025"
           sodipodi:arg2="1.2791188"
           inkscape:rounded="0"
           inkscape:randomized="0"
           d="m -215.23052,74.812743 -34.26103,-6.672335 -24.91962,24.440771 -4.24147,-34.646046 -30.94514,-16.147349 31.63966,-14.740099 5.79447,-34.4203821 23.79586,25.5361631 34.52631,-5.125616 -16.93301,30.522316 z"
           transform="matrix(0.26458333,0,0,0.26458333,4.8730933,-5.9771938)"
           inkscape:transform-center-x="1.2357912"
           inkscape:transform-center-y="-0.09660765" /><rect
           style="display:inline;opacity:1;fill:#80b3ff;fill-opacity:1;stroke:none;stroke-width:3;stroke-linecap:butt;stroke-linejoin:round;stroke-dasharray:none;stroke-opacity:1;paint-order:stroke fill markers"
           id="rect423"
           width="41.05674"
           height="36.175869"
           x="-63.450653"
           y="3.170033" /></g></clipPath><filter
       x="-0.12343037"
       width="1.2468607"
       y="-0.17650542"
       height="1.3530108"
       inkscape:menu="Non-Realistic 3D Shaders"
       inkscape:menu-tooltip="Aluminium effect with sharp brushed reflections"
       inkscape:label="Aluminium"
       style="color-interpolation-filters:sRGB"
       id="filter482"><feGaussianBlur
         result="result8"
         stdDeviation="5"
         in="SourceGraphic"
         id="feGaussianBlur476" /><feComposite
         operator="xor"
         in2="SourceGraphic"
         result="result22"
         id="feComposite476" /><feComposite
         k2="1"
         operator="arithmetic"
         result="result20"
         in2="result22"
         in="result22"
         id="feComposite477"
         k1="0"
         k3="0"
         k4="0" /><feComposite
         in2="result22"
         in="result20"
         operator="over"
         result="result6"
         id="feComposite478" /><feOffset
         in="result6"
         result="result21"
         id="feOffset478" /><feDisplacementMap
         in2="result20"
         result="result4"
         scale="100"
         yChannelSelector="A"
         xChannelSelector="A"
         in="result21"
         id="feDisplacementMap478" /><feComposite
         in2="SourceGraphic"
         k1="1"
         operator="arithmetic"
         result="fbSourceGraphic"
         k3="0.5"
         in="result4"
         id="feComposite479"
         k2="0"
         k4="0" /><feComposite
         in2="result4"
         result="result12"
         operator="in"
         in="fbSourceGraphic"
         id="feComposite480" /><feComposite
         in2="SourceGraphic"
         operator="in"
         result="result18"
         id="feComposite481" /><feComposite
         result="result19"
         in2="SourceGraphic"
         operator="in"
         in="result18"
         id="feComposite482" /></filter><filter
       inkscape:label="Gold Paste"
       x="-0.039909355"
       y="-0.047239646"
       height="1.0944793"
       width="1.0798187"
       inkscape:menu="Materials"
       inkscape:menu-tooltip="Fat pasted cast metal, with golden highlights"
       style="color-interpolation-filters:sRGB"
       id="filter490"><feGaussianBlur
         in="SourceAlpha"
         stdDeviation="0.01"
         result="result91"
         id="feGaussianBlur486" /><feComposite
         result="fbSourceGraphic"
         operator="in"
         in="SourceGraphic"
         in2="result91"
         id="feComposite486" /><feGaussianBlur
         result="result1"
         in="fbSourceGraphic"
         stdDeviation="0.01"
         id="feGaussianBlur487" /><feTurbulence
         result="result0"
         numOctaves="4"
         baseFrequency="0.04"
         type="fractalNoise"
         seed="20"
         id="feTurbulence487" /><feDisplacementMap
         result="result2"
         scale="30"
         yChannelSelector="G"
         xChannelSelector="R"
         in="result1"
         in2="result0"
         id="feDisplacementMap487" /><feColorMatrix
         type="saturate"
         values="1"
         result="result3"
         id="feColorMatrix487" /><feGaussianBlur
         result="result4"
         in="fbSourceGraphic"
         stdDeviation="0.01"
         id="feGaussianBlur488" /><feComposite
         operator="atop"
         result="fbSourceGraphic"
         in="result4"
         in2="result3"
         id="feComposite488" /><feGaussianBlur
         result="result0"
         in="fbSourceGraphic"
         stdDeviation="1.5"
         id="feGaussianBlur489" /><feTurbulence
         baseFrequency="0.02"
         seed="20"
         numOctaves="8"
         result="result1"
         type="fractalNoise"
         id="feTurbulence489" /><feComposite
         result="result2"
         operator="out"
         in2="result1"
         in="result0"
         id="feComposite489" /><feSpecularLighting
         lighting-color="#dfbc10"
         surfaceScale="2.5"
         result="result4"
         specularConstant="2"
         specularExponent="30"
         in="result2"
         id="feSpecularLighting489"><feDistantLight
           elevation="62"
           azimuth="225"
           id="feDistantLight489" /></feSpecularLighting><feComposite
         in2="result2"
         in="result4"
         operator="atop"
         result="result92"
         id="feComposite490" /><feBlend
         mode="multiply"
         in2="result92"
         id="feBlend490" /></filter><filter
       inkscape:label="brushed-metal"
       inkscape:menu="Image Effects"
       inkscape:menu-tooltip="Adds a small scale graininess"
       style="color-interpolation-filters:sRGB"
       id="filter496"
       x="0"
       y="0"
       width="1"
       height="1"><feTurbulence
         type="turbulence"
         numOctaves="1"
         baseFrequency="0.001 4.4937013698630137"
         seed="0"
         result="result0"
         id="feTurbulence495" /><feColorMatrix
         result="result4"
         values="0"
         type="saturate"
         id="feColorMatrix495" /><feComposite
         in="SourceGraphic"
         in2="result4"
         operator="arithmetic"
         k1="2.9533679"
         k2="1.2953368"
         k3="1.0362694"
         result="result2"
         id="feComposite495"
         k4="0" /><feBlend
         result="result5"
         mode="normal"
         in="result2"
         in2="SourceGraphic"
         id="feBlend495" /><feComposite
         in="result5"
         in2="SourceGraphic"
         operator="in"
         result="result3"
         id="feComposite496" /></filter></defs><g
     inkscape:label="Layer 1"
     inkscape:groupmode="layer"
     id="layer1"
     style="display:inline"
     transform="translate(-6.7372511e-4,-0.01182194)"><rect
       style="fill:#ffcc33;stroke:none;stroke-width:22;stroke-linejoin:round;paint-order:stroke fill markers;fill-opacity:1"
       id="rect1"
       width="250"
       height="250"
       x="0.0006737251"
       y="0.01182194" /><path
       d="m 112.76178,17.628838 c 0.21116,0.504354 3.44153,-1.704845 10.33649,-1.513878 6.63354,0.183722 10.24171,2.448649 10.42846,2.044468 2.5307,-5.273292 2.45338,-3.753064 0.93087,-6.730741 -1.84341,1.578391 -2.95852,2.737813 -5.84118,-2.1920286 -4.13435,3.9369246 -7.37329,3.1550846 -9.9525,-0.301629 -3.51186,5.1221866 -4.11552,3.7236966 -6.01885,1.6864946 -2.25886,3.072718 -2.20356,1.60018 0.11674,7.007328 z M 85.724672,145.13423 c 0.766422,0.91048 3.422053,1.55193 6.064031,0.42023 -8.302333,16.68081 -16.033756,27.23919 -19.118496,23.62979 -3.15266,-3.68881 -6.109305,-6.9002 -7.771487,-7.06309 -3.086851,-0.30253 -6.414851,1.53995 -5.637518,6.54562 1.530876,-3.02696 2.790266,-4.01755 4.698434,-2.60289 -1.776598,2.22548 -2.482216,3.6763 -1.675564,4.33072 1.280718,1.03895 2.71575,-0.36774 3.380763,0.0459 0.668972,0.41623 0.548493,1.69314 1.29327,1.93641 1.478367,0.48296 2.807091,0.49936 3.97126,1.2769 -10.711464,0.92225 -19.830598,2.52925 -16.570024,10.88089 0.588512,-3.15739 0.920043,-4.05968 3.765579,-4.41006 -0.195673,3.26392 0.96811,3.73876 2.868595,3.37301 1.131793,-0.21781 1.120727,-2.18698 2.067831,-2.7209 0.901796,-0.50852 2.133621,1.14745 3.435872,0.39638 1.974629,-1.1389 3.873154,-3.11483 5.935248,-4.09305 -10.247599,13.7911 -5.12226,17.04481 -1.804917,17.89961 -1.973075,-2.4992 -2.313591,-3.69427 -0.576419,-5.53015 2.814419,2.07839 3.396332,-0.17857 3.964685,-1.77396 0.219674,-0.61709 0.02297,-2.34161 0.200464,-3.09257 0.290749,-1.23172 2.168212,-1.64535 2.619146,-3.07478 0.404936,-1.28361 0.11052,-3.39417 0.755341,-4.72863 l 7.011311,-4.00648 c 1.571926,-0.13834 3.874841,0.40353 5.194898,0.34467 2.21021,-0.0986 3.399911,-1.79657 4.022214,-1.80222 0.802615,-0.007 0.594002,1.47008 2.256349,1.45387 2.800238,-0.0279 3.659243,-0.71418 2.785171,-4.43521 1.679031,-0.89128 2.954831,0.0988 3.941541,3.12476 2.84602,-12.19501 -10.603287,-4.7749 -17.423177,-3.35802 3.203516,-6.43681 9.704107,-11.12988 15.133767,-16.65948 0.84255,8.53888 5.1483,12.79929 6.80314,14.65609 -2.74512,-11.55424 2.48565,-22.43634 7.05915,-34.79136 l 0.0234,-0.0219 c 8.25459,42.24082 -5.79867,54.34029 -18.352126,50.22453 4.922876,8.97352 -7.779752,3.11376 -9.143701,1.01572 -0.834663,8.75093 13.229697,12.13887 21.817407,6.97994 -2.77251,10.17643 -27.31217,13.05678 -22.778868,24.29772 3.609446,-8.16818 20.851618,-1.05176 31.822938,-19.17919 -1.19377,11.04479 -7.18944,18.8435 -15.21567,19.09877 6.38077,3.61933 -1.53858,4.82337 -7.78318,3.70937 3.698074,6.19717 18.5255,6.26788 25.71862,-5.32925 0.68337,9.32996 -12.03898,13.91626 -4.11443,23.66895 -0.0732,-3.15473 0.93988,-5.39775 5.18358,-10.58987 -0.82539,11.2608 1.81729,15.23426 6.75549,15.90759 -3.12559,-4.65725 -3.62173,-10.26418 0.76879,-6.68639 -1.39552,-3.96109 -1.70833,-4.59619 -1.24028,-9.90943 6.14254,7.26841 5.43269,8.06601 5.61731,11.21813 7.92454,-9.75269 -4.79781,-14.33901 -4.11444,-23.66896 7.19313,11.59711 22.02056,11.52643 25.71863,5.32924 -6.2446,1.11401 -14.16396,-0.0901 -7.78319,-3.70938 -8.02622,-0.25526 -14.02187,-8.05397 -15.21567,-19.09873 10.97132,18.12742 28.21351,11.01099 31.82295,19.17916 4.5333,-11.24094 -20.00637,-14.12127 -22.77887,-24.29771 8.5877,5.15895 22.65207,1.77101 21.81741,-6.97994 -1.36394,2.09804 -14.06656,7.95782 -9.1437,-1.01572 -12.53024,4.10907 -26.64267,-8.12465 -18.35213,-50.22454 l 0.0234,0.0221 c 4.5735,12.35502 9.80427,23.23712 7.05914,34.79136 1.65485,-1.85679 5.9606,-6.11723 6.80314,-14.65609 5.42968,5.52959 11.93026,10.22266 15.13378,16.65948 -6.81989,-1.41687 -20.26921,-8.837 -17.42318,3.35802 0.98671,-3.02595 2.26251,-4.01604 3.94155,-3.12476 -0.87408,3.72101 -0.0151,4.40785 2.78517,4.43522 1.66235,0.0162 1.45374,-1.46129 2.25635,-1.45389 0.62231,0.005 1.812,1.70366 4.02221,1.80223 1.32006,0.0588 3.62297,-0.48301 5.1949,-0.34467 l 7.01131,4.00647 c 0.64481,1.33445 0.35043,3.44502 0.75534,4.72864 0.45093,1.42943 2.32842,1.84305 2.61915,3.07476 0.17725,0.75097 -0.0191,2.47549 0.20052,3.09259 0.56835,1.59538 1.15026,3.85235 3.96469,1.77394 1.73716,1.83589 1.39664,3.03095 -0.57644,5.53017 3.31735,-0.8548 8.4427,-4.10852 -1.80491,-17.89961 2.06209,0.97821 3.96062,2.95415 5.93525,4.09304 1.30225,0.75109 2.53408,-0.90488 3.43588,-0.39639 0.94709,0.53393 0.93603,2.50309 2.06782,2.72092 1.90048,0.36573 3.06431,-0.10905 2.86859,-3.37301 2.84553,0.35038 3.17707,1.25265 3.76558,4.41005 3.26059,-8.35164 -5.85855,-9.95863 -16.57001,-10.88088 1.16416,-0.77755 2.49289,-0.79395 3.97124,-1.2769 0.74479,-0.24328 0.62432,-1.52018 1.29329,-1.93641 0.665,-0.41374 2.10004,0.99293 3.38075,-0.0459 0.80666,-0.65439 0.10109,-2.10522 -1.67556,-4.33071 1.90817,-1.41466 3.16757,-0.42404 4.69843,2.60289 0.77734,-5.00565 -2.55066,-6.84811 -5.6375,-6.54562 -1.66219,0.16288 -4.61883,3.37429 -7.77149,7.0631 -3.08475,3.60939 -10.81616,-6.94899 -19.11851,-23.62979 2.64198,1.13169 5.29762,0.49027 6.06403,-0.42023 -7.60209,-3.03502 -9.72273,-18.9231 -21.35387,-26.92912 0.43123,-6.40737 -6.6477,-24.126106 5.51218,-22.657226 0.41949,14.308766 0.90485,25.642036 8.15192,27.433296 -1.48059,-4.07409 -2.41202,-11.25579 -0.13184,-9.85967 -0.12377,-5.21334 0.30288,-9.66642 1.70043,-17.666096 7.85528,40.030056 10.28984,60.210966 24.1036,60.986916 -3.52771,-6.06206 -7.6749,-35.62411 -3.26056,-32.43222 -0.87374,-10.75821 -3.51135,-16.60158 -6.97723,-31.723643 15.69534,20.405833 21.75598,92.716733 46.40064,89.709043 -9.92133,-11.13178 -19.82802,-46.96321 -14.55372,-45.17956 -7.18608,-27.21267 -6.6235,-27.13305 -15.14555,-46.807153 15.18574,17.419133 23.84882,64.592613 46.95728,62.726603 -11.60482,-12.36921 -18.37519,-34.66634 -13.93097,-33.47985 -5.89221,-13.92886 -10.57961,-25.912786 -26.2399,-50.213944 14.23168,10.748863 24.34001,27.610408 39.44097,24.554748 -5.19174,-3.854742 -16.74743,-14.384895 -12.02138,-14.989108 -4.25098,-7.372196 -10.18969,-11.930951 -25.24038,-25.992215 9.915,1.299082 22.81133,11.841566 31.0518,6.070269 -5.83506,-0.827579 -16.18502,-6.539797 -12.0652,-7.732682 -3.88044,-3.151956 -9.38826,-6.543141 -18.29392,-10.766759 4.70216,0.334782 12.79496,2.470901 17.74354,-2.277678 -5.74379,-0.537523 -11.66155,-1.28515 -8.86656,-3.617716 -5.57814,-2.457092 -17.25372,-5.91331 -27.33153,-6.684261 -11.93874,-0.913311 -16.27141,13.677946 -3.91176,13.223438 0.53585,3.217316 0.71374,3.719051 0.52583,5.568543 -0.19156,1.885295 -3.52004,4.169557 -3.75771,6.628368 -0.35341,3.656152 0.96916,4.900624 -1.98908,8.275834 -2.4608,2.807667 -6.62109,2.679368 -9.70939,4.548075 -1.72484,1.043689 -4.3862,5.704544 -9.04155,7.019904 -2.60298,0.73547 -6.44611,0.24304 -10.70963,-2.215998 -2.67784,-1.544488 -3.63016,-1.948438 -6.8456,-2.168709 -1.18135,-0.0809 -0.0102,-3.652994 2.5846,-8.964667 0.90732,0.255799 2.33109,-0.167323 3.05203,-0.628375 -0.96559,-0.965724 -0.99985,-2.598846 -0.30384,-4.347806 1.08292,0.29246 2.04679,0.469069 3.0347,0.286936 -1.99764,-1.728044 -1.818,-5.033153 -2.01425,-7.917277 0.95758,0.388909 1.99325,1.05904 3.95206,0.40086 -1.89562,-1.174221 -2.55449,-3.572684 -3.00374,-6.791786 1.35364,0.126348 3.0262,-0.157576 4.25811,-1.578429 -2.30005,-0.116599 -3.73645,-1.113582 -4.98743,-3.676342 2.40157,-0.309503 4.50755,-2.100056 5.27094,-3.911749 -2.42894,0.684084 -7.07609,0.856036 -8.46592,-1.769118 0.91317,-0.280835 4.73519,-1.463571 5.24452,-4.247262 -0.88759,0.589369 -3.22838,1.198515 -6.18485,0.765193 1.31358,-1.264745 1.72228,-3.998863 0.95201,-6.719941 -2.20501,2.939011 -5.0863,2.364213 -6.42511,1.980133 -22.77862,-6.717297 -27.59572,9.786054 -21.18931,14.710713 2.54401,-6.946408 10.6246,-1.413104 13.44479,3.43925 -0.54553,0.479286 -2.35381,-0.89786 -5.10624,1.139659 -1.28639,0.952274 -3.82286,1.381291 -5.6786,0.613095 0.46086,2.629303 1.97242,4.435687 2.84956,4.501405 2.15789,0.161681 6.37725,-2.880955 8.66613,-0.464011 0.21827,0.230508 0.5229,0.522425 0.64906,0.771633 -0.84195,4.053479 -5.32367,6.415664 -6.62354,7.870612 -1.3743,1.538285 -5.15156,4.388266 -6.12582,14.893604 -0.0756,1.321049 -2.74445,-0.508362 -5.44586,1.605414 -2.1022,1.644916 -3.10135,3.201191 -7.008071,2.817347 -4.97357,-0.488682 -6.81433,-3.783838 -9.947884,-6.978141 -2.262077,-2.305935 -6.739342,-1.815425 -9.511385,-4.316434 -3.840374,-3.464869 -2.569491,-5.288413 -2.784385,-8.45721 -0.190169,-2.804321 -2.546615,-4.341933 -3.426433,-6.28222 -0.645313,-1.423113 -0.424959,-3.364747 0.128476,-6.288009 12.359644,0.454509 8.026987,-14.136747 -3.911761,-13.223436 -10.077788,0.770949 -21.763535,4.249006 -27.341666,6.706096 2.87489,2.288561 -3.112621,3.058358 -8.856404,3.59588 4.948573,4.74858 13.041371,2.612459 17.743547,2.27768 -8.905672,4.223615 -14.413487,7.6148 -18.293935,10.766755 4.119825,1.192884 -6.230128,6.905108 -12.065721,7.732681 8.240467,5.771299 21.136808,-4.77118 31.051816,-6.070268 C 37.439716,66.729529 31.501015,71.288288 27.250031,78.660478 31.97608,79.264692 20.420392,89.794841 15.228667,93.649584 30.32961,96.705254 40.459968,79.71156 54.691664,68.962697 39.031359,93.263854 34.321937,105.37991 28.429718,119.30879 c 4.444229,-1.18649 -2.32615,21.11063 -13.930959,33.47986 23.108456,1.866 31.822755,-45.30931 47.008503,-62.728444 -8.522059,19.674104 -8.010698,19.596304 -15.196777,46.808964 5.274317,-1.78378 -4.632379,34.04765 -14.5537,45.17944 24.644672,3.00768 30.751098,-69.30337 46.44645,-89.709211 -3.465885,15.122071 -6.149301,20.965591 -7.022808,31.723801 4.414344,-3.19189 0.267138,26.37016 -3.260547,32.43222 13.81373,-0.77595 16.287232,-20.9958 24.142522,-61.025856 1.397575,7.999676 1.78527,12.491686 1.661487,17.705046 2.280166,-1.39612 1.348743,5.78556 -0.131834,9.85966 7.247075,-1.79125 7.732445,-13.12454 8.151925,-27.433296 11.56748,-1.13188 5.55628,13.068446 5.33354,22.603256 -11.630166,8.00702 -13.7508,23.8951 -21.352901,26.93013 z"
       style="display:inline;fill:#000000;stroke:none;stroke-width:4.39937;stroke-linecap:butt;stroke-linejoin:round;stroke-dasharray:none;stroke-opacity:1;paint-order:stroke fill markers"
       id="path2"
       sodipodi:nodetypes="ssccccccscccsccssscccscsccccssccsccccccccccccccccccccccccccccccccccccccsssccssscccssscccsssccssccccccccccccccccccccccccscssssssscccccccccccccccccscsscscsssssscscccccccccccccccccccccccc"
       inkscape:label="logo" /></g></svg>
