<?xml version="1.0" standalone="no"?>
<!DOCTYPE svg PUBLIC "-//W3C//DTD SVG 20010904//EN"
 "http://www.w3.org/TR/2001/REC-SVG-20010904/DTD/svg10.dtd">
<svg version="1.0" xmlns="http://www.w3.org/2000/svg"
 width="3664.000000pt" height="2588.000000pt" viewBox="0 0 3664.000000 2588.000000"
 preserveAspectRatio="xMidYMid meet">

<g transform="translate(0.000000,2588.000000) scale(0.100000,-0.100000)"
fill="#000000" stroke="none">
<path d="M3590 14255 l0 -10795 155 0 155 0 0 10795 0 10795 -155 0 -155 0 0
-10795z"/>
<path d="M4210 14255 l0 -10795 155 0 155 0 0 10795 0 10795 -155 0 -155 0 0
-10795z"/>
<path d="M5140 14255 l0 -10795 310 0 310 0 0 10795 0 10795 -310 0 -310 0 0
-10795z"/>
<path d="M6380 14255 l0 -10795 155 0 155 0 0 10795 0 10795 -155 0 -155 0 0
-10795z"/>
<path d="M7620 14815 l0 -10235 155 0 155 0 0 10235 0 10235 -155 0 -155 0 0
-10235z"/>
<path d="M8240 14815 l0 -10235 310 0 310 0 0 10235 0 10235 -310 0 -310 0 0
-10235z"/>
<path d="M9170 14815 l0 -10235 465 0 465 0 0 10235 0 10235 -465 0 -465 0 0
-10235z"/>
<path d="M10410 14815 l0 -10235 310 0 310 0 0 10235 0 10235 -310 0 -310 0 0
-10235z"/>
<path d="M11340 14815 l0 -10235 155 0 155 0 0 10235 0 10235 -155 0 -155 0 0
-10235z"/>
<path d="M11960 14815 l0 -10235 620 0 620 0 0 10235 0 10235 -620 0 -620 0 0
-10235z"/>
<path d="M13510 14815 l0 -10235 155 0 155 0 0 10235 0 10235 -155 0 -155 0 0
-10235z"/>
<path d="M14750 14815 l0 -10235 310 0 310 0 0 10235 0 10235 -310 0 -310 0 0
-10235z"/>
<path d="M15680 14815 l0 -10235 155 0 155 0 0 10235 0 10235 -155 0 -155 0 0
-10235z"/>
<path d="M16920 14815 l0 -10235 310 0 310 0 0 10235 0 10235 -310 0 -310 0 0
-10235z"/>
<path d="M17850 14255 l0 -10795 155 0 155 0 0 10795 0 10795 -155 0 -155 0 0
-10795z"/>
<path d="M18470 14255 l0 -10795 155 0 155 0 0 10795 0 10795 -155 0 -155 0 0
-10795z"/>
<path d="M19090 14815 l0 -10235 155 0 155 0 0 10235 0 10235 -155 0 -155 0 0
-10235z"/>
<path d="M20330 14815 l0 -10235 155 0 155 0 0 10235 0 10235 -155 0 -155 0 0
-10235z"/>
<path d="M21260 14815 l0 -10235 155 0 155 0 0 10235 0 10235 -155 0 -155 0 0
-10235z"/>
<path d="M22190 14815 l0 -10235 155 0 155 0 0 10235 0 10235 -155 0 -155 0 0
-10235z"/>
<path d="M23430 14815 l0 -10235 155 0 155 0 0 10235 0 10235 -155 0 -155 0 0
-10235z"/>
<path d="M24980 14815 l0 -10235 155 0 155 0 0 10235 0 10235 -155 0 -155 0 0
-10235z"/>
<path d="M25600 14815 l0 -10235 155 0 155 0 0 10235 0 10235 -155 0 -155 0 0
-10235z"/>
<path d="M27150 14815 l0 -10235 155 0 155 0 0 10235 0 10235 -155 0 -155 0 0
-10235z"/>
<path d="M27770 14815 l0 -10235 155 0 155 0 0 10235 0 10235 -155 0 -155 0 0
-10235z"/>
<path d="M29320 14815 l0 -10235 155 0 155 0 0 10235 0 10235 -155 0 -155 0 0
-10235z"/>
<path d="M29940 14255 l0 -10795 155 0 155 0 0 10795 0 10795 -155 0 -155 0 0
-10795z"/>
<path d="M30870 14255 l0 -10795 465 0 465 0 0 10795 0 10795 -465 0 -465 0 0
-10795z"/>
<path d="M32110 14255 l0 -10795 155 0 155 0 0 10795 0 10795 -155 0 -155 0 0
-10795z"/>
<path d="M32730 14255 l0 -10795 155 0 155 0 0 10795 0 10795 -155 0 -155 0 0
-10795z"/>
<path d="M8292 3830 c-148 -27 -280 -97 -387 -205 -128 -129 -186 -279 -187
-485 0 -206 47 -335 167 -456 136 -136 307 -193 544 -181 141 8 206 24 338 87
l101 48 -5 -36 c-19 -147 -56 -257 -119 -359 -157 -254 -463 -340 -811 -228
l-23 7 0 -130 0 -131 43 -13 c27 -8 101 -13 212 -13 188 1 279 17 418 75 382
159 586 583 564 1170 -9 218 -37 353 -104 485 -92 182 -223 291 -415 345 -84
24 -256 34 -336 20z m259 -236 c66 -20 149 -73 190 -123 16 -20 43 -63 59 -96
50 -106 61 -166 67 -361 l5 -180 -58 -26 c-139 -62 -196 -73 -374 -73 -165 0
-165 0 -232 32 -169 80 -237 231 -209 460 24 196 115 318 276 369 58 18 211
17 276 -2z"/>
<path d="M12330 3833 c-217 -16 -405 -79 -537 -179 -190 -145 -318 -380 -370
-684 -21 -122 -24 -462 -5 -570 54 -303 182 -501 387 -600 103 -49 199 -70
324 -70 130 0 227 21 326 70 273 134 415 409 375 724 -28 227 -130 375 -325
472 -106 52 -192 67 -370 62 -166 -5 -234 -22 -375 -93 -38 -19 -71 -35 -73
-35 -2 0 0 26 5 58 59 385 301 610 660 612 72 0 186 -21 243 -45 29 -11 37
-12 41 -2 2 7 3 67 2 133 l-3 119 -45 11 c-52 13 -195 22 -260 17z m-91 -1003
c123 -21 237 -103 282 -205 50 -113 48 -317 -4 -440 -63 -149 -201 -235 -377
-235 -214 1 -373 133 -436 365 -11 40 -18 119 -21 236 l-5 176 58 27 c166 76
338 102 503 76z"/>
<path d="M22292 3815 c-115 -30 -203 -78 -285 -155 -117 -109 -164 -225 -154
-380 7 -119 34 -186 109 -266 33 -35 94 -85 135 -111 83 -53 85 -45 -19 -103
-326 -184 -380 -629 -108 -887 142 -135 363 -205 599 -190 127 9 209 30 321
85 165 80 282 217 326 379 22 84 20 223 -5 303 -40 127 -144 238 -297 316 -41
20 -74 39 -74 40 0 2 28 18 62 36 161 85 277 273 278 448 1 180 -108 344 -285
430 -120 59 -178 72 -355 76 -140 4 -164 2 -248 -21z m355 -189 c123 -33 216
-110 249 -208 35 -107 3 -274 -72 -368 -45 -57 -133 -130 -157 -130 -27 0
-201 66 -304 116 -168 82 -236 168 -237 299 -1 188 144 303 384 304 47 1 108
-5 137 -13z m-159 -891 c257 -91 383 -169 434 -268 27 -53 37 -194 18 -265
-35 -128 -133 -220 -275 -258 -67 -18 -228 -18 -288 1 -124 37 -237 136 -277
242 -28 72 -37 192 -20 265 27 115 104 227 210 304 25 19 45 34 45 34 0 0 69
-25 153 -55z"/>
<path d="M24185 3834 c-139 -21 -354 -77 -417 -110 l-28 -15 0 -139 c0 -77 3
-140 7 -140 4 0 50 22 102 49 168 85 304 121 461 121 160 0 257 -34 328 -115
106 -121 71 -329 -71 -419 -78 -50 -139 -66 -284 -79 l-133 -11 0 -107 0 -106
123 -7 c217 -12 290 -33 366 -102 68 -61 101 -149 101 -269 0 -341 -311 -501
-736 -380 -49 14 -139 50 -200 80 -61 30 -114 55 -117 55 -4 0 -7 -65 -7 -144
l0 -143 57 -22 c84 -32 218 -68 317 -86 111 -19 321 -19 418 -1 315 60 519
276 544 575 22 265 -106 456 -360 537 -39 12 -72 26 -73 31 -2 5 16 15 39 22
181 55 323 210 347 381 35 251 -114 448 -394 521 -78 20 -315 34 -390 23z"/>
<path d="M26005 3834 c-136 -21 -305 -66 -390 -103 l-45 -20 0 -140 c0 -78 4
-141 9 -141 5 0 33 15 64 33 80 48 208 97 317 119 125 26 297 21 381 -11 116
-44 181 -131 182 -245 1 -92 -19 -149 -71 -207 -78 -87 -173 -122 -360 -134
l-112 -8 0 -107 0 -108 128 -7 c158 -9 210 -18 281 -51 102 -46 152 -117 171
-242 14 -85 0 -206 -31 -268 -114 -236 -441 -296 -815 -149 -46 18 -106 47
-134 64 -28 17 -55 31 -60 31 -6 0 -10 -56 -10 -144 l0 -145 55 -20 c311 -116
657 -135 878 -46 194 77 332 231 382 424 19 74 22 232 5 306 -12 53 -64 153
-102 196 -58 65 -165 126 -272 153 -27 7 -51 17 -53 23 -2 5 24 17 57 27 124
37 247 144 302 263 54 116 50 274 -11 388 -59 111 -188 202 -346 245 -60 16
-117 22 -225 25 -80 2 -158 1 -175 -1z"/>
<path d="M27785 3826 c-102 -17 -254 -58 -331 -88 l-59 -24 -3 -142 c-1 -78 1
-142 4 -142 4 0 57 25 118 55 61 30 152 67 201 82 81 24 106 27 245 27 149 1
157 0 215 -27 85 -40 119 -70 149 -129 20 -40 26 -67 26 -118 0 -129 -58 -223
-173 -280 -73 -35 -129 -47 -272 -56 l-105 -7 0 -107 0 -108 128 -7 c228 -12
332 -47 399 -134 50 -66 66 -133 61 -260 -3 -93 -7 -113 -32 -166 -34 -68
-105 -144 -163 -173 -192 -98 -515 -64 -780 84 -34 19 -66 34 -72 34 -7 0 -11
-46 -11 -140 l0 -139 28 -15 c42 -21 208 -72 302 -93 120 -26 426 -26 520 0
126 35 226 92 309 176 123 123 181 264 181 437 0 152 -36 256 -124 351 -52 57
-169 123 -260 146 -27 7 -51 18 -53 23 -2 6 16 16 39 23 125 37 260 147 312
254 59 120 58 275 -3 396 -60 117 -206 219 -371 256 -99 23 -321 28 -425 11z"/>
<path d="M2147 3803 c-3 -5 -8 -27 -12 -50 -9 -58 -57 -126 -114 -163 -54 -34
-139 -55 -268 -66 l-83 -7 0 -93 0 -94 210 0 210 0 0 -675 0 -675 -210 0 -210
0 0 -105 0 -105 550 0 551 0 -3 103 -3 102 -207 3 -208 2 0 915 0 915 -99 0
c-55 0 -102 -3 -104 -7z"/>
<path d="M9600 3680 l0 -120 575 -2 575 -3 -485 -889 c-267 -489 -485 -891
-485 -893 0 -2 65 -3 144 -3 l144 0 458 858 458 857 1 155 0 155 -692 3 -693
2 0 -120z"/>
<path d="M13635 3223 l-495 -577 0 -153 0 -153 490 0 490 0 0 -285 0 -285 130
0 130 0 0 285 0 285 150 0 150 0 0 110 0 110 -150 0 -150 0 0 620 0 620 -125
0 -125 0 -495 -577z m482 -660 c-2 -2 -178 -2 -392 -1 l-387 3 388 452 389
453 3 -452 c1 -248 1 -453 -1 -455z"/>
<path d="M15463 3225 l-493 -575 0 -155 0 -155 485 0 485 0 0 -285 0 -285 135
0 135 0 0 285 0 285 150 0 151 0 -3 108 -3 107 -147 3 -148 3 -2 617 -3 617
-125 2 -125 2 -492 -574z m474 -662 c-2 -2 -177 -2 -388 -1 l-385 3 386 448
385 449 3 -448 c1 -246 1 -449 -1 -451z"/>
<path d="M20010 3680 l0 -120 575 0 c316 0 575 -3 575 -7 0 -5 -218 -406 -484
-893 l-484 -885 141 -3 c77 -1 144 1 148 5 4 4 213 393 463 863 l456 855 0
153 0 152 -695 0 -695 0 0 -120z"/>
<path d="M33850 3275 l0 -525 23 5 c339 75 685 50 815 -60 130 -109 160 -330
71 -508 -78 -153 -211 -221 -434 -220 -156 1 -303 40 -465 124 -42 21 -81 39
-88 39 -9 0 -12 -37 -12 -141 l0 -140 43 -19 c67 -30 203 -66 314 -85 128 -21
375 -17 468 9 241 66 409 233 477 473 41 145 26 359 -34 477 -37 74 -97 144
-163 192 -141 100 -310 139 -582 132 l-163 -4 0 268 0 268 475 0 475 0 0 120
0 120 -610 0 -610 0 0 -525z"/>
</g>
</svg>
