<REAPER_PROJECT 0.1 "6.81/win64" 1690085526
  <NOTES 0 2
  >
  RIPPLE 0
  GROUPOVERRIDE 0 0 0
  AUTOXFADE 129
  ENVATTACH 3
  POOLEDENVATTACH 0
  MIXERUIFLAGS 11 48
  PEAKGAIN 1
  FEEDBACK 0
  PANLAW 1
  PROJOFFS 0 0 0
  MAXPROJLEN 0 0
  GRID 3199 8 1 8 1 0 0 0
  TIMEMODE 1 5 -1 30 0 0 -1
  VIDEO_CONFIG 0 0 256
  PANMODE 3
  CURSOR 3
  ZOOM 35.85960413809065 1329 0
  VZOOMEX 2.125 0
  USE_REC_CFG 0
  RECMODE 1
  SMPTESYNC 0 30 100 40 1000 300 0 0 1 0 0
  LOOP 1
  LOOPGRAN 0 4
  RECORD_PATH "" ""
  <RECORD_CFG
    ZXZhdxgAAQ==
  >
  <APPLYFX_CFG
  >
  RENDER_FILE ""
  RENDER_PATTERN ""
  RENDER_FMT 0 2 0
  RENDER_1X 0
  RENDER_RANGE 1 0 0 18 1000
  RENDER_RESAMPLE 3 0 1
  RENDER_ADDTOPROJ 0
  RENDER_STEMS 0
  RENDER_DITHER 0
  TIMELOCKMODE 1
  TEMPOENVLOCKMODE 1
  ITEMMIX 1
  DEFPITCHMODE 589824 0
  TAKELANE 1
  SAMPLERATE 44100 0 0
  <RENDER_CFG
    ZXZhdxgAAQ==
  >
  LOCK 1
  <METRONOME 6 2
    VOL 0.25 0.125
    FREQ 800 1600 1
    BEATLEN 4
    SAMPLES "" ""
    PATTERN 2863311530 2863311529
    MULT 1
  >
  GLOBAL_AUTO -1
  TEMPO 200 4 4
  PLAYRATE 1 0 0.25 4
  SELECTION 86.4 86.4
  SELECTION2 86.4 86.4
  MASTERAUTOMODE 0
  MASTERTRACKHEIGHT 0 0
  MASTERPEAKCOL 16576
  MASTERMUTESOLO 0
  MASTERTRACKVIEW 0 0.6667 0.5 0.5 0 0 0 0 0 0 0 0 0
  MASTERHWOUT 0 0 1 0 0 0 0 -1
  MASTER_NCH 2 2
  MASTER_VOLUME 0.14894257413066 0 -1 -1 1
  MASTER_PANMODE 3
  MASTER_FX 1
  MASTER_SEL 0
  <MASTERPLAYSPEEDENV
    EGUID {D66207E4-49F9-479F-B241-466BDAF54644}
    ACT 0 -1
    VIS 0 1 1
    LANEHEIGHT 0 0
    ARM 0
    DEFSHAPE 0 -1 -1
  >
  <TEMPOENVEX
    EGUID {0E9C531F-0C68-4241-AAAC-AD9031F7A9C6}
    ACT 0 -1
    VIS 1 0 1
    LANEHEIGHT 0 0
    ARM 0
    DEFSHAPE 1 -1 -1
  >
  <PROJBAY
  >
  <KEYSIG
    0 0 -1 0x5AD
  >
  <TRACK {807D257B-CC1B-485A-85E6-CDD14807C484}
    NAME score
    PEAKCOL 16576
    BEAT -1
    AUTOMODE 0
    VOLPAN 1.16340968999221 0 -1 -1 1
    MUTESOLO 0 0 0
    IPHASE 0
    PLAYOFFS 0 1
    ISBUS 0 0
    BUSCOMP 0 0 0 0 0
    SHOWINMIX 1 0.6667 0.5 1 0.5 0 0 0
    SEL 0
    REC 0 0 1 0 0 0 0 0
    VU 2
    TRACKHEIGHT 0 0 0 0 0 0
    INQ 0 0 0 0.5 100 0 0 100
    NCHAN 2
    FX 1
    TRACKID {807D257B-CC1B-485A-85E6-CDD14807C484}
    PERF 0
    MIDIOUT -1
    MAINSEND 1 0
    <FXCHAIN
      WNDRECT 23 51 853 424
      SHOW 0
      LASTSEL 1
      DOCKED 0
      BYPASS 0 0 0
      <VST "VSTi: Synth1 VSTi (Daichi)" "Synth1 VST64.dll" 0 "" 1395742323<5653545331567373796E746831767374> ""
        c1YxU+5e7f4AAAAAAgAAAAEAAAAAAAAAAgAAAAAAAABACgAAAQAAAAAAEAA=
        U3ludGgxIFZTVCBDaHVuayBEYXRhAAAAAAAAAAAAAAACAAAAAAAAAAAAAAAAAAAAAAAAAAAAAAAAAAAAAAAAAAAAAAAAAAAAAAAAAAAAAAAAAAAAAAAAAAAAAAAAAAAA
        AAAAAAAAAAAAAAAAAAAAAAAAAAAAAAAAAAAAAAAAAAAAAAAAAAAAAAAAAAAAAAAAAAAAAAAAAAAAAAAAAAAAAAAAAAAAAAAAAAAAAAAAAAAAAAAAAAAAAAAAAAAAAAAA
        AAAAAAAAAAAAAAAAAAAAAAAAAAAAAAAAAAAAAAAAAAAAAAAAAAAAAAAAAAAAAAAAAAAAAAAAAAAAAAAAAAAAAAAAAAAAAAAAAAAAAAAAAAAAAAAAAAAAAAAAAAAAAAAA
        AAAAAAAAAAAAAAAAAAAAAAAAAAAAAAAAAAAAAAAAAAAAAAAAAAAAAAAAAAAAAAAAAAAAAAAAAAAAAAAAAAAAAAAAAAAAAAAAAAAAAAAAAAAAAAAAAAAAAAAAAAAAAAAA
        AAAAAAAAAAAAAAAAAAAAAAAAAAAAAAAAAAAAAAAAAAAAAAAAAAAAAAAAAAAAAAAAAAAAAAAAAAAAAAAAAAAAAAAAAAAAAAAAAAAAAAAAAAAAAAAAAAAAAAAAAAAAAAAA
        AAAAAAAAAAAAAAAAAAAAAAAAAAAAAAAAAAAAAAAAAAAAAAAAAAAAAAAAAAAAAAAAAAAAAAAAAAAAAAAAAAAAAAAAAAAAAAAAAAAAAAAAAABxAAAAAAEAAAEAAAAAAAAA
        AQAAAAEAAAABAAAATQAAAAEAAABAAAAAAQAAAAEAAAABAAAATgAAAAEAAAABAAAAAQAAAAAAAAABAAAAFAAAAAEAAAAAAAAAAQAAAAEAAAABAAAASAAAAAEAAAAfAAAA
        AQAAAB4AAAABAAAAAAAAAAEAAAAIAAAAAQAAAGAAAAABAAAAQAAAAAEAAABAAAAAAQAAADAAAAABAAAAEAAAAAEAAABOAAAAAQAAAEEAAAABAAAAAAAAAAEAAAABAAAA
        AQAAAAgAAAABAAAASwAAAAEAAAAuAAAAAQAAAFAAAAABAAAAQAAAAAEAAAATAAAAAQAAAAEAAAABAAAAAAAAAAEAAAANAAAAAQAAAEAAAAABAAAAAgAAAAEAAAAuAAAA
        AQAAACIAAAABAAAAAAAAAAEAAAAIAAAAAQAAAAwAAAABAAAAAgAAAAEAAAAFAAAAAQAAAB4AAAABAAAAAQAAAAEAAAAHAAAAAQAAAAQAAAABAAAAAQAAAAEAAAAAAAAA
        AQAAAEAAAAABAAAAYQAAAAEAAABYAAAAAQAAAEAAAAABAAAAUwAAAAEAAAAyAAAAAQAAAFsAAAABAAAAGAAAAAEAAAABAAAAAQAAAAEAAAABAAAAAAAAAAEAAABAAAAA
        AQAAAEIAAAABAAAAVwAAAAEAAABAAAAAAQAAAAEAAAABAAAAAQAAAAEAAAAAAAAAAQAAAAAAAAABAAAAAQAAAAEAAAAAAAAAAQAAAAEAAAABAAAAAQAAAAEAAABAAAAA
        AQAAAAEAAAABAAAAAQAAAAEAAAAwAAAAAQAAAAwAAAABAAAAAQAAAAEAAAAFAAAAAQAAACAAAAABAAAAKAAAAAEAAABAAAAAAQAAAAEAAAABAAAAGQAAAAEAAABAAAAA
        AQAAADAAAAABAAAAAbAAAAEAAAAsAAAAAQAAAAGwAAABAAAAKwAAAAEAAABAAAAAAQAAAAAAAAABAAAAAAAAAAEAAAACAAAAAQAAABAAAAABAAAAAAAAAAEAAAABAAAA
        AQAAAAEAAAABAAAAQAAAAAAAAAAAAAAAAAAAAAAAAAAAAAAAAAAAAAAAAAAAAAAAAAAAAAAAAAAAAAAAAAAAAAAAAAAAAAAAAAAAAAAAAAAAAAAAAAAAAAAAAAAAAAAA
        AAAAAAAAAAAAAAAAAAAAAAAAAAAAAAAAAAAAAAAAAAAAAAAAAAAAAAAAAAAAAAAAAAAAAAAAAAAAAAAAAAAAAAAAAAAAAAAAAAAAAAAAAAAAAAAAAAAAAAAAAAAAAAAA
        AAAAAAAAAAAAAAAAAAAAAAAAAAAAAAAAAAAAAAAAAAAAAAAAAAAAAAAAAAAAAAAAAAAAAAAAAAAAAAAAAAAAAAAAAAAAAAAAAAAAAAAAAAAAAAAAAAAAAAAAAAAAAAAA
        AAAAAAAAAAAAAAAAAAAAAAAAAAAAAAAAAAAAAAAAAAAAAAAAAAAAAAAAAAAAAAAAAAAAAAAAAAAAAAAAAAAAAAAAAAAAAAAAAAAAAAAAAAAAAAAAAAAAAAAAAAAAAAAA
        AAAAAAAAAAAAAAAAAAAAAAAAAAAAAAAAAAAAAAAAAAAAAAAAAAAAAAAAAAAAAAAAAAAAAAAAAAAAAAAAAAAAAAAAAAAAAAAAAAAAAAAAAAAAAAAAAAAAAAAAAAAAAAAA
        AAAAAAAAAAAAAAAAAAAAAAAAAAAAAAAAAAAAAAAAAAAAAAAAAAAAAAAAAAAAAAAAAAAAAAAAAAAAAAAAAAAAAAAAAAAAAAAAAAAAAAAAAAAAAAAAAAAAAAAAAAAAAAAA
        AAAAAAAAAAAAAAAAAAAAAAAAAAAAAAAAAAAAAAAAAAAAAAAAAAAAAAAAAAAAAAAAAAAAAAAAAAAAAAAAAAAAAAAAAAAAAAAAAAAAAAAAAAAAAAAAAAAAAAAAAAAAAAAA
        AAAAAAAAAAAAAAAAAAAAAAAAAAAAAAAAAAAAAAAAAAAAAAAAAAAAAAAAAAAAAAAAAAAAAAAAAAAAAAAAAAAAAAAAAAAAAAAAAAAAAAAAAAAAAAAAAAAAAAAAAAAAAAAA
        AAAAAAAAAAAAAAAAAAAAAAAAAAAAAAAAAAAAAAAAAAAAAAAAAAAAAAAAAAAAAAAAAAAAAAAAAAAAAAAAAAAAAAAAAAAAAAAAAAAAAAAAAAAAAAAAAAAAAAAAAAAAAAAA
        AAAAAAAAAAAAAAAAAAAAAAAAAAAAAAAAAAAAAAAAAAAAAAAAAAAAAAAAAAAAAAAAAAAAAAAAAAAAAAAAAAAAAAAAAAAAAAAAAAAAAAAAAAAAAAAAAAAAAAAAAAAAAAAA
        AAAAAAAAAAAAAAAAAAAAAAAAAAAAAAAAAAAAAAAAAAAAAAAAAAAAAAAAAAAAAAAAAAAAAAAAAAAAAAAAAAAAAAAAAAAAAAAAAAAAAAAAAAAAAAAAAAAAAAAAAAAAAAAA
        AAAAAAAAAAAAAAAAAAAAAAAAAAAAAAAAAAAAAAAAAAAAAAAAAAAAAAAAAAAAAAAAAAAAAAAAAAAAAAAAAAAAAAAAAAAAAAAAAAAAAAAAAAAAAAAAAAAAAAAAAAAAAAAA
        AAAAAAAAAAAAAAAAAAAAAAAAAAAAAAAAAAAAAAAAAAAAAAAAAAAAAAAAAAAAAAAAAAAAAAAAAAAAAAAAAAAAAAAAAAAAAAAAAQAAAHEAAAABAAAAAAAAAAEAAAAPAAAA
        AAAAAAAAAAABAAAATwAAAAAAAAAAAAAAAAAAAAAAAAA=
        AER1bmdlb24gS2V5cwAQAAAA
      >
      PRESETNAME "Dungeon Keys"
      FLOATPOS 0 0 0 0
      FXID {62859B85-1224-4AF4-AD08-0ED537AE3176}
      WAK 0 0
      BYPASS 0 0 0
      <VST "VST: ReaVerbate (Cockos)" reaverbate.dll 0 "" 1920361016<56535472766238726561766572626174> ""
        OGJ2cu9e7f4CAAAAAQAAAAAAAAACAAAAAAAAAAIAAAABAAAAAAAAAAIAAAAAAAAAKAAAAAAAAAAAABAA
        776t3g3wrd5QHNw/VfQiP7ZLKz8AAAAAAACAPwAAAABLSYk+AAAAAA==
        AFByb2dyYW0gMQAQAAAA
      >
      FLOATPOS 0 0 0 0
      FXID {D5D67374-7C37-4B13-9C35-F2F5EEBACDFA}
      WAK 0 0
    >
    <ITEM
      POSITION 0
      SNAPOFFS 0
      LENGTH 117.6
      LOOP 1
      ALLTAKES 0
      FADEIN 1 0 0 1 0 0 0
      FADEOUT 1 0 0 1 0 0 0
      MUTE 0 0
      SEL 0
      IGUID {9578D588-8530-4D4E-9394-3B165E74B1D9}
      IID 9
      NAME "II. Flow my tears - score.mid"
      VOLPAN 1 0 1 -1
      SOFFS 0 0
      PLAYRATE 1 1 0 -1 0 0.0025
      CHANMODE 0
      GUID {0AB70EE0-D0AA-41F0-A557-8CFDDA1755E0}
      <SOURCE MIDI
        HASDATA 1 480 QN
        CCINTERP 32
        POOLEDEVTS {BF80C779-48E5-492B-9266-2407FB1C3F1A}
        <X 0 0 0 0 3 "II. Flow my tears"
          /wNJSS4gRmxvdyBteSB0ZWFycw==
        >
        <X 0 0 0 0 3 Lachrimae.
          /wNMYWNocmltYWUu
        >
        <X 0 0 0 0 1 "C:John Dowland"
          /wFDOkpvaG4gRG93bGFuZA==
        >
        <X 0 0
          /1kCAAE=
        >
        E 0 90 45 69
        E 1439 80 45 00
        E 1 90 43 50
        E 239 80 43 00
        E 1 90 41 50
        E 239 80 41 00
        E 1 90 40 5f
        E 959 80 40 00
        E 1 90 48 5f
        E 1919 80 48 00
        E 1 90 47 5f
        E 479 80 47 00
        E 1 90 45 50
        E 479 80 45 00
        E 1 90 44 5f
        E 1919 80 44 00
        E 1 90 45 69
        E 959 80 45 00
        E 1 90 40 5f
        E 1439 80 40 00
        E 1 90 40 50
        E 479 80 40 00
        E 1 90 43 5f
        E 479 80 43 00
        E 1 90 43 50
        E 479 80 43 00
        E 1 90 41 69
        E 959 80 41 00
        E 1 90 3e 5f
        E 959 80 3e 00
        E 1 90 40 5f
        E 1439 80 40 00
        E 1 90 47 50
        E 479 80 47 00
        E 1 90 48 69
        E 959 80 48 00
        E 1 90 45 5f
        E 959 80 45 00
        E 1 90 47 5f
        E 959 80 47 00
        E 1 90 44 5f
        E 959 80 44 00
        E 1 90 45 69
        E 479 80 45 00
        E 1 90 48 50
        E 639 80 48 00
        E 1 90 47 50
        E 319 80 47 00
        E 1 90 45 50
        E 479 80 45 00
        E 1 90 44 5f
        E 959 80 44 00
        E 1 90 48 5f
        E 959 80 48 00
        E 1 90 47 69
        E 479 80 47 00
        E 1 90 45 50
        E 479 80 45 00
        E 1 90 45 5f
        E 1439 80 45 00
        E 1 90 44 50
        E 239 80 44 00
        E 1 90 41 50
        E 239 80 41 00
        E 1 90 44 5f
        E 959 80 44 00
        E 1 90 45 69
        E 3839 80 45 00
        E 1 90 45 69
        E 1439 80 45 00
        E 1 90 43 50
        E 239 80 43 00
        E 1 90 41 50
        E 239 80 41 00
        E 1 90 40 5f
        E 959 80 40 00
        E 1 90 48 5f
        E 1919 80 48 00
        E 1 90 47 5f
        E 479 80 47 00
        E 1 90 45 50
        E 479 80 45 00
        E 1 90 44 5f
        E 1919 80 44 00
        E 1 90 45 69
        E 959 80 45 00
        E 1 90 40 5f
        E 1439 80 40 00
        E 1 90 40 50
        E 479 80 40 00
        E 1 90 43 5f
        E 479 80 43 00
        E 1 90 43 50
        E 479 80 43 00
        E 1 90 41 69
        E 959 80 41 00
        E 1 90 3e 5f
        E 959 80 3e 00
        E 1 90 40 5f
        E 1439 80 40 00
        E 1 90 47 50
        E 479 80 47 00
        E 1 90 48 69
        E 959 80 48 00
        E 1 90 45 5f
        E 959 80 45 00
        E 1 90 47 5f
        E 959 80 47 00
        E 1 90 44 5f
        E 959 80 44 00
        E 1 90 45 69
        E 479 80 45 00
        E 1 90 48 50
        E 639 80 48 00
        E 1 90 47 50
        E 319 80 47 00
        E 1 90 45 50
        E 479 80 45 00
        E 1 90 44 5f
        E 959 80 44 00
        E 1 90 48 5f
        E 959 80 48 00
        E 1 90 47 69
        E 479 80 47 00
        E 1 90 45 50
        E 479 80 45 00
        E 1 90 45 5f
        E 1439 80 45 00
        E 1 90 44 50
        E 239 80 44 00
        E 1 90 41 50
        E 239 80 41 00
        E 1 90 44 5f
        E 959 80 44 00
        E 1 90 45 69
        E 3839 80 45 00
        E 1 90 48 69
        E 1439 80 48 00
        E 1 90 47 50
        E 479 80 47 00
        E 1 90 45 5f
        E 479 80 45 00
        E 1 90 43 50
        E 479 80 43 00
        E 1 90 48 5f
        E 1439 80 48 00
        E 1 90 47 50
        E 239 80 47 00
        E 1 90 45 50
        E 239 80 45 00
        E 1 90 47 5f
        E 959 80 47 00
        E 1 90 48 69
        E 959 80 48 00
        E 1 90 43 5f
        E 959 80 43 00
        E 481 90 45 50
        E 959 80 45 00
        E 1 90 44 50
        E 479 80 44 00
        E 1 90 45 69
        E 479 80 45 00
        E 1 90 41 50
        E 479 80 41 00
        E 1 90 40 5f
        E 959 80 40 00
        E 481 90 3e 50
        E 479 80 3e 00
        E 1 90 41 5f
        E 959 80 41 00
        E 481 90 41 50
        E 479 80 41 00
        E 1 90 45 5f
        E 959 80 45 00
        E 481 90 45 50
        E 479 80 45 00
        E 1 90 48 5f
        E 959 80 48 00
        E 481 90 43 50
        E 479 80 43 00
        E 1 90 47 5f
        E 639 80 47 00
        E 1 90 48 50
        E 319 80 48 00
        E 1 90 4a 69
        E 959 80 4a 00
        E 481 90 3e 50
        E 479 80 3e 00
        E 1 90 41 5f
        E 639 80 41 00
        E 1 90 43 50
        E 319 80 43 00
        E 1 90 45 5f
        E 959 80 45 00
        E 481 90 48 50
        E 959 80 48 00
        E 1 90 47 50
        E 479 80 47 00
        E 1 90 48 5f
        E 639 80 48 00
        E 1 90 47 50
        E 319 80 47 00
        E 1 90 45 5f
        E 239 80 45 00
        E 1 90 43 50
        E 239 80 43 00
        E 1 90 45 50
        E 479 80 45 00
        E 1 90 44 69
        E 3839 80 44 00
        E 1 90 48 69
        E 1439 80 48 00
        E 1 90 47 50
        E 479 80 47 00
        E 1 90 45 5f
        E 479 80 45 00
        E 1 90 43 50
        E 479 80 43 00
        E 1 90 48 5f
        E 1439 80 48 00
        E 1 90 47 50
        E 239 80 47 00
        E 1 90 45 50
        E 239 80 45 00
        E 1 90 47 5f
        E 959 80 47 00
        E 1 90 48 69
        E 959 80 48 00
        E 1 90 43 5f
        E 959 80 43 00
        E 481 90 45 50
        E 959 80 45 00
        E 1 90 44 50
        E 479 80 44 00
        E 1 90 45 69
        E 479 80 45 00
        E 1 90 41 50
        E 479 80 41 00
        E 1 90 40 5f
        E 959 80 40 00
        E 481 90 3e 50
        E 479 80 3e 00
        E 1 90 41 5f
        E 959 80 41 00
        E 481 90 41 50
        E 479 80 41 00
        E 1 90 45 5f
        E 959 80 45 00
        E 481 90 45 50
        E 479 80 45 00
        E 1 90 48 5f
        E 959 80 48 00
        E 481 90 43 50
        E 479 80 43 00
        E 1 90 47 5f
        E 639 80 47 00
        E 1 90 48 50
        E 319 80 48 00
        E 1 90 4a 69
        E 959 80 4a 00
        E 481 90 3e 50
        E 479 80 3e 00
        E 1 90 41 5f
        E 639 80 41 00
        E 1 90 43 50
        E 319 80 43 00
        E 1 90 45 5f
        E 959 80 45 00
        E 481 90 48 50
        E 959 80 48 00
        E 1 90 47 50
        E 479 80 47 00
        E 1 90 48 5f
        E 639 80 48 00
        E 1 90 47 50
        E 319 80 47 00
        E 1 90 45 5f
        E 239 80 45 00
        E 1 90 43 50
        E 239 80 43 00
        E 1 90 45 50
        E 479 80 45 00
        E 1 90 44 69
        E 3839 80 44 00
        E 1 90 44 69
        E 1439 80 44 00
        E 1 90 45 50
        E 479 80 45 00
        E 1 90 47 5f
        E 959 80 47 00
        E 1 90 48 5f
        E 959 80 48 00
        E 1 90 47 69
        E 479 80 47 00
        E 1 90 45 50
        E 479 80 45 00
        E 1 90 45 5f
        E 1919 80 45 00
        E 1 90 44 5f
        E 959 80 44 00
        E 1 90 45 69
        E 1439 80 45 00
        E 1 90 48 50
        E 479 80 48 00
        E 1 90 47 5f
        E 479 80 47 00
        E 1 90 48 50
        E 479 80 48 00
        E 1 90 45 5f
        E 959 80 45 00
        E 1 90 44 5f
        E 1919 80 44 00
        E 2881 90 4c 5f
        E 1439 80 4c 00
        E 1 90 47 50
        E 479 80 47 00
        E 1 90 4a 5f
        E 1439 80 4a 00
        E 1 90 45 50
        E 479 80 45 00
        E 1 90 48 5f
        E 959 80 48 00
        E 1 90 47 69
        E 959 80 47 00
        E 1 90 45 5f
        E 959 80 45 00
        E 1 90 44 5f
        E 959 80 44 00
        E 1 90 48 5f
        E 959 80 48 00
        E 1 90 47 5f
        E 479 80 47 00
        E 1 90 45 50
        E 479 80 45 00
        E 1 90 45 5f
        E 1439 80 45 00
        E 1 90 44 50
        E 239 80 44 00
        E 1 90 41 50
        E 239 80 41 00
        E 1 90 44 5f
        E 959 80 44 00
        E 1 90 45 69
        E 3839 80 45 00
        E 1 90 44 69
        E 1439 80 44 00
        E 1 90 45 50
        E 479 80 45 00
        E 1 90 47 5f
        E 959 80 47 00
        E 1 90 48 5f
        E 959 80 48 00
        E 1 90 47 69
        E 479 80 47 00
        E 1 90 45 50
        E 479 80 45 00
        E 1 90 45 5f
        E 1919 80 45 00
        E 1 90 44 5f
        E 959 80 44 00
        E 1 90 45 69
        E 1439 80 45 00
        E 1 90 48 50
        E 479 80 48 00
        E 1 90 47 5f
        E 479 80 47 00
        E 1 90 48 50
        E 479 80 48 00
        E 1 90 45 5f
        E 959 80 45 00
        E 1 90 44 5f
        E 1919 80 44 00
        E 2881 90 4c 5f
        E 1439 80 4c 00
        E 1 90 47 50
        E 479 80 47 00
        E 1 90 4a 5f
        E 1439 80 4a 00
        E 1 90 45 50
        E 479 80 45 00
        E 1 90 48 5f
        E 959 80 48 00
        E 1 90 47 69
        E 959 80 47 00
        E 1 90 45 5f
        E 959 80 45 00
        E 1 90 44 5f
        E 959 80 44 00
        E 1 90 48 5f
        E 959 80 48 00
        E 1 90 47 5f
        E 479 80 47 00
        E 1 90 45 50
        E 479 80 45 00
        E 1 90 45 5f
        E 1439 80 45 00
        E 1 90 44 50
        E 239 80 44 00
        E 1 90 41 50
        E 239 80 41 00
        E 1 90 44 5f
        E 959 80 44 00
        E 1 90 45 69
        E 3839 80 45 00
        E 1 b0 7b 00
        CCINTERP 32
        CHASE_CC_TAKEOFFS 1
        GUID {C52402CC-2F40-4395-8F63-4C3516B95B81}
        IGNTEMPO 0 120 4 4
        SRCCOLOR 454
        VELLANE -1 100 0
      >
    >
  >
  <TRACK {9B2603BC-A0DA-4283-841B-9AC9414E009E}
    NAME ""
    PEAKCOL 16576
    BEAT -1
    AUTOMODE 0
    VOLPAN 0.78304335735222 0 -1 -1 1
    MUTESOLO 0 0 0
    IPHASE 0
    PLAYOFFS 0 1
    ISBUS 0 0
    BUSCOMP 0 0 0 0 0
    SHOWINMIX 1 0.6667 0.5 1 0.5 0 0 0
    SEL 0
    REC 0 0 1 0 0 0 0 0
    VU 2
    TRACKHEIGHT 0 0 0 0 0 0
    INQ 0 0 0 0.5 100 0 0 100
    NCHAN 2
    FX 1
    TRACKID {9B2603BC-A0DA-4283-841B-9AC9414E009E}
    PERF 0
    MIDIOUT -1
    MAINSEND 1 0
    <FXCHAIN
      WNDRECT 23 51 853 424
      SHOW 0
      LASTSEL 1
      DOCKED 0
      BYPASS 0 0 0
      <VST "VSTi: Synth1 VSTi (Daichi)" "Synth1 VST64.dll" 0 "" 1395742323<5653545331567373796E746831767374> ""
        c1YxU+5e7f4AAAAAAgAAAAEAAAAAAAAAAgAAAAAAAABACgAAAQAAAAAAEAA=
        U3ludGgxIFZTVCBDaHVuayBEYXRhAAAAAAAAAAAAAAACAAAAAAAAAAAAAAAAAAAAAAAAAAAAAAAAAAAAAAAAAAAAAAAAAAAAAAAAAAAAAAAAAAAAAAAAAAAAAAAAAAAA
        AAAAAAAAAAAAAAAAAAAAAAAAAAAAAAAAAAAAAAAAAAAAAAAAAAAAAAAAAAAAAAAAAAAAAAAAAAAAAAAAAAAAAAAAAAAAAAAAAAAAAAAAAAAAAAAAAAAAAAAAAAAAAAAA
        AAAAAAAAAAAAAAAAAAAAAAAAAAAAAAAAAAAAAAAAAAAAAAAAAAAAAAAAAAAAAAAAAAAAAAAAAAAAAAAAAAAAAAAAAAAAAAAAAAAAAAAAAAAAAAAAAAAAAAAAAAAAAAAA
        AAAAAAAAAAAAAAAAAAAAAAAAAAAAAAAAAAAAAAAAAAAAAAAAAAAAAAAAAAAAAAAAAAAAAAAAAAAAAAAAAAAAAAAAAAAAAAAAAAAAAAAAAAAAAAAAAAAAAAAAAAAAAAAA
        AAAAAAAAAAAAAAAAAAAAAAAAAAAAAAAAAAAAAAAAAAAAAAAAAAAAAAAAAAAAAAAAAAAAAAAAAAAAAAAAAAAAAAAAAAAAAAAAAAAAAAAAAAAAAAAAAAAAAAAAAAAAAAAA
        AAAAAAAAAAAAAAAAAAAAAAAAAAAAAAAAAAAAAAAAAAAAAAAAAAAAAAAAAAAAAAAAAAAAAAAAAAAAAAAAAAAAAAAAAAAAAAAAAAAAAAAAAABxAAAAAAEAAAEAAAABAAAA
        AQAAAAEAAAABAAAAQAAAAAEAAABQAAAAAQAAAAEAAAABAAAAPwAAAAEAAAAAAAAAAQAAAAAAAAABAAAAPwAAAAEAAAAAAAAAAQAAAAAAAAABAAAAAAAAAAEAAAAkAAAA
        AQAAACQAAAABAAAAAQAAAAEAAAARAAAAAQAAAHoAAAABAAAARAAAAAEAAABtAAAAAQAAACUAAAABAAAABgAAAAEAAABTAAAAAQAAAEoAAAABAAAAEwAAAAEAAAAAAAAA
        AQAAAAAAAAABAAAAAAAAAAEAAAB/AAAAAQAAAGAAAAABAAAAQwAAAAEAAABYAAAAAQAAAAEAAAABAAAAAAAAAAEAAAALAAAAAQAAAEAAAAABAAAACQAAAAEAAAAwAAAA
        AQAAAB4AAAABAAAAAAAAAAEAAAAAAAAAAQAAAAIAAAABAAAAAgAAAAEAAAAFAAAAAQAAAFIAAAABAAAAAQAAAAEAAAAHAAAAAQAAAAQAAAABAAAABQAAAAEAAABrAAAA
        AQAAAAcAAAABAAAAYwAAAAEAAABWAAAAAQAAACoAAAABAAAAOwAAAAEAAAAvAAAAAQAAABwAAAABAAAANgAAAAEAAAABAAAAAQAAAAEAAAABAAAAAAAAAAEAAAArAAAA
        AQAAADUAAAABAAAANQAAAAEAAABIAAAAAQAAAAIAAAABAAAAAAAAAAEAAAAAAAAAAQAAAAAAAAABAAAAAAAAAAEAAAAAAAAAAQAAAAAAAAABAAAAAgAAAAEAAABCAAAA
        AQAAAAAAAAABAAAAAAAAAAEAAABGAAAAAQAAAAoAAAABAAAAAAAAAAEAAAAAAAAAAQAAAEAAAAABAAAAQAAAAAEAAABAAAAAAQAAAAAAAAABAAAAZgAAAAEAAAA+AAAA
        AQAAABgAAAABAAAAAbAAAAEAAAAsAAAAAQAAAAGwAAABAAAAKwAAAAEAAABAAAAAAQAAAAAAAAABAAAAAAAAAAEAAAACAAAAAQAAABAAAAABAAAAAAAAAAEAAAABAAAA
        AQAAAAEAAAABAAAAQAAAAAAAAAAAAAAAAAAAAAAAAAAAAAAAAAAAAAAAAAAAAAAAAAAAAAAAAAAAAAAAAAAAAAAAAAAAAAAAAAAAAAAAAAAAAAAAAAAAAAAAAAAAAAAA
        AAAAAAAAAAAAAAAAAAAAAAAAAAAAAAAAAAAAAAAAAAAAAAAAAAAAAAAAAAAAAAAAAAAAAAAAAAAAAAAAAAAAAAAAAAAAAAAAAAAAAAAAAAAAAAAAAAAAAAAAAAAAAAAA
        AAAAAAAAAAAAAAAAAAAAAAAAAAAAAAAAAAAAAAAAAAAAAAAAAAAAAAAAAAAAAAAAAAAAAAAAAAAAAAAAAAAAAAAAAAAAAAAAAAAAAAAAAAAAAAAAAAAAAAAAAAAAAAAA
        AAAAAAAAAAAAAAAAAAAAAAAAAAAAAAAAAAAAAAAAAAAAAAAAAAAAAAAAAAAAAAAAAAAAAAAAAAAAAAAAAAAAAAAAAAAAAAAAAAAAAAAAAAAAAAAAAAAAAAAAAAAAAAAA
        AAAAAAAAAAAAAAAAAAAAAAAAAAAAAAAAAAAAAAAAAAAAAAAAAAAAAAAAAAAAAAAAAAAAAAAAAAAAAAAAAAAAAAAAAAAAAAAAAAAAAAAAAAAAAAAAAAAAAAAAAAAAAAAA
        AAAAAAAAAAAAAAAAAAAAAAAAAAAAAAAAAAAAAAAAAAAAAAAAAAAAAAAAAAAAAAAAAAAAAAAAAAAAAAAAAAAAAAAAAAAAAAAAAAAAAAAAAAAAAAAAAAAAAAAAAAAAAAAA
        AAAAAAAAAAAAAAAAAAAAAAAAAAAAAAAAAAAAAAAAAAAAAAAAAAAAAAAAAAAAAAAAAAAAAAAAAAAAAAAAAAAAAAAAAAAAAAAAAAAAAAAAAAAAAAAAAAAAAAAAAAAAAAAA
        AAAAAAAAAAAAAAAAAAAAAAAAAAAAAAAAAAAAAAAAAAAAAAAAAAAAAAAAAAAAAAAAAAAAAAAAAAAAAAAAAAAAAAAAAAAAAAAAAAAAAAAAAAAAAAAAAAAAAAAAAAAAAAAA
        AAAAAAAAAAAAAAAAAAAAAAAAAAAAAAAAAAAAAAAAAAAAAAAAAAAAAAAAAAAAAAAAAAAAAAAAAAAAAAAAAAAAAAAAAAAAAAAAAAAAAAAAAAAAAAAAAAAAAAAAAAAAAAAA
        AAAAAAAAAAAAAAAAAAAAAAAAAAAAAAAAAAAAAAAAAAAAAAAAAAAAAAAAAAAAAAAAAAAAAAAAAAAAAAAAAAAAAAAAAAAAAAAAAAAAAAAAAAAAAAAAAAAAAAAAAAAAAAAA
        AAAAAAAAAAAAAAAAAAAAAAAAAAAAAAAAAAAAAAAAAAAAAAAAAAAAAAAAAAAAAAAAAAAAAAAAAAAAAAAAAAAAAAAAAAAAAAAAAAAAAAAAAAAAAAAAAAAAAAAAAAAAAAAA
        AAAAAAAAAAAAAAAAAAAAAAAAAAAAAAAAAAAAAAAAAAAAAAAAAAAAAAAAAAAAAAAAAAAAAAAAAAAAAAAAAAAAAAAAAAAAAAAAAAAAAAAAAAAAAAAAAAAAAAAAAAAAAAAA
        AAAAAAAAAAAAAAAAAAAAAAAAAAAAAAAAAAAAAAAAAAAAAAAAAAAAAAAAAAAAAAAAAAAAAAAAAAAAAAAAAAAAAAAAAAAAAAAAAQAAAHEAAAABAAAAAAAAAAEAAAADAAAA
        AAAAAAAAAAABAAAATwAAAAAAAAAAAAAAAAAAAAAAAAA=
        AER1bmdlb24gUGFkABAAAAA=
      >
      PRESETNAME "Dungeon Pad"
      FLOATPOS 0 0 0 0
      FXID {0C04D340-C8FF-4981-A90A-5BE84E3F4370}
      WAK 0 0
      BYPASS 0 0 0
      <VST "VST: ReaVerbate (Cockos)" reaverbate.dll 0 "" 1920361016<56535472766238726561766572626174> ""
        OGJ2cu9e7f4CAAAAAQAAAAAAAAACAAAAAAAAAAIAAAABAAAAAAAAAAIAAAAAAAAAKAAAAAAAAAAAABAA
        776t3g3wrd7hyX5AfIBDQFezEj8AAAA/AACAPwAAAAAAAIA/AAAAAA==
        AFByb2dyYW0gMQAQAAAA
      >
      FLOATPOS 0 0 0 0
      FXID {62F779A8-C930-454F-8CC9-FCE85CB5D1A5}
      WAK 0 0
    >
    <ITEM
      POSITION 0
      SNAPOFFS 0
      LENGTH 117.6
      LOOP 1
      ALLTAKES 0
      FADEIN 1 0 0 1 0 0 0
      FADEOUT 1 0 0 1 0 0 0
      MUTE 0 0
      SEL 0
      IGUID {B593B3C2-AACF-4B32-9EED-3E2A78DF3FD3}
      IID 11
      NAME score.mid
      VOLPAN 1 0 1 -1
      SOFFS 0 0
      PLAYRATE 1 1 0 -1 0 0.0025
      CHANMODE 0
      GUID {EF49B443-3B92-488E-9F9F-323809615E0B}
      <SOURCE MIDI
        HASDATA 1 480 QN
        CCINTERP 32
        POOLEDEVTS {A14847BB-3762-41CD-952B-F0FCC6A21B73}
        <X 0 0
          /1kCAAE=
        >
        E 0 91 2d 69
        E 1919 81 2d 00
        E 1 91 2d 5f
        E 1919 81 2d 00
        E 1 91 35 5f
        E 1439 81 35 00
        E 1 91 35 50
        E 479 81 35 00
        E 1 91 34 5f
        E 1439 81 34 00
        E 1 91 34 50
        E 479 81 34 00
        E 1 91 2d 5f
        E 1439 81 2d 00
        E 1 91 2d 50
        E 479 81 2d 00
        E 1 91 30 5f
        E 1439 81 30 00
        E 1 91 30 50
        E 479 81 30 00
        E 1 91 32 5f
        E 959 81 32 00
        E 1 91 35 5f
        E 959 81 35 00
        E 1 91 34 5f
        E 1439 81 34 00
        E 1 91 34 50
        E 479 81 34 00
        E 1 91 2d 5f
        E 1439 81 2d 00
        E 1 91 39 50
        E 239 81 39 00
        E 1 91 39 50
        E 239 81 39 00
        E 1 91 37 5f
        E 959 81 37 00
        E 1 91 34 5f
        E 959 81 34 00
        E 1 91 35 5f
        E 1439 81 35 00
        E 1 91 35 50
        E 239 81 35 00
        E 1 91 35 50
        E 239 81 35 00
        E 1 91 34 5f
        E 959 81 34 00
        E 1 91 30 5f
        E 959 81 30 00
        E 1 91 32 5f
        E 959 81 32 00
        E 1 91 35 5f
        E 959 81 35 00
        E 1 91 34 5f
        E 1439 81 34 00
        E 1 91 34 50
        E 479 81 34 00
        E 1 91 2d 5f
        E 3839 81 2d 00
        E 1 91 2d 69
        E 1919 81 2d 00
        E 1 91 2d 5f
        E 1919 81 2d 00
        E 1 91 35 5f
        E 1439 81 35 00
        E 1 91 35 50
        E 479 81 35 00
        E 1 91 34 5f
        E 1439 81 34 00
        E 1 91 34 50
        E 479 81 34 00
        E 1 91 2d 5f
        E 1439 81 2d 00
        E 1 91 2d 50
        E 479 81 2d 00
        E 1 91 30 5f
        E 1439 81 30 00
        E 1 91 30 50
        E 479 81 30 00
        E 1 91 32 5f
        E 959 81 32 00
        E 1 91 35 5f
        E 959 81 35 00
        E 1 91 34 5f
        E 1439 81 34 00
        E 1 91 34 50
        E 479 81 34 00
        E 1 91 2d 5f
        E 1439 81 2d 00
        E 1 91 39 50
        E 239 81 39 00
        E 1 91 39 50
        E 239 81 39 00
        E 1 91 37 5f
        E 959 81 37 00
        E 1 91 34 5f
        E 959 81 34 00
        E 1 91 35 5f
        E 1439 81 35 00
        E 1 91 35 50
        E 239 81 35 00
        E 1 91 35 50
        E 239 81 35 00
        E 1 91 34 5f
        E 959 81 34 00
        E 1 91 30 5f
        E 959 81 30 00
        E 1 91 32 5f
        E 959 81 32 00
        E 1 91 35 5f
        E 959 81 35 00
        E 1 91 34 5f
        E 1439 81 34 00
        E 1 91 34 50
        E 479 81 34 00
        E 1 91 2d 5f
        E 3839 81 2d 00
        E 1 91 30 69
        E 2879 81 30 00
        E 1 91 34 5f
        E 959 81 34 00
        E 1 91 32 5f
        E 1439 81 32 00
        E 1 91 32 50
        E 479 81 32 00
        E 1 91 30 5f
        E 959 81 30 00
        E 481 91 34 50
        E 479 81 34 00
        E 1 91 30 5f
        E 479 81 30 00
        E 1 91 2d 50
        E 239 81 2d 00
        E 1 91 2d 50
        E 239 81 2d 00
        E 1 91 34 5f
        E 959 81 34 00
        E 1 91 2d 5f
        E 479 81 2d 00
        E 1 91 32 50
        E 479 81 32 00
        E 1 91 32 5f
        E 479 81 32 00
        E 1 91 31 50
        E 479 81 31 00
        E 1 91 32 5f
        E 959 81 32 00
        E 481 91 26 50
        E 479 81 26 00
        E 1 91 29 5f
        E 959 81 29 00
        E 481 91 29 50
        E 479 81 29 00
        E 1 91 2d 5f
        E 959 81 2d 00
        E 481 91 2d 50
        E 479 81 2d 00
        E 1 91 30 5f
        E 959 81 30 00
        E 481 91 2b 50
        E 479 81 2b 00
        E 1 91 2f 5f
        E 639 81 2f 00
        E 1 91 30 50
        E 319 81 30 00
        E 1 91 32 5f
        E 959 81 32 00
        E 481 91 26 50
        E 479 81 26 00
        E 1 91 29 5f
        E 639 81 29 00
        E 1 91 2b 50
        E 319 81 2b 00
        E 1 91 2d 5f
        E 1439 81 2d 00
        E 1 91 2c 50
        E 479 81 2c 00
        E 1 91 2d 5f
        E 959 81 2d 00
        E 1 91 29 5f
        E 639 81 29 00
        E 1 91 29 50
        E 319 81 29 00
        E 1 91 28 5f
        E 3839 81 28 00
        E 1 91 30 69
        E 2879 81 30 00
        E 1 91 34 5f
        E 959 81 34 00
        E 1 91 32 5f
        E 1439 81 32 00
        E 1 91 32 50
        E 479 81 32 00
        E 1 91 30 5f
        E 959 81 30 00
        E 481 91 34 50
        E 479 81 34 00
        E 1 91 30 5f
        E 479 81 30 00
        E 1 91 2d 50
        E 239 81 2d 00
        E 1 91 2d 50
        E 239 81 2d 00
        E 1 91 34 5f
        E 959 81 34 00
        E 1 91 2d 5f
        E 479 81 2d 00
        E 1 91 32 50
        E 479 81 32 00
        E 1 91 32 5f
        E 479 81 32 00
        E 1 91 31 50
        E 479 81 31 00
        E 1 91 32 5f
        E 959 81 32 00
        E 481 91 26 50
        E 479 81 26 00
        E 1 91 29 5f
        E 959 81 29 00
        E 481 91 29 50
        E 479 81 29 00
        E 1 91 2d 5f
        E 959 81 2d 00
        E 481 91 2d 50
        E 479 81 2d 00
        E 1 91 30 5f
        E 959 81 30 00
        E 481 91 2b 50
        E 479 81 2b 00
        E 1 91 2f 5f
        E 639 81 2f 00
        E 1 91 30 50
        E 319 81 30 00
        E 1 91 32 5f
        E 959 81 32 00
        E 481 91 26 50
        E 479 81 26 00
        E 1 91 29 5f
        E 639 81 29 00
        E 1 91 2b 50
        E 319 81 2b 00
        E 1 91 2d 5f
        E 1439 81 2d 00
        E 1 91 2c 50
        E 479 81 2c 00
        E 1 91 2d 5f
        E 959 81 2d 00
        E 1 91 29 5f
        E 639 81 29 00
        E 1 91 29 50
        E 319 81 29 00
        E 1 91 28 5f
        E 3839 81 28 00
        E 1 91 34 69
        E 1919 81 34 00
        E 1 91 34 5f
        E 1439 81 34 00
        E 1 91 34 50
        E 479 81 34 00
        E 1 91 34 5f
        E 2879 81 34 00
        E 1 91 34 5f
        E 959 81 34 00
        E 1 91 2d 5f
        E 1439 81 2d 00
        E 1 91 39 50
        E 479 81 39 00
        E 1 91 37 5f
        E 479 81 37 00
        E 1 91 34 50
        E 479 81 34 00
        E 1 91 35 5f
        E 959 81 35 00
        E 1 91 34 5f
        E 1919 81 34 00
        E 1 91 34 5f
        E 1439 81 34 00
        E 1 91 2f 50
        E 479 81 2f 00
        E 1 91 30 5f
        E 1919 81 30 00
        E 1 91 2f 5f
        E 1919 81 2f 00
        E 1 91 2d 5f
        E 1919 81 2d 00
        E 1 91 2b 5f
        E 959 81 2b 00
        E 1 91 29 5f
        E 959 81 29 00
        E 1 91 28 5f
        E 959 81 28 00
        E 1 91 30 5f
        E 959 81 30 00
        E 1 91 32 5f
        E 959 81 32 00
        E 1 91 35 5f
        E 959 81 35 00
        E 1 91 34 5f
        E 1439 81 34 00
        E 1 91 34 50
        E 479 81 34 00
        E 1 91 2d 5f
        E 3839 81 2d 00
        E 1 91 34 69
        E 1919 81 34 00
        E 1 91 34 5f
        E 1439 81 34 00
        E 1 91 34 50
        E 479 81 34 00
        E 1 91 34 5f
        E 2879 81 34 00
        E 1 91 34 5f
        E 959 81 34 00
        E 1 91 2d 5f
        E 1439 81 2d 00
        E 1 91 39 50
        E 479 81 39 00
        E 1 91 37 5f
        E 479 81 37 00
        E 1 91 34 50
        E 479 81 34 00
        E 1 91 35 5f
        E 959 81 35 00
        E 1 91 34 5f
        E 1919 81 34 00
        E 1 91 34 5f
        E 1439 81 34 00
        E 1 91 2f 50
        E 479 81 2f 00
        E 1 91 30 5f
        E 1919 81 30 00
        E 1 91 2f 5f
        E 1919 81 2f 00
        E 1 91 2d 5f
        E 1919 81 2d 00
        E 1 91 2b 5f
        E 959 81 2b 00
        E 1 91 29 5f
        E 959 81 29 00
        E 1 91 28 5f
        E 959 81 28 00
        E 1 91 30 5f
        E 959 81 30 00
        E 1 91 32 5f
        E 959 81 32 00
        E 1 91 35 5f
        E 959 81 35 00
        E 1 91 34 5f
        E 1439 81 34 00
        E 1 91 34 50
        E 479 81 34 00
        E 1 91 2d 5f
        E 3839 81 2d 00
        E 1 b0 7b 00
        CCINTERP 32
        CHASE_CC_TAKEOFFS 1
        GUID {13BBD8D9-C7F5-41D8-994C-D21B06DCBF98}
        IGNTEMPO 0 120 4 4
        SRCCOLOR 456
        VELLANE -1 100 0
      >
    >
  >
>
