<svg xmlns="http://www.w3.org/2000/svg" data-name="Layer 1" viewBox="5 5 90 90" x="0px" y="0px"><title>44</title><g data-name="Group"><path data-name="Compound Path" d="M42,54.5H29.1a3,3,0,0,0-3,3V67.7a3,3,0,0,0,3,3H42a3,3,0,0,0,3-3V57.5A3,3,0,0,0,42,54.5ZM39,64.7H32.1V60.5H39Z" fill="#FFF"/><path data-name="Compound Path" d="M93.1,29.3v-1L84,13.4a3,3,0,0,0-2.6-1.5H20.3a3,3,0,0,0-2.5,1.3L7.4,28h0l-.2.4H7.1v.7a3,3,0,0,0,0,.4h0v4.5a9.7,9.7,0,0,0,5.9,8.9V79.1a9,9,0,0,0,9,9H78.2a9,9,0,0,0,9-9V43.2a9.7,9.7,0,0,0,5.9-8.9v-5Zm-5.9,1.3v3.6a3.7,3.7,0,1,1-7.4,0V29.8h0V28.5h0L74.2,17.9h5.5ZM26.2,34.2V30.6l7.6-12.7h7.6l-3.3,11h0v.6h0v5.9a5.9,5.9,0,0,1-11.8,0Zm17.8-4,3.7-12.3h4.5l3.7,12.3v5.5a5.9,5.9,0,0,1-11.8,0Zm17.8-.6V29h0l-3.3-11h9l6.3,12.6v5.2a5.9,5.9,0,0,1-11.8,0V29.8ZM21.8,17.9h5L20.7,28.2h-.1l-.2.4v5.5a3.7,3.7,0,1,1-7.4,0V30.7Zm46,64.2H56.2V62.5a2,2,0,0,1,2-2h7.6a2,2,0,0,1,2,2Zm10.3,0H73.9V62.5a8,8,0,0,0-8-8H58.2a8,8,0,0,0-8,8V82.1H21.8a3,3,0,0,1-3-3V43.6a9.6,9.6,0,0,0,3.3-1.5,11.9,11.9,0,0,0,19,1.5,11.9,11.9,0,0,0,17.8,0,11.9,11.9,0,0,0,19-1.5,9.6,9.6,0,0,0,3.3,1.5V79.1A3,3,0,0,1,78.2,82.1Z" fill="#FFF"/></g></svg>