<?xml version="1.0" encoding="UTF-8" standalone="no"?>
<!-- Created with Inkscape (http://www.inkscape.org/) -->

<svg
   width="250"
   height="250"
   viewBox="0 0 250 250"
   version="1.1"
   id="svg1"
   xml:space="preserve"
   inkscape:version="1.3.2 (091e20e, 2023-11-25, custom)"
   sodipodi:docname="avatar-simple-gold.svg"
   inkscape:export-filename="avatar-simple-gold.png"
   inkscape:export-xdpi="1200"
   inkscape:export-ydpi="1200"
   xmlns:inkscape="http://www.inkscape.org/namespaces/inkscape"
   xmlns:sodipodi="http://sodipodi.sourceforge.net/DTD/sodipodi-0.dtd"
   xmlns:xlink="http://www.w3.org/1999/xlink"
   xmlns="http://www.w3.org/2000/svg"
   xmlns:svg="http://www.w3.org/2000/svg"><sodipodi:namedview
     id="namedview1"
     pagecolor="#ffffff"
     bordercolor="#000000"
     borderopacity="0.25"
     inkscape:showpageshadow="2"
     inkscape:pageopacity="0.0"
     inkscape:pagecheckerboard="0"
     inkscape:deskcolor="#d1d1d1"
     inkscape:document-units="px"
     inkscape:zoom="1"
     inkscape:cx="86.999998"
     inkscape:cy="213.49999"
     inkscape:window-width="1797"
     inkscape:window-height="1343"
     inkscape:window-x="0"
     inkscape:window-y="0"
     inkscape:window-maximized="0"
     inkscape:current-layer="layer1"
     showguides="true" /><defs
     id="defs1"><linearGradient
       id="linearGradient6"
       inkscape:collect="always"><stop
         style="stop-color:#ad9000;stop-opacity:1;"
         offset="0"
         id="stop2" /><stop
         style="stop-color:#f7ec43;stop-opacity:1;"
         offset="1"
         id="stop5" /></linearGradient><linearGradient
       id="swatch3"
       inkscape:swatch="solid"><stop
         style="stop-color:#666666;stop-opacity:1;"
         offset="0"
         id="stop3" /></linearGradient><linearGradient
       id="linearGradient15"
       inkscape:collect="always"><stop
         style="stop-color:#000000;stop-opacity:1;"
         offset="0"
         id="stop15" /><stop
         style="stop-color:#000000;stop-opacity:0;"
         offset="1"
         id="stop16" /></linearGradient><radialGradient
       inkscape:collect="always"
       xlink:href="#linearGradient15"
       id="radialGradient16"
       cx="131.95383"
       cy="51.774654"
       fx="131.95383"
       fy="51.774654"
       r="28.141367"
       gradientTransform="matrix(1,0,0,0.95587029,0,2.2848005)"
       gradientUnits="userSpaceOnUse" /><clipPath
       clipPathUnits="userSpaceOnUse"
       id="clipPath419"><g
         inkscape:label="Clip"
         id="use419"
         style="display:inline"><path
           id="path6"
           style="display:inline;fill:none;fill-opacity:1;stroke:none;stroke-width:0.01;stroke-dasharray:none;stroke-opacity:1;paint-order:stroke markers fill"
           inkscape:label="logo"
           d="m 29.561143,1.7610692 c -0.932256,1.3597256 -1.092582,0.9883094 -1.597835,0.4475179 -0.642644,0.8730241 -0.713958,0.3961277 0.03101,2.1755778 0.05605,0.1338848 0.913695,-0.4527366 2.744018,-0.4020427 1.760926,0.04877 2.718733,0.6504122 2.768307,0.5431193 0.822332,-1.7797591 0.694186,-1.2830759 0.247013,-2.1021972 -0.489349,0.4189967 -0.785584,0.726789 -1.550809,-0.5818767 -1.097496,1.0450881 -1.957029,0.8375139 -2.6417,-0.080098 z m 5.052922,3.0737142 c -0.585338,0.7801842 -1.350442,0.6275062 -1.705839,0.5255493 -6.046765,-1.7831602 -7.325094,2.5978983 -5.624463,3.905188 0.297509,-1.8996531 3.134058,-0.2322618 3.497461,1.2071613 -0.926444,-0.120878 -1.91253,0.610004 -2.896981,-0.01034 0.0022,1.743627 1.771395,2.103197 2.884062,1.730644 1.171068,2.001343 -2.401195,0.171572 -2.933671,5.77019 -0.0201,0.350683 -0.728796,-0.134788 -1.445907,0.426331 -0.558049,0.436656 -0.823279,0.849652 -1.860351,0.747758 -1.320272,-0.129719 -1.80884,-1.004647 -2.640666,-1.852601 -0.600487,-0.612129 -1.789048,-0.481754 -2.524911,-1.145666 -1.019457,-0.919778 -0.681928,-1.403641 -0.738973,-2.244824 -0.05048,-0.744431 -0.675949,-1.153051 -0.909505,-1.668116 -0.171304,-0.377776 -0.112813,-0.893145 0.03411,-1.669148 3.280966,0.120653 2.13054,-3.7523093 -1.038697,-3.5098636 C 14.034497,7.2517062 10.932536,8.1745334 9.4517764,8.8267878 10.214939,9.4343042 8.625749,9.6390784 7.1010155,9.7817682 8.4146542,11.042316 10.562576,10.475252 11.810806,10.386382 9.446724,11.507575 7.9848672,12.407377 6.9547712,13.244089 8.0484121,13.560751 5.3009704,15.077506 3.7518659,15.297194 5.9393638,16.82923 9.3627554,14.030259 11.994774,13.685406 7.9994428,17.41808 6.4228653,18.628235 5.2944074,20.585243 6.5489752,20.745636 3.4815724,23.541057 2.1033878,24.564328 6.1120537,25.37548 8.801317,20.864611 12.579234,18.01124 8.4220814,24.462178 7.1717031,27.678269 5.6075666,31.375799 6.7873224,31.060834 4.9901901,36.980121 1.9096011,40.263629 8.043925,40.758974 10.357249,28.235466 14.388426,23.611415 c -2.262248,5.222652 -2.126777,5.202296 -4.034379,12.426115 1.40011,-0.47352 -1.2296358,9.038046 -3.8633301,11.993066 6.5421241,0.798417 8.1630241,-18.397157 12.3294801,-23.81405 -0.920046,4.014274 -1.632088,5.565855 -1.863969,8.421708 1.171823,-0.847312 0.07087,7.000071 -0.86558,8.609294 3.666966,-0.205981 4.323661,-5.573749 6.408911,-16.200045 0.370995,2.123577 0.47366,3.316045 0.4408,4.699972 0.605289,-0.370612 0.357895,1.535912 -0.03514,2.617411 1.923792,-0.475501 2.052852,-3.483868 2.164209,-7.282243 3.070682,-0.30047 1.475063,3.469059 1.415934,6.000151 -3.087322,2.125526 -3.650349,6.343247 -5.668388,7.148917 0.203453,0.241695 0.908388,0.41152 1.609721,0.111105 -2.203921,4.428051 -4.256273,7.231144 -5.075142,6.273002 -0.8369,-0.979222 -1.621684,-1.831581 -2.062924,-1.874821 -0.819429,-0.0803 -1.702899,0.40857 -1.496549,1.737361 0.406383,-0.803528 0.740414,-1.066448 1.246952,-0.690914 -0.47161,0.590772 -0.658551,0.976084 -0.444417,1.149801 0.339976,0.275801 0.720571,-0.09795 0.897103,0.01189 0.177585,0.110492 0.145941,0.4496 0.343648,0.51418 0.392444,0.128202 0.745162,0.132593 1.054199,0.338998 -2.843443,0.244819 -5.264243,0.671185 -4.398698,2.888195 0.156226,-0.838156 0.244053,-1.077461 0.999423,-1.170471 -0.05195,0.866433 0.257213,0.992643 0.76171,0.895553 0.300445,-0.05782 0.297388,-0.580705 0.548804,-0.722437 0.239389,-0.134989 0.566397,0.304802 0.912089,0.10542 0.524181,-0.302328 1.028215,-0.827079 1.575614,-1.086755 -2.720306,3.660957 -1.359656,4.524736 -0.47904,4.751648 -0.523768,-0.663436 -0.614107,-0.980775 -0.152962,-1.468128 0.747111,0.551729 0.901257,-0.04727 1.052132,-0.470772 0.05832,-0.163815 0.0062,-0.621792 0.05323,-0.821138 0.07718,-0.326971 0.575859,-0.436516 0.695564,-0.815971 0.107491,-0.340745 0.02933,-0.900978 0.200505,-1.255221 l 1.860868,-1.063501 c 0.417281,-0.03673 1.028824,0.107097 1.379244,0.09147 0.586718,-0.02616 0.90244,-0.477023 1.067635,-0.478523 0.213062,-0.002 0.157646,0.390323 0.59893,0.386023 0.743344,-0.0073 0.97152,-0.189932 0.73949,-1.177706 0.445712,-0.236598 0.784517,0.02666 1.046448,0.829923 0.755498,-3.237265 -2.815163,-1.267539 -4.625558,-0.891418 0.850399,-1.708705 2.576493,-2.954596 4.017843,-4.422469 0.22366,2.266711 1.366281,3.397301 1.805574,3.890201 -0.728715,-3.067167 0.660232,-5.955873 1.874304,-9.235611 l 0.0062,-0.0057 c 2.191246,11.213164 -1.539638,14.42508 -4.872054,13.33252 1.306813,2.382093 -2.065172,0.826693 -2.427242,0.269751 -0.221567,2.323006 3.512217,3.22208 5.791894,1.8526 -0.735984,2.701413 -7.250577,3.466257 -6.047176,6.450252 0.958157,-2.168306 5.535639,-0.279088 8.448063,-5.091162 -0.3169,2.931927 -1.908919,5.001698 -4.039547,5.069458 1.69383,0.960785 -0.408345,1.280673 -2.066023,0.984953 0.981682,1.645092 4.918017,1.66365 6.82749,-1.414901 0.181407,2.47671 -3.196072,3.694408 -1.09244,6.283337 -0.01944,-0.837449 0.249618,-1.432909 1.376144,-2.811198 -0.219107,2.989267 0.482291,4.044257 1.793172,4.222999 -0.82971,-1.236306 -0.961376,-2.72484 0.204122,-1.775086 -0.370454,-1.051506 -0.453426,-1.220404 -0.329179,-2.630847 1.630587,1.929458 1.442372,2.141359 1.491382,2.978113 2.103632,-2.58893 -1.273847,-3.80611 -1.09244,-6.282821 1.909473,3.078551 5.845808,3.059476 6.82749,1.414384 -1.657678,0.295721 -3.76037,-0.02365 -2.06654,-0.984436 -2.130628,-0.06776 -3.722131,-2.138049 -4.03903,-5.069975 2.912424,4.812073 7.489389,2.922856 8.447546,5.091162 1.203401,-2.983995 -5.310675,-3.74884 -6.046659,-6.450252 2.279676,1.369481 6.012944,0.470407 5.791377,-1.8526 -0.36207,0.556942 -3.734055,2.112343 -2.427242,-0.269751 -3.32625,1.090784 -7.072326,-2.156767 -4.871537,-13.33252 l 0.0062,0.0062 c 1.214073,3.279738 2.602503,6.168444 1.873788,9.235612 0.439293,-0.492901 1.582431,-1.624007 1.806091,-3.890719 1.44135,1.467874 3.166927,2.713765 4.017326,4.422469 -1.810395,-0.376121 -5.380539,-2.345846 -4.625041,0.891419 0.261931,-0.803263 0.600735,-1.066005 1.046448,-0.829407 -0.23203,0.987774 -0.0039,1.169927 0.73949,1.177189 0.441284,0.0043 0.385868,-0.387992 0.59893,-0.386023 0.165194,0.0015 0.480917,0.45236 1.067635,0.478524 0.350419,0.01563 0.961446,-0.128197 1.378727,-0.09147 l 1.861385,1.063501 c 0.171169,0.354243 0.09301,0.914476 0.200504,1.255221 0.119705,0.379456 0.618389,0.489 0.695565,0.815971 0.04705,0.199347 -0.0051,0.657323 0.05323,0.821138 0.150875,0.423506 0.305021,1.022501 1.052132,0.470773 0.461145,0.487352 0.370805,0.804692 -0.152962,1.468127 0.880616,-0.226912 2.241266,-1.090691 -0.479041,-4.751648 0.5474,0.259676 1.051433,0.784428 1.575615,1.086755 0.345691,0.199382 0.6727,-0.240408 0.912089,-0.105419 0.251416,0.141731 0.248359,0.664613 0.548804,0.722436 0.504497,0.09709 0.813662,-0.02912 0.76171,-0.895552 0.755369,0.09301 0.843197,0.332831 0.999422,1.170987 0.865545,-2.21701 -1.555254,-2.643892 -4.398698,-2.888712 0.309038,-0.206405 0.661756,-0.210796 1.0542,-0.338997 0.197706,-0.06458 0.165546,-0.403172 0.343131,-0.513664 0.176532,-0.10984 0.557644,0.263398 0.89762,-0.0124 0.214134,-0.173716 0.02668,-0.559029 -0.444934,-1.1498 0.506538,-0.375535 0.841086,-0.112614 1.247469,0.690914 0.20635,-1.328792 -0.677121,-1.817662 -1.49655,-1.737362 -0.441239,0.04324 -1.226024,0.895599 -2.062923,1.874821 -0.818869,0.958142 -2.871221,-1.844433 -5.075142,-6.272485 0.701333,0.300416 1.406268,0.130073 1.609721,-0.111621 -2.018039,-0.805671 -2.581322,-5.023141 -5.668905,-7.148401 0.11447,-1.700888 -1.764458,-6.404546 1.463477,-6.01462 0.111356,3.798375 0.240416,6.806742 2.164209,7.282243 -0.393036,-1.081499 -0.64043,-2.988023 -0.03514,-2.617412 -0.03286,-1.383926 0.08013,-2.566059 0.451135,-4.689636 2.08525,10.626295 2.731609,15.983729 6.398576,16.18971 -0.936454,-1.609223 -2.037403,-9.457123 -0.865581,-8.609811 -0.23194,-2.855853 -0.932037,-4.406917 -1.852083,-8.421191 4.166456,5.416892 5.775471,24.612466 12.317594,23.81405 -2.633694,-2.95502 -5.263433,-12.466548 -3.86333,-11.993066 -1.907601,-7.223818 -1.758178,-7.202947 -4.020426,-12.425599 4.031176,4.624052 6.330548,17.146526 12.464872,16.65118 -3.080589,-3.283507 -4.877721,-9.202277 -3.697965,-8.887312 -1.564137,-3.697531 -2.808315,-6.878482 -6.965467,-13.329419 3.777917,2.853371 6.46098,7.329099 10.469646,6.517948 -1.378185,-1.023271 -4.445588,-3.818692 -3.19102,-3.979085 -1.128458,-1.957008 -2.705036,-3.167163 -6.700366,-6.899837 2.632017,0.344852 6.05541,3.143824 8.242907,1.611788 -1.549104,-0.219688 -4.296546,-1.736443 -3.202905,-2.053105 -1.030096,-0.836712 -2.491954,-1.736514 -4.856034,-2.857707 1.248229,0.08887 3.396151,0.655934 4.70979,-0.6046141 C 53.860673,9.609106 52.290113,9.4103294 53.032062,8.791131 51.551303,8.1388767 48.451925,7.2212171 45.776691,7.0165623 42.607454,6.7741166 41.457028,10.647595 44.737995,10.526942 c 0.142243,0.854063 0.189408,0.987501 0.139526,1.478463 -0.05085,0.500467 -0.934264,1.106871 -0.997355,1.759583 -0.09381,0.970555 0.257154,1.300789 -0.528133,2.196765 -0.653243,0.745317 -1.75729,0.711099 -2.577104,1.207161 -0.457873,0.277056 -1.164572,1.51428 -2.40037,1.863452 -0.690986,0.195237 -1.710933,0.0647 -2.842721,-0.588077 -0.710856,-0.409996 -0.963894,-0.517202 -1.81746,-0.575676 -0.313599,-0.02148 -0.0026,-0.969675 0.686263,-2.3797 0.240855,0.06791 0.61891,-0.04453 0.810287,-0.166914 -0.256321,-0.256359 -0.26589,-0.68966 -0.08113,-1.153935 0.287472,0.07763 0.543384,0.124324 0.805635,0.07596 -0.530291,-0.458723 -0.482238,-1.336066 -0.534334,-2.10168 0.254195,0.10324 0.529051,0.281172 1.049031,0.106453 -0.503211,-0.3117 -0.678108,-0.948454 -0.797367,-1.802991 0.359335,0.03354 0.803142,-0.04192 1.130164,-0.419095 -0.610566,-0.03095 -0.991867,-0.2953462 -1.32395,-0.9756515 0.637519,-0.08216 1.196751,-0.5577678 1.399397,-1.0386963 -0.644781,0.1815958 -1.878469,0.2271295 -2.247408,-0.4697388 0.242406,-0.07455 1.256956,-0.3881097 1.392163,-1.127063 -0.235619,0.1564529 -0.856942,0.3181173 -1.64176,0.2030884 0.348701,-0.3357367 0.457168,-1.0615382 0.252698,-1.7838704 z" /></g></clipPath><clipPath
       clipPathUnits="userSpaceOnUse"
       id="clipPath421"><g
         inkscape:label="Clip"
         id="use421"><path
           sodipodi:type="star"
           style="display:inline;opacity:1;fill:#d7f4ee;fill-opacity:1;stroke:none;stroke-width:3;stroke-linecap:butt;stroke-linejoin:round;stroke-dasharray:none;stroke-opacity:1;paint-order:stroke fill markers"
           id="path423"
           inkscape:flatsided="false"
           sodipodi:sides="5"
           sodipodi:cx="-257.04892"
           sodipodi:cy="42.969372"
           sodipodi:r1="52.562145"
           sodipodi:r2="26.281075"
           sodipodi:arg1="0.65080025"
           sodipodi:arg2="1.2791188"
           inkscape:rounded="0"
           inkscape:randomized="0"
           d="m -215.23052,74.812743 -34.26103,-6.672335 -24.91962,24.440771 -4.24147,-34.646046 -30.94514,-16.147349 31.63966,-14.740099 5.79447,-34.4203821 23.79586,25.5361631 34.52631,-5.125616 -16.93301,30.522316 z"
           transform="matrix(0.26458333,0,0,0.26458333,4.8730933,-5.9771938)"
           inkscape:transform-center-x="1.2357912"
           inkscape:transform-center-y="-0.09660765" /><rect
           style="display:inline;opacity:1;fill:#80b3ff;fill-opacity:1;stroke:none;stroke-width:3;stroke-linecap:butt;stroke-linejoin:round;stroke-dasharray:none;stroke-opacity:1;paint-order:stroke fill markers"
           id="rect423"
           width="41.05674"
           height="36.175869"
           x="-63.450653"
           y="3.170033" /></g></clipPath><filter
       x="-0.12343037"
       width="1.2468607"
       y="-0.17650542"
       height="1.3530108"
       inkscape:menu="Non-Realistic 3D Shaders"
       inkscape:menu-tooltip="Aluminium effect with sharp brushed reflections"
       inkscape:label="Aluminium"
       style="color-interpolation-filters:sRGB"
       id="filter482"><feGaussianBlur
         result="result8"
         stdDeviation="5"
         in="SourceGraphic"
         id="feGaussianBlur476" /><feComposite
         operator="xor"
         in2="SourceGraphic"
         result="result22"
         id="feComposite476" /><feComposite
         k2="1"
         operator="arithmetic"
         result="result20"
         in2="result22"
         in="result22"
         id="feComposite477"
         k1="0"
         k3="0"
         k4="0" /><feComposite
         in2="result22"
         in="result20"
         operator="over"
         result="result6"
         id="feComposite478" /><feOffset
         in="result6"
         result="result21"
         id="feOffset478" /><feDisplacementMap
         in2="result20"
         result="result4"
         scale="100"
         yChannelSelector="A"
         xChannelSelector="A"
         in="result21"
         id="feDisplacementMap478" /><feComposite
         in2="SourceGraphic"
         k1="1"
         operator="arithmetic"
         result="fbSourceGraphic"
         k3="0.5"
         in="result4"
         id="feComposite479"
         k2="0"
         k4="0" /><feComposite
         in2="result4"
         result="result12"
         operator="in"
         in="fbSourceGraphic"
         id="feComposite480" /><feComposite
         in2="SourceGraphic"
         operator="in"
         result="result18"
         id="feComposite481" /><feComposite
         result="result19"
         in2="SourceGraphic"
         operator="in"
         in="result18"
         id="feComposite482" /></filter><filter
       inkscape:label="Gold Paste"
       x="-0.039909355"
       y="-0.047239646"
       height="1.0944793"
       width="1.0798187"
       inkscape:menu="Materials"
       inkscape:menu-tooltip="Fat pasted cast metal, with golden highlights"
       style="color-interpolation-filters:sRGB"
       id="filter490"><feGaussianBlur
         in="SourceAlpha"
         stdDeviation="0.01"
         result="result91"
         id="feGaussianBlur486" /><feComposite
         result="fbSourceGraphic"
         operator="in"
         in="SourceGraphic"
         in2="result91"
         id="feComposite486" /><feGaussianBlur
         result="result1"
         in="fbSourceGraphic"
         stdDeviation="0.01"
         id="feGaussianBlur487" /><feTurbulence
         result="result0"
         numOctaves="4"
         baseFrequency="0.04"
         type="fractalNoise"
         seed="20"
         id="feTurbulence487" /><feDisplacementMap
         result="result2"
         scale="30"
         yChannelSelector="G"
         xChannelSelector="R"
         in="result1"
         in2="result0"
         id="feDisplacementMap487" /><feColorMatrix
         type="saturate"
         values="1"
         result="result3"
         id="feColorMatrix487" /><feGaussianBlur
         result="result4"
         in="fbSourceGraphic"
         stdDeviation="0.01"
         id="feGaussianBlur488" /><feComposite
         operator="atop"
         result="fbSourceGraphic"
         in="result4"
         in2="result3"
         id="feComposite488" /><feGaussianBlur
         result="result0"
         in="fbSourceGraphic"
         stdDeviation="1.5"
         id="feGaussianBlur489" /><feTurbulence
         baseFrequency="0.02"
         seed="20"
         numOctaves="8"
         result="result1"
         type="fractalNoise"
         id="feTurbulence489" /><feComposite
         result="result2"
         operator="out"
         in2="result1"
         in="result0"
         id="feComposite489" /><feSpecularLighting
         lighting-color="#dfbc10"
         surfaceScale="2.5"
         result="result4"
         specularConstant="2"
         specularExponent="30"
         in="result2"
         id="feSpecularLighting489"><feDistantLight
           elevation="62"
           azimuth="225"
           id="feDistantLight489" /></feSpecularLighting><feComposite
         in2="result2"
         in="result4"
         operator="atop"
         result="result92"
         id="feComposite490" /><feBlend
         mode="multiply"
         in2="result92"
         id="feBlend490" /></filter><filter
       inkscape:label="brushed-metal"
       inkscape:menu="Image Effects"
       inkscape:menu-tooltip="Adds a small scale graininess"
       style="color-interpolation-filters:sRGB"
       id="filter496"
       x="0"
       y="0"
       width="1"
       height="1"><feTurbulence
         type="turbulence"
         numOctaves="1"
         baseFrequency="0.001 4.4937013698630137"
         seed="0"
         result="result0"
         id="feTurbulence495" /><feColorMatrix
         result="result4"
         values="0"
         type="saturate"
         id="feColorMatrix495" /><feComposite
         in="SourceGraphic"
         in2="result4"
         operator="arithmetic"
         k1="2.9533679"
         k2="1.2953368"
         k3="1.0362694"
         result="result2"
         id="feComposite495"
         k4="0" /><feBlend
         result="result5"
         mode="normal"
         in="result2"
         in2="SourceGraphic"
         id="feBlend495" /><feComposite
         in="result5"
         in2="SourceGraphic"
         operator="in"
         result="result3"
         id="feComposite496" /></filter><linearGradient
       inkscape:collect="always"
       xlink:href="#linearGradient6"
       id="linearGradient9"
       gradientUnits="userSpaceOnUse"
       gradientTransform="matrix(3.3127248,0,0,3.3127248,21.500806,23.127837)"
       x1="46.700436"
       y1="48.503174"
       x2="24.383142"
       y2="26.185881"
       spreadMethod="reflect" /></defs><g
     inkscape:label="Layer 1"
     inkscape:groupmode="layer"
     id="layer1"
     style="display:inline"
     transform="translate(-6.7372511e-4,-0.01182194)"><rect
       style="fill:#000000;stroke:none;stroke-width:22;stroke-linejoin:round;paint-order:stroke fill markers"
       id="rect1"
       width="250"
       height="250"
       x="0.0006737251"
       y="0.01182194" /><path
       d="m 114.23782,37.651325 c 0.1857,0.443524 3.02645,-1.499224 9.08981,-1.331289 5.83347,0.161563 9.00646,2.153318 9.17069,1.797885 2.22547,-4.637281 2.15748,-3.300408 0.8186,-5.918948 -1.62108,1.388022 -2.6017,2.407606 -5.13668,-1.927648 -3.63571,3.462093 -6.484,2.77455 -8.75213,-0.26525 -3.0883,4.504401 -3.61915,3.274583 -5.29292,1.483087 -1.98642,2.702118 -1.93779,1.407183 0.10266,6.162176 z M 90.461658,149.77832 c 0.673984,0.80067 3.00932,1.36475 5.332649,0.36955 -7.30099,14.66894 -14.099928,23.95387 -16.812618,20.7798 -2.772418,-3.2439 -5.372463,-6.06797 -6.834169,-6.21121 -2.714547,-0.26604 -5.641157,1.35422 -4.957578,5.75615 1.346237,-2.66188 2.453732,-3.53299 4.131757,-2.28895 -1.562323,1.95706 -2.182837,3.2329 -1.473475,3.80839 1.126251,0.91364 2.388204,-0.32339 2.97301,0.0404 0.588287,0.36603 0.482339,1.48893 1.137289,1.70286 1.300061,0.42471 2.468528,0.43913 3.492287,1.12289 -9.419556,0.81102 -17.438833,2.2242 -14.571517,9.56855 0.517532,-2.77658 0.809077,-3.57004 3.311414,-3.87816 -0.172073,2.87026 0.851346,3.28783 2.522614,2.96619 0.995288,-0.19154 0.985556,-1.92321 1.81843,-2.39273 0.793031,-0.44719 1.876286,1.00905 3.021472,0.34857 1.73647,-1.00154 3.406014,-2.73915 5.219399,-3.59939 -9.011638,12.12776 -4.504465,14.98904 -1.587226,15.74074 -1.735103,-2.19777 -2.034549,-3.2487 -0.506897,-4.86316 2.474972,1.82772 2.986701,-0.15703 3.486505,-1.56 0.193179,-0.54266 0.0202,-2.05919 0.176286,-2.71958 0.255682,-1.08316 1.906704,-1.4469 2.303251,-2.70393 0.356097,-1.12879 0.09719,-2.9848 0.66424,-4.15831 l 6.165678,-3.52326 c 1.382336,-0.12165 3.407497,0.35486 4.568342,0.3031 1.943637,-0.0867 2.989848,-1.57988 3.537096,-1.58485 0.705811,-0.006 0.522359,1.29277 1.984211,1.27852 2.462502,-0.0245 3.217902,-0.62805 2.449252,-3.90028 1.47652,-0.78379 2.59845,0.0869 3.46615,2.74788 2.50276,-10.72417 -9.324424,-4.199 -15.321769,-2.95301 2.817141,-5.66047 8.533697,-9.78751 13.308489,-14.65018 0.74093,7.509 4.52736,11.25557 5.98261,12.88842 -2.41403,-10.16069 2.18586,-19.7303 6.20775,-30.59518 l 0.0206,-0.0193 c 7.25901,37.14617 -5.09929,47.78632 -16.138676,44.16696 4.329126,7.89123 -6.841438,2.73821 -8.040881,0.89322 -0.733994,7.69548 11.634067,10.6748 19.186017,6.13809 -2.43812,8.94905 -24.018058,11.482 -20.031516,21.36717 3.174111,-7.18301 18.336706,-0.9249 27.984776,-16.86599 -1.04979,9.71268 -6.32232,16.57079 -13.38051,16.79527 5.61119,3.18281 -1.35301,4.24163 -6.84445,3.26199 3.25205,5.44973 16.29114,5.51191 22.6167,-4.68649 0.60095,8.20467 -10.58696,12.23782 -3.61819,20.81424 -0.0644,-2.77424 0.82652,-4.74673 4.55839,-9.31263 -0.72584,9.90264 1.59811,13.39686 5.94071,13.98898 -2.74861,-4.09554 -3.18491,-9.02622 0.67607,-5.87995 -1.22721,-3.48334 -1.50229,-4.04184 -1.09069,-8.71425 5.40169,6.39177 4.77745,7.09317 4.93981,9.86511 6.96876,-8.57642 -4.21915,-12.60958 -3.6182,-20.81425 6.32557,10.19839 19.36466,10.13623 22.61671,4.68648 -5.49144,0.97965 -12.45565,-0.0792 -6.84446,-3.26199 -7.05818,-0.22447 -12.3307,-7.08258 -13.38051,-16.79524 9.64807,15.94108 24.81068,9.68296 27.98479,16.86597 3.98654,-9.88517 -17.59341,-12.41811 -20.03152,-21.36717 7.55194,4.53673 19.92001,1.55741 19.18602,-6.13809 -1.19944,1.845 -12.37,6.99803 -8.04088,-0.89321 -11.01897,3.61347 -23.4293,-7.14474 -16.13868,-44.16697 l 0.0206,0.0194 c 4.02189,10.86488 8.62178,20.43449 6.20774,30.59518 1.45526,-1.63284 5.24169,-5.37943 5.98261,-12.88842 4.77481,4.86266 10.49136,8.9897 13.3085,14.65018 -5.99734,-1.24598 -17.82454,-7.77117 -15.32177,2.95301 0.8677,-2.66099 1.98963,-3.53167 3.46616,-2.74788 -0.76866,3.27222 -0.0133,3.87622 2.44925,3.90029 1.46185,0.0142 1.2784,-1.28505 1.98421,-1.27854 0.54725,0.004 1.59346,1.49818 3.53709,1.58486 1.16085,0.0517 3.18601,-0.42475 4.56835,-0.3031 l 6.16567,3.52325 c 0.56704,1.17351 0.30817,3.02952 0.66424,4.15832 0.39655,1.25703 2.04759,1.62076 2.30326,2.70392 0.15587,0.66039 -0.0168,2.17692 0.17633,2.71959 0.4998,1.40296 1.01153,3.38772 3.48651,1.55999 1.52764,1.61446 1.22819,2.66538 -0.50691,4.86317 2.91724,-0.7517 7.42442,-3.61299 -1.58722,-15.74074 1.81338,0.86023 3.48293,2.59785 5.2194,3.59938 1.14518,0.6605 2.22844,-0.79574 3.02148,-0.34858 0.83286,0.46953 0.82313,2.20119 1.81842,2.39275 1.67126,0.32162 2.69472,-0.0959 2.52261,-2.96619 2.50233,0.30812 2.79388,1.10157 3.31141,3.87815 2.86733,-7.34435 -5.15195,-8.75752 -14.5715,-9.56854 1.02375,-0.68377 2.19222,-0.69819 3.49227,-1.12289 0.65496,-0.21394 0.54902,-1.33683 1.1373,-1.70286 0.5848,-0.36384 1.84676,0.87317 2.973,-0.0404 0.70937,-0.57546 0.0889,-1.85131 -1.47347,-3.80838 1.67803,-1.24404 2.78553,-0.3729 4.13175,2.28895 0.68359,-4.40192 -2.24302,-6.02216 -4.95756,-5.75615 -1.46171,0.14323 -4.06175,2.96732 -6.83417,6.21122 -2.7127,3.17406 -9.51163,-6.11087 -16.81263,-20.77981 2.32333,0.9952 4.65867,0.43114 5.33265,-0.36954 -6.68521,-2.66897 -8.55008,-16.64079 -18.77839,-23.68121 0.37922,-5.63457 -5.84592,-21.21626 4.84736,-19.92454 0.3689,12.58299 0.79572,22.54936 7.16872,24.12457 -1.30202,-3.58271 -2.12111,-9.89823 -0.11594,-8.67049 -0.10884,-4.58456 0.26635,-8.50056 1.49534,-15.5354 6.90786,35.20204 9.04879,52.94894 21.19647,53.6313 -3.10223,-5.33092 -6.74923,-31.32749 -2.8673,-28.52058 -0.76836,-9.46066 -3.08785,-14.59926 -6.13571,-27.89746 13.80233,17.94469 19.13199,81.53419 40.80427,78.88926 -8.72472,-9.78918 -17.43657,-41.29899 -12.7984,-39.73047 -6.31937,-23.93055 -5.82464,-23.86053 -13.31885,-41.16175 13.35419,15.31822 20.97242,56.80211 41.29377,55.16116 -10.20516,-10.87736 -16.15896,-30.48524 -12.25076,-29.44185 -5.18155,-12.2489 -9.3036,-22.78745 -23.07511,-44.157652 12.5152,9.452444 21.40437,24.280322 34.684,21.593202 -4.56556,-3.38982 -14.72752,-12.649933 -10.57148,-13.181272 -3.73827,-6.483037 -8.96071,-10.491962 -22.19614,-22.857299 8.71915,1.1424 20.06006,10.413357 27.30665,5.338135 -5.1313,-0.727765 -14.23295,-5.751034 -10.61002,-6.800045 -3.41242,-2.771799 -8.25595,-5.753974 -16.0875,-9.468182 4.13504,0.294404 11.25177,2.172886 15.6035,-2.002968 -5.05103,-0.472692 -10.25505,-1.130148 -7.79717,-3.181384 -4.90536,-2.160742 -15.17275,-5.200107 -24.03508,-5.878073 -10.49881,-0.803157 -14.30891,12.028251 -3.43996,11.628561 0.47122,2.829276 0.62766,3.270497 0.46241,4.896922 -0.16846,1.65791 -3.09549,3.666668 -3.30449,5.828922 -0.31079,3.215184 0.85227,4.309561 -1.74918,7.277687 -2.164,2.469035 -5.82252,2.35621 -8.53834,3.999533 -1.51681,0.91781 -3.85718,5.01652 -7.95105,6.173235 -2.28904,0.646765 -5.66865,0.213727 -9.41795,-1.948727 -2.35486,-1.358208 -3.19232,-1.713438 -6.01995,-1.907142 -1.03887,-0.07114 -0.009,-3.212407 2.27287,-7.88344 0.79789,0.224947 2.04994,-0.147142 2.68393,-0.552587 -0.84913,-0.849248 -0.87926,-2.285399 -0.2672,-3.823418 0.95231,0.257187 1.79993,0.412495 2.66869,0.252329 -1.75671,-1.519625 -1.59873,-4.426105 -1.77131,-6.962376 0.84208,0.342003 1.75284,0.93131 3.4754,0.352513 -1.66699,-1.032599 -2.24639,-3.141784 -2.64146,-5.97263 1.19038,0.111109 2.66121,-0.138571 3.74454,-1.388055 -2.02264,-0.102536 -3.2858,-0.979273 -4.3859,-3.232939 2.11192,-0.272174 3.9639,-1.846769 4.63522,-3.439954 -2.13599,0.601577 -6.22265,0.75279 -7.44485,-1.555745 0.80303,-0.246964 4.16408,-1.28705 4.61198,-3.735001 -0.78054,0.518286 -2.83901,1.053963 -5.4389,0.672904 1.15515,-1.112205 1.51456,-3.516561 0.83719,-5.909451 -1.93906,2.584538 -4.47284,2.079066 -5.65018,1.74131 -20.03129,-5.907125 -24.2674,8.60576 -18.63367,12.936457 2.23718,-6.108603 9.34317,-1.24267 11.82322,3.024442 -0.47974,0.42148 -2.06992,-0.789569 -4.49038,1.002205 -1.13124,0.837421 -3.36179,1.214694 -4.99371,0.53915 0.40528,2.312183 1.73453,3.9007 2.50588,3.958491 1.89763,0.142181 5.60809,-2.533483 7.62091,-0.408046 0.19194,0.202706 0.45983,0.459415 0.57078,0.678566 -0.74041,3.56459 -4.68159,5.641872 -5.82468,6.921339 -1.20855,1.352753 -4.53023,3.858998 -5.38699,13.097289 -0.0665,1.161718 -2.41344,-0.447048 -4.78903,1.411786 -1.84866,1.446523 -2.7273,2.815096 -6.16283,2.477547 -4.373708,-0.429742 -5.992455,-3.32747 -8.748071,-6.136509 -1.989249,-2.027816 -5.926512,-1.596467 -8.364219,-3.795829 -3.377187,-3.046972 -2.259585,-4.650579 -2.448561,-7.437188 -0.167233,-2.466092 -2.239468,-3.818253 -3.013171,-5.524523 -0.567482,-1.251471 -0.373705,-2.958925 0.11298,-5.529613 10.86895,0.399691 7.058854,-12.431717 -3.439964,-11.62856 -8.862308,0.677965 -19.138639,3.736534 -24.043993,5.897275 2.52815,2.012538 -2.737208,2.68949 -7.788235,3.162182 4.351727,4.175854 11.468454,2.297371 15.603501,2.002969 -7.83156,3.714206 -12.675079,6.696381 -16.087507,9.468179 3.622934,1.04901 -5.478713,6.072284 -10.610476,6.800044 7.246586,5.075223 18.587501,-4.195729 27.306662,-5.338134 -13.235445,12.365329 -18.45788,16.374257 -22.196154,22.857289 4.156041,0.53134 -6.005917,9.791449 -10.571469,13.181269 13.279621,2.68713 22.188158,-12.256958 34.703372,-21.709403 -13.771519,21.370203 -17.912938,32.024943 -23.094498,44.273863 3.908212,-1.04339 -2.045593,18.56448 -12.250748,29.44186 20.321349,1.64094 27.984618,-39.84456 41.338816,-55.16278 -7.494215,17.30122 -7.044529,17.2328 -13.363897,41.16335 4.638183,-1.56864 -4.073668,29.94117 -12.798381,39.73035 21.672283,2.64493 27.042214,-60.9447 40.844553,-78.8894 -3.047865,13.2982 -5.407635,18.43694 -6.175789,27.8976 3.881931,-2.80691 0.234919,23.18966 -2.867293,28.52058 12.147659,-0.68236 14.322832,-18.4635 21.230697,-53.66554 1.229014,7.03484 1.569949,10.98507 1.461096,15.56964 2.005155,-1.22773 1.186071,5.08777 -0.115934,8.67049 6.373003,-1.57521 6.799833,-11.54159 7.168723,-24.12457 10.17233,-0.99537 4.88614,11.49226 4.69026,19.87708 -10.227451,7.0413 -12.092316,21.01312 -18.777529,23.68209 z"
       style="display:inline;fill:url(#linearGradient9);stroke:#1a1a1a;stroke-width:3.86876;stroke-linecap:butt;stroke-linejoin:round;stroke-dasharray:none;stroke-opacity:1;paint-order:stroke fill markers"
       id="path2"
       sodipodi:nodetypes="ssccccccscccsccssscccscsccccssccsccccccccccccccccccccccccccccccccccccccsssccssscccssscccsssccssccccccccccccccccccccccccscssssssscccccccccccccccccscsscscsssssscscccccccccccccccccccccccc"
       inkscape:label="logo" /><circle
       style="display:none;fill:none;stroke:#ff0000;stroke-width:1;stroke-linejoin:round;stroke-dasharray:none;paint-order:stroke fill markers"
       id="path1"
       cx="125.00067"
       cy="125.01183"
       r="125"
       inkscape:label="guide" /></g></svg>
