<?xml version="1.0" encoding="UTF-8" standalone="no"?>
<!-- Created with Inkscape (http://www.inkscape.org/) -->

<svg
   width="500"
   height="250"
   viewBox="0 0 500 250"
   version="1.1"
   id="svg1"
   xml:space="preserve"
   inkscape:version="1.3.2 (091e20e, 2023-11-25, custom)"
   sodipodi:docname="logo-simple-gold.svg"
   inkscape:export-filename="logo-simple-gold2.png"
   inkscape:export-xdpi="96"
   inkscape:export-ydpi="96"
   xmlns:inkscape="http://www.inkscape.org/namespaces/inkscape"
   xmlns:sodipodi="http://sodipodi.sourceforge.net/DTD/sodipodi-0.dtd"
   xmlns:xlink="http://www.w3.org/1999/xlink"
   xmlns="http://www.w3.org/2000/svg"
   xmlns:svg="http://www.w3.org/2000/svg"><sodipodi:namedview
     id="namedview1"
     pagecolor="#ffffff"
     bordercolor="#000000"
     borderopacity="0.25"
     inkscape:showpageshadow="2"
     inkscape:pageopacity="0.0"
     inkscape:pagecheckerboard="0"
     inkscape:deskcolor="#d1d1d1"
     inkscape:document-units="px"
     inkscape:zoom="1.4142136"
     inkscape:cx="222.73864"
     inkscape:cy="154.50283"
     inkscape:window-width="1797"
     inkscape:window-height="1343"
     inkscape:window-x="-8"
     inkscape:window-y="2"
     inkscape:window-maximized="0"
     inkscape:current-layer="layer1"
     showguides="true" /><defs
     id="defs1"><linearGradient
       id="linearGradient6"
       inkscape:collect="always"><stop
         style="stop-color:#ad9000;stop-opacity:1;"
         offset="0"
         id="stop2" /><stop
         style="stop-color:#f7ec43;stop-opacity:1;"
         offset="1"
         id="stop5" /></linearGradient><linearGradient
       id="linearGradient126"
       inkscape:collect="always"><stop
         style="stop-color:#ad9000;stop-opacity:1;"
         offset="0"
         id="stop123" /><stop
         style="stop-color:#d9c628;stop-opacity:1;"
         offset="0.29942209"
         id="stop124" /><stop
         style="stop-color:#f7ec43;stop-opacity:1;"
         offset="0.52559739"
         id="stop125" /><stop
         style="stop-color:#d9c628;stop-opacity:1;"
         offset="1"
         id="stop126" /></linearGradient><linearGradient
       id="swatch3"
       inkscape:swatch="solid"><stop
         style="stop-color:#666666;stop-opacity:1;"
         offset="0"
         id="stop3" /></linearGradient><linearGradient
       id="linearGradient15"
       inkscape:collect="always"><stop
         style="stop-color:#000000;stop-opacity:1;"
         offset="0"
         id="stop15" /><stop
         style="stop-color:#000000;stop-opacity:0;"
         offset="1"
         id="stop16" /></linearGradient><radialGradient
       inkscape:collect="always"
       xlink:href="#linearGradient15"
       id="radialGradient16"
       cx="131.95383"
       cy="51.774654"
       fx="131.95383"
       fy="51.774654"
       r="28.141367"
       gradientTransform="matrix(1,0,0,0.95587029,0,2.2848005)"
       gradientUnits="userSpaceOnUse" /><clipPath
       clipPathUnits="userSpaceOnUse"
       id="clipPath419"><g
         inkscape:label="Clip"
         id="use419"
         style="display:inline"><path
           id="path6"
           style="display:inline;fill:none;fill-opacity:1;stroke:none;stroke-width:0.01;stroke-dasharray:none;stroke-opacity:1;paint-order:stroke markers fill"
           inkscape:label="logo"
           d="m 29.561143,1.7610692 c -0.932256,1.3597256 -1.092582,0.9883094 -1.597835,0.4475179 -0.642644,0.8730241 -0.713958,0.3961277 0.03101,2.1755778 0.05605,0.1338848 0.913695,-0.4527366 2.744018,-0.4020427 1.760926,0.04877 2.718733,0.6504122 2.768307,0.5431193 0.822332,-1.7797591 0.694186,-1.2830759 0.247013,-2.1021972 -0.489349,0.4189967 -0.785584,0.726789 -1.550809,-0.5818767 -1.097496,1.0450881 -1.957029,0.8375139 -2.6417,-0.080098 z m 5.052922,3.0737142 c -0.585338,0.7801842 -1.350442,0.6275062 -1.705839,0.5255493 -6.046765,-1.7831602 -7.325094,2.5978983 -5.624463,3.905188 0.297509,-1.8996531 3.134058,-0.2322618 3.497461,1.2071613 -0.926444,-0.120878 -1.91253,0.610004 -2.896981,-0.01034 0.0022,1.743627 1.771395,2.103197 2.884062,1.730644 1.171068,2.001343 -2.401195,0.171572 -2.933671,5.77019 -0.0201,0.350683 -0.728796,-0.134788 -1.445907,0.426331 -0.558049,0.436656 -0.823279,0.849652 -1.860351,0.747758 -1.320272,-0.129719 -1.80884,-1.004647 -2.640666,-1.852601 -0.600487,-0.612129 -1.789048,-0.481754 -2.524911,-1.145666 -1.019457,-0.919778 -0.681928,-1.403641 -0.738973,-2.244824 -0.05048,-0.744431 -0.675949,-1.153051 -0.909505,-1.668116 -0.171304,-0.377776 -0.112813,-0.893145 0.03411,-1.669148 3.280966,0.120653 2.13054,-3.7523093 -1.038697,-3.5098636 C 14.034497,7.2517062 10.932536,8.1745334 9.4517764,8.8267878 10.214939,9.4343042 8.625749,9.6390784 7.1010155,9.7817682 8.4146542,11.042316 10.562576,10.475252 11.810806,10.386382 9.446724,11.507575 7.9848672,12.407377 6.9547712,13.244089 8.0484121,13.560751 5.3009704,15.077506 3.7518659,15.297194 5.9393638,16.82923 9.3627554,14.030259 11.994774,13.685406 7.9994428,17.41808 6.4228653,18.628235 5.2944074,20.585243 6.5489752,20.745636 3.4815724,23.541057 2.1033878,24.564328 6.1120537,25.37548 8.801317,20.864611 12.579234,18.01124 8.4220814,24.462178 7.1717031,27.678269 5.6075666,31.375799 6.7873224,31.060834 4.9901901,36.980121 1.9096011,40.263629 8.043925,40.758974 10.357249,28.235466 14.388426,23.611415 c -2.262248,5.222652 -2.126777,5.202296 -4.034379,12.426115 1.40011,-0.47352 -1.2296358,9.038046 -3.8633301,11.993066 6.5421241,0.798417 8.1630241,-18.397157 12.3294801,-23.81405 -0.920046,4.014274 -1.632088,5.565855 -1.863969,8.421708 1.171823,-0.847312 0.07087,7.000071 -0.86558,8.609294 3.666966,-0.205981 4.323661,-5.573749 6.408911,-16.200045 0.370995,2.123577 0.47366,3.316045 0.4408,4.699972 0.605289,-0.370612 0.357895,1.535912 -0.03514,2.617411 1.923792,-0.475501 2.052852,-3.483868 2.164209,-7.282243 3.070682,-0.30047 1.475063,3.469059 1.415934,6.000151 -3.087322,2.125526 -3.650349,6.343247 -5.668388,7.148917 0.203453,0.241695 0.908388,0.41152 1.609721,0.111105 -2.203921,4.428051 -4.256273,7.231144 -5.075142,6.273002 -0.8369,-0.979222 -1.621684,-1.831581 -2.062924,-1.874821 -0.819429,-0.0803 -1.702899,0.40857 -1.496549,1.737361 0.406383,-0.803528 0.740414,-1.066448 1.246952,-0.690914 -0.47161,0.590772 -0.658551,0.976084 -0.444417,1.149801 0.339976,0.275801 0.720571,-0.09795 0.897103,0.01189 0.177585,0.110492 0.145941,0.4496 0.343648,0.51418 0.392444,0.128202 0.745162,0.132593 1.054199,0.338998 -2.843443,0.244819 -5.264243,0.671185 -4.398698,2.888195 0.156226,-0.838156 0.244053,-1.077461 0.999423,-1.170471 -0.05195,0.866433 0.257213,0.992643 0.76171,0.895553 0.300445,-0.05782 0.297388,-0.580705 0.548804,-0.722437 0.239389,-0.134989 0.566397,0.304802 0.912089,0.10542 0.524181,-0.302328 1.028215,-0.827079 1.575614,-1.086755 -2.720306,3.660957 -1.359656,4.524736 -0.47904,4.751648 -0.523768,-0.663436 -0.614107,-0.980775 -0.152962,-1.468128 0.747111,0.551729 0.901257,-0.04727 1.052132,-0.470772 0.05832,-0.163815 0.0062,-0.621792 0.05323,-0.821138 0.07718,-0.326971 0.575859,-0.436516 0.695564,-0.815971 0.107491,-0.340745 0.02933,-0.900978 0.200505,-1.255221 l 1.860868,-1.063501 c 0.417281,-0.03673 1.028824,0.107097 1.379244,0.09147 0.586718,-0.02616 0.90244,-0.477023 1.067635,-0.478523 0.213062,-0.002 0.157646,0.390323 0.59893,0.386023 0.743344,-0.0073 0.97152,-0.189932 0.73949,-1.177706 0.445712,-0.236598 0.784517,0.02666 1.046448,0.829923 0.755498,-3.237265 -2.815163,-1.267539 -4.625558,-0.891418 0.850399,-1.708705 2.576493,-2.954596 4.017843,-4.422469 0.22366,2.266711 1.366281,3.397301 1.805574,3.890201 -0.728715,-3.067167 0.660232,-5.955873 1.874304,-9.235611 l 0.0062,-0.0057 c 2.191246,11.213164 -1.539638,14.42508 -4.872054,13.33252 1.306813,2.382093 -2.065172,0.826693 -2.427242,0.269751 -0.221567,2.323006 3.512217,3.22208 5.791894,1.8526 -0.735984,2.701413 -7.250577,3.466257 -6.047176,6.450252 0.958157,-2.168306 5.535639,-0.279088 8.448063,-5.091162 -0.3169,2.931927 -1.908919,5.001698 -4.039547,5.069458 1.69383,0.960785 -0.408345,1.280673 -2.066023,0.984953 0.981682,1.645092 4.918017,1.66365 6.82749,-1.414901 0.181407,2.47671 -3.196072,3.694408 -1.09244,6.283337 -0.01944,-0.837449 0.249618,-1.432909 1.376144,-2.811198 -0.219107,2.989267 0.482291,4.044257 1.793172,4.222999 -0.82971,-1.236306 -0.961376,-2.72484 0.204122,-1.775086 -0.370454,-1.051506 -0.453426,-1.220404 -0.329179,-2.630847 1.630587,1.929458 1.442372,2.141359 1.491382,2.978113 2.103632,-2.58893 -1.273847,-3.80611 -1.09244,-6.282821 1.909473,3.078551 5.845808,3.059476 6.82749,1.414384 -1.657678,0.295721 -3.76037,-0.02365 -2.06654,-0.984436 -2.130628,-0.06776 -3.722131,-2.138049 -4.03903,-5.069975 2.912424,4.812073 7.489389,2.922856 8.447546,5.091162 1.203401,-2.983995 -5.310675,-3.74884 -6.046659,-6.450252 2.279676,1.369481 6.012944,0.470407 5.791377,-1.8526 -0.36207,0.556942 -3.734055,2.112343 -2.427242,-0.269751 -3.32625,1.090784 -7.072326,-2.156767 -4.871537,-13.33252 l 0.0062,0.0062 c 1.214073,3.279738 2.602503,6.168444 1.873788,9.235612 0.439293,-0.492901 1.582431,-1.624007 1.806091,-3.890719 1.44135,1.467874 3.166927,2.713765 4.017326,4.422469 -1.810395,-0.376121 -5.380539,-2.345846 -4.625041,0.891419 0.261931,-0.803263 0.600735,-1.066005 1.046448,-0.829407 -0.23203,0.987774 -0.0039,1.169927 0.73949,1.177189 0.441284,0.0043 0.385868,-0.387992 0.59893,-0.386023 0.165194,0.0015 0.480917,0.45236 1.067635,0.478524 0.350419,0.01563 0.961446,-0.128197 1.378727,-0.09147 l 1.861385,1.063501 c 0.171169,0.354243 0.09301,0.914476 0.200504,1.255221 0.119705,0.379456 0.618389,0.489 0.695565,0.815971 0.04705,0.199347 -0.0051,0.657323 0.05323,0.821138 0.150875,0.423506 0.305021,1.022501 1.052132,0.470773 0.461145,0.487352 0.370805,0.804692 -0.152962,1.468127 0.880616,-0.226912 2.241266,-1.090691 -0.479041,-4.751648 0.5474,0.259676 1.051433,0.784428 1.575615,1.086755 0.345691,0.199382 0.6727,-0.240408 0.912089,-0.105419 0.251416,0.141731 0.248359,0.664613 0.548804,0.722436 0.504497,0.09709 0.813662,-0.02912 0.76171,-0.895552 0.755369,0.09301 0.843197,0.332831 0.999422,1.170987 0.865545,-2.21701 -1.555254,-2.643892 -4.398698,-2.888712 0.309038,-0.206405 0.661756,-0.210796 1.0542,-0.338997 0.197706,-0.06458 0.165546,-0.403172 0.343131,-0.513664 0.176532,-0.10984 0.557644,0.263398 0.89762,-0.0124 0.214134,-0.173716 0.02668,-0.559029 -0.444934,-1.1498 0.506538,-0.375535 0.841086,-0.112614 1.247469,0.690914 0.20635,-1.328792 -0.677121,-1.817662 -1.49655,-1.737362 -0.441239,0.04324 -1.226024,0.895599 -2.062923,1.874821 -0.818869,0.958142 -2.871221,-1.844433 -5.075142,-6.272485 0.701333,0.300416 1.406268,0.130073 1.609721,-0.111621 -2.018039,-0.805671 -2.581322,-5.023141 -5.668905,-7.148401 0.11447,-1.700888 -1.764458,-6.404546 1.463477,-6.01462 0.111356,3.798375 0.240416,6.806742 2.164209,7.282243 -0.393036,-1.081499 -0.64043,-2.988023 -0.03514,-2.617412 -0.03286,-1.383926 0.08013,-2.566059 0.451135,-4.689636 2.08525,10.626295 2.731609,15.983729 6.398576,16.18971 -0.936454,-1.609223 -2.037403,-9.457123 -0.865581,-8.609811 -0.23194,-2.855853 -0.932037,-4.406917 -1.852083,-8.421191 4.166456,5.416892 5.775471,24.612466 12.317594,23.81405 -2.633694,-2.95502 -5.263433,-12.466548 -3.86333,-11.993066 -1.907601,-7.223818 -1.758178,-7.202947 -4.020426,-12.425599 4.031176,4.624052 6.330548,17.146526 12.464872,16.65118 -3.080589,-3.283507 -4.877721,-9.202277 -3.697965,-8.887312 -1.564137,-3.697531 -2.808315,-6.878482 -6.965467,-13.329419 3.777917,2.853371 6.46098,7.329099 10.469646,6.517948 -1.378185,-1.023271 -4.445588,-3.818692 -3.19102,-3.979085 -1.128458,-1.957008 -2.705036,-3.167163 -6.700366,-6.899837 2.632017,0.344852 6.05541,3.143824 8.242907,1.611788 -1.549104,-0.219688 -4.296546,-1.736443 -3.202905,-2.053105 -1.030096,-0.836712 -2.491954,-1.736514 -4.856034,-2.857707 1.248229,0.08887 3.396151,0.655934 4.70979,-0.6046141 C 53.860673,9.609106 52.290113,9.4103294 53.032062,8.791131 51.551303,8.1388767 48.451925,7.2212171 45.776691,7.0165623 42.607454,6.7741166 41.457028,10.647595 44.737995,10.526942 c 0.142243,0.854063 0.189408,0.987501 0.139526,1.478463 -0.05085,0.500467 -0.934264,1.106871 -0.997355,1.759583 -0.09381,0.970555 0.257154,1.300789 -0.528133,2.196765 -0.653243,0.745317 -1.75729,0.711099 -2.577104,1.207161 -0.457873,0.277056 -1.164572,1.51428 -2.40037,1.863452 -0.690986,0.195237 -1.710933,0.0647 -2.842721,-0.588077 -0.710856,-0.409996 -0.963894,-0.517202 -1.81746,-0.575676 -0.313599,-0.02148 -0.0026,-0.969675 0.686263,-2.3797 0.240855,0.06791 0.61891,-0.04453 0.810287,-0.166914 -0.256321,-0.256359 -0.26589,-0.68966 -0.08113,-1.153935 0.287472,0.07763 0.543384,0.124324 0.805635,0.07596 -0.530291,-0.458723 -0.482238,-1.336066 -0.534334,-2.10168 0.254195,0.10324 0.529051,0.281172 1.049031,0.106453 -0.503211,-0.3117 -0.678108,-0.948454 -0.797367,-1.802991 0.359335,0.03354 0.803142,-0.04192 1.130164,-0.419095 -0.610566,-0.03095 -0.991867,-0.2953462 -1.32395,-0.9756515 0.637519,-0.08216 1.196751,-0.5577678 1.399397,-1.0386963 -0.644781,0.1815958 -1.878469,0.2271295 -2.247408,-0.4697388 0.242406,-0.07455 1.256956,-0.3881097 1.392163,-1.127063 -0.235619,0.1564529 -0.856942,0.3181173 -1.64176,0.2030884 0.348701,-0.3357367 0.457168,-1.0615382 0.252698,-1.7838704 z" /></g></clipPath><clipPath
       clipPathUnits="userSpaceOnUse"
       id="clipPath421"><g
         inkscape:label="Clip"
         id="use421"><path
           sodipodi:type="star"
           style="display:inline;opacity:1;fill:#d7f4ee;fill-opacity:1;stroke:none;stroke-width:3;stroke-linecap:butt;stroke-linejoin:round;stroke-dasharray:none;stroke-opacity:1;paint-order:stroke fill markers"
           id="path423"
           inkscape:flatsided="false"
           sodipodi:sides="5"
           sodipodi:cx="-257.04892"
           sodipodi:cy="42.969372"
           sodipodi:r1="52.562145"
           sodipodi:r2="26.281075"
           sodipodi:arg1="0.65080025"
           sodipodi:arg2="1.2791188"
           inkscape:rounded="0"
           inkscape:randomized="0"
           d="m -215.23052,74.812743 -34.26103,-6.672335 -24.91962,24.440771 -4.24147,-34.646046 -30.94514,-16.147349 31.63966,-14.740099 5.79447,-34.4203821 23.79586,25.5361631 34.52631,-5.125616 -16.93301,30.522316 z"
           transform="matrix(0.26458333,0,0,0.26458333,4.8730933,-5.9771938)"
           inkscape:transform-center-x="1.2357912"
           inkscape:transform-center-y="-0.09660765" /><rect
           style="display:inline;opacity:1;fill:#80b3ff;fill-opacity:1;stroke:none;stroke-width:3;stroke-linecap:butt;stroke-linejoin:round;stroke-dasharray:none;stroke-opacity:1;paint-order:stroke fill markers"
           id="rect423"
           width="41.05674"
           height="36.175869"
           x="-63.450653"
           y="3.170033" /></g></clipPath><linearGradient
       inkscape:collect="always"
       xlink:href="#linearGradient126"
       id="linearGradient437"
       x1="110.00522"
       y1="29.146576"
       x2="110.00522"
       y2="5.5611386"
       gradientUnits="userSpaceOnUse" /><linearGradient
       inkscape:collect="always"
       xlink:href="#linearGradient126"
       id="linearGradient438"
       x1="94.46595"
       y1="60.108601"
       x2="94.46595"
       y2="36.417782"
       gradientUnits="userSpaceOnUse" /><filter
       x="-0.12343037"
       width="1.2468607"
       y="-0.17650542"
       height="1.3530108"
       inkscape:menu="Non-Realistic 3D Shaders"
       inkscape:menu-tooltip="Aluminium effect with sharp brushed reflections"
       inkscape:label="Aluminium"
       style="color-interpolation-filters:sRGB"
       id="filter482"><feGaussianBlur
         result="result8"
         stdDeviation="5"
         in="SourceGraphic"
         id="feGaussianBlur476" /><feComposite
         operator="xor"
         in2="SourceGraphic"
         result="result22"
         id="feComposite476" /><feComposite
         k2="1"
         operator="arithmetic"
         result="result20"
         in2="result22"
         in="result22"
         id="feComposite477"
         k1="0"
         k3="0"
         k4="0" /><feComposite
         in2="result22"
         in="result20"
         operator="over"
         result="result6"
         id="feComposite478" /><feOffset
         in="result6"
         result="result21"
         id="feOffset478" /><feDisplacementMap
         in2="result20"
         result="result4"
         scale="100"
         yChannelSelector="A"
         xChannelSelector="A"
         in="result21"
         id="feDisplacementMap478" /><feComposite
         in2="SourceGraphic"
         k1="1"
         operator="arithmetic"
         result="fbSourceGraphic"
         k3="0.5"
         in="result4"
         id="feComposite479"
         k2="0"
         k4="0" /><feComposite
         in2="result4"
         result="result12"
         operator="in"
         in="fbSourceGraphic"
         id="feComposite480" /><feComposite
         in2="SourceGraphic"
         operator="in"
         result="result18"
         id="feComposite481" /><feComposite
         result="result19"
         in2="SourceGraphic"
         operator="in"
         in="result18"
         id="feComposite482" /></filter><filter
       inkscape:label="Gold Paste"
       x="-0.039909355"
       y="-0.047239646"
       height="1.0944793"
       width="1.0798187"
       inkscape:menu="Materials"
       inkscape:menu-tooltip="Fat pasted cast metal, with golden highlights"
       style="color-interpolation-filters:sRGB"
       id="filter490"><feGaussianBlur
         in="SourceAlpha"
         stdDeviation="0.01"
         result="result91"
         id="feGaussianBlur486" /><feComposite
         result="fbSourceGraphic"
         operator="in"
         in="SourceGraphic"
         in2="result91"
         id="feComposite486" /><feGaussianBlur
         result="result1"
         in="fbSourceGraphic"
         stdDeviation="0.01"
         id="feGaussianBlur487" /><feTurbulence
         result="result0"
         numOctaves="4"
         baseFrequency="0.04"
         type="fractalNoise"
         seed="20"
         id="feTurbulence487" /><feDisplacementMap
         result="result2"
         scale="30"
         yChannelSelector="G"
         xChannelSelector="R"
         in="result1"
         in2="result0"
         id="feDisplacementMap487" /><feColorMatrix
         type="saturate"
         values="1"
         result="result3"
         id="feColorMatrix487" /><feGaussianBlur
         result="result4"
         in="fbSourceGraphic"
         stdDeviation="0.01"
         id="feGaussianBlur488" /><feComposite
         operator="atop"
         result="fbSourceGraphic"
         in="result4"
         in2="result3"
         id="feComposite488" /><feGaussianBlur
         result="result0"
         in="fbSourceGraphic"
         stdDeviation="1.5"
         id="feGaussianBlur489" /><feTurbulence
         baseFrequency="0.02"
         seed="20"
         numOctaves="8"
         result="result1"
         type="fractalNoise"
         id="feTurbulence489" /><feComposite
         result="result2"
         operator="out"
         in2="result1"
         in="result0"
         id="feComposite489" /><feSpecularLighting
         lighting-color="#dfbc10"
         surfaceScale="2.5"
         result="result4"
         specularConstant="2"
         specularExponent="30"
         in="result2"
         id="feSpecularLighting489"><feDistantLight
           elevation="62"
           azimuth="225"
           id="feDistantLight489" /></feSpecularLighting><feComposite
         in2="result2"
         in="result4"
         operator="atop"
         result="result92"
         id="feComposite490" /><feBlend
         mode="multiply"
         in2="result92"
         id="feBlend490" /></filter><filter
       inkscape:label="brushed-metal"
       inkscape:menu="Image Effects"
       inkscape:menu-tooltip="Adds a small scale graininess"
       style="color-interpolation-filters:sRGB"
       id="filter496"
       x="0"
       y="0"
       width="1"
       height="1"><feTurbulence
         type="turbulence"
         numOctaves="1"
         baseFrequency="0.001 4.4937013698630137"
         seed="0"
         result="result0"
         id="feTurbulence495" /><feColorMatrix
         result="result4"
         values="0"
         type="saturate"
         id="feColorMatrix495" /><feComposite
         in="SourceGraphic"
         in2="result4"
         operator="arithmetic"
         k1="2.9533679"
         k2="1.2953368"
         k3="1.0362694"
         result="result2"
         id="feComposite495"
         k4="0" /><feBlend
         result="result5"
         mode="normal"
         in="result2"
         in2="SourceGraphic"
         id="feBlend495" /><feComposite
         in="result5"
         in2="SourceGraphic"
         operator="in"
         result="result3"
         id="feComposite496" /></filter><linearGradient
       inkscape:collect="always"
       xlink:href="#linearGradient6"
       id="linearGradient9"
       gradientUnits="userSpaceOnUse"
       gradientTransform="matrix(3.8532328,0,0,3.8532328,-0.43221544,-1.7188434)"
       x1="46.700436"
       y1="48.503174"
       x2="24.383142"
       y2="26.185881"
       spreadMethod="reflect" /></defs><g
     inkscape:label="Layer 1"
     inkscape:groupmode="layer"
     id="layer1"
     style="display:inline"
     transform="translate(-6.7372511e-4,-0.01182194)"><g
       id="g456"
       inkscape:label="title"
       transform="matrix(3.853233,0,0,3.853233,5.6180953,-1.6960547)"
       style="stroke-width:1.29761;stroke-dasharray:none"><path
         d="m 72.86073,46.360773 v -7.910549 l 0.976611,0.585966 h 2.799619 l 0.423198,-0.423198 -0.423198,-0.423198 -2.799619,-1.595131 h -5.599236 l -0.423198,0.390644 0.423198,0.423198 0.976611,0.585967 v 20.053079 l 0.423198,0.423198 c 2.506635,1.464916 2.962387,1.725346 2.962387,1.725346 l 0.130215,-0.09766 h 3.938997 L 77.060158,59.675237 76.669513,59.284592 75.269704,58.47075 H 73.837341 L 72.86073,57.884782 V 48.8023 H 76.1161 L 76.539298,48.379102 76.1161,47.955904 73.316482,46.360773 Z m 3.060013,-3.613461 -0.423198,0.423198 0.423198,0.423198 2.311313,1.334702 v 14.746826 l 0.423198,0.423198 2.734511,-1.562578 0.390644,-0.423198 V 45.156286 c 0.781289,0 1.562578,0 2.311313,0 l 0.423198,-0.423198 -0.423198,-0.390645 -2.311313,-1.334701 v -4.557518 l -0.390644,-0.390645 -2.734511,-1.562577 -0.423198,0.390644 v 5.859666 z m 17.774302,2.018329 -0.423198,-0.423198 -2.734511,-1.562577 h -2.701957 -0.03255 -0.03255 l -2.701957,1.562577 -0.423198,0.390645 v 6.315417 7.064153 l 0.423198,0.423198 2.734511,1.562578 h 2.701957 l 2.734511,-1.562578 0.390644,-0.423198 -0.390644,-0.423198 H 90.50479 l -2.311312,1.334702 v -7.324583 l 2.343866,1.334702 v 0 l -0.130215,-0.130215 0.130215,0.162769 h 2.734511 l 0.423198,-0.423198 z m -3.548353,5.859666 H 88.19347 v -6.803723 l 1.953222,1.106826 z m 13.509778,-3.87389 0.4232,-0.423198 -0.4232,-0.423198 -2.73451,-1.562578 H 98.610645 V 43.17051 l -0.423198,-0.423198 -2.734511,1.562578 -0.390644,0.423198 v 13.412124 l 0.423198,0.423198 2.73451,1.562578 0.423199,-0.390645 -0.03255,-14.323628 2.311311,1.334702 z m 2.99495,-3.190263 -1.36726,-0.781288 -0.42319,0.390644 v 16.569833 l 0.42319,0.423198 h 2.73452 l 0.39064,-0.423198 V 44.92841 l 1.92067,-1.106826 v 15.918759 l 0.4232,0.423198 h 2.73451 l 0.42319,-0.423198 V 44.765641 l -0.42319,-0.423198 -2.73451,-1.562577 h -2.73451 z M 118.5661,57.68946 v -5.696897 l 1.88811,-1.106826 v 6.803723 z m 5.46902,0 V 44.733088 l -0.4232,-0.390645 -2.73451,-1.562577 h -2.70196 l -2.73451,1.562577 -0.4232,0.423198 v 3.125156 l 0.4232,0.423198 h 2.73451 l 0.39065,-0.423198 V 44.92841 l 1.88811,-1.106826 v 5.989881 h -2.31131 l -2.70196,1.595131 c -0.16277,0.130215 -0.29298,0.26043 -0.4232,0.390644 v 7.877996 l 0.4232,0.423198 h 2.70196 l 0.0326,-0.03255 v 0 l 2.27876,-1.302148 v 0.911504 l 0.4232,0.423198 h 2.73451 c 0.61852,-0.358091 2.70196,-1.562578 2.70196,-1.562578 l 0.4232,-0.423198 -0.4232,-0.423198 c -0.74874,0 -1.53003,0 -2.27876,0 z"
         id="text433"
         style="font-size:32.5537px;line-height:1;font-family:GargouilleBoldExtra;-inkscape-font-specification:GargouilleBoldExtra;letter-spacing:0px;display:inline;fill:url(#linearGradient438);stroke:#1a1a1a;stroke-width:1.29761;stroke-linecap:round;stroke-linejoin:round;stroke-dasharray:none;paint-order:stroke fill markers"
         inkscape:label="text-title-path"
         aria-label="Eterna" /><path
         d="m 78.035739,8.0133297 h 2.408973 L 80.86791,7.5901316 80.444712,7.1994872 77.612541,5.5718022 h -2.799619 l -0.423198,0.3906444 v 8.2035324 1.204487 h -2.050883 l 0.03255,-9.4080194 -0.423198,-0.3906444 h -2.832172 l -0.390644,0.3906444 -0.06511,22.7875894 0.390645,0.423198 h 2.832171 l 0.423199,-0.423198 0.03255,-12.370406 2.050883,1.204487 v 9.603342 l 0.423198,0.390644 2.799619,1.627685 h 2.832171 l 0.423198,-0.423198 -0.423198,-0.390644 -2.408973,-1.39981 v -9.603341 l -0.423198,-0.390644 -2.083437,-1.237041 2.083437,-1.171933 0.423198,-0.423198 z m 10.840428,7.8128883 0.423198,-0.423199 -0.423198,-0.423198 -2.734511,-1.562577 h -2.311312 v -1.171933 l -0.423198,-0.423198 -2.734511,1.562577 -0.390644,0.423198 v 13.412124 l 0.423198,0.423198 2.73451,1.562578 0.423198,-0.390644 -0.03255,-14.323628 2.311312,1.334702 z m 1.139392,12.956372 0.423198,0.423198 h 2.669403 c 0.130215,-0.130215 0.292983,-0.26043 0.423198,-0.423198 V 12.245311 c -0.130215,-0.130215 -0.260429,-0.26043 -0.423198,-0.390645 l -2.669403,1.823007 -0.423198,0.423198 z M 93.531358,5.9950003 C 93.401143,5.8322318 93.270929,5.702017 93.10816,5.5718022 l -2.669403,1.8230072 -0.423198,0.4231981 v 3.6785685 l 0.390644,0.423198 2.701957,-1.855561 c 0.130215,-0.1302151 0.292983,-0.2604299 0.423198,-0.3906447 z m 10.579952,7.8454417 -0.42319,-0.423198 -2.73451,-1.562578 h -2.701962 -0.03255 -0.03255 l -2.701957,1.562578 -0.423198,0.390644 v 6.315418 7.064153 l 0.423198,0.423198 2.73451,1.562577 h 2.701959 l 2.73451,-1.562577 0.39065,-0.423198 -0.39065,-0.423198 h -2.73451 l -2.311314,1.334701 V 20.77438 l 2.343874,1.334702 v 0 l -0.13022,-0.130215 0.13022,0.162768 h 2.73451 l 0.42319,-0.423198 z m -3.54835,5.859666 h -1.953221 v -6.803723 l 1.953221,1.106825 z m 4.98071,-5.89222 v 14.942148 l 0.4232,0.390645 h 2.70195 l 2.31132,-1.302148 v 7.682673 l -2.31132,-1.334702 h -2.70195 l -0.4232,0.423198 0.4232,0.423198 2.70195,1.562578 h 2.70196 c 0.9115,-0.520859 1.82301,-1.041719 2.73451,-1.562578 l 0.4232,-0.423198 V 13.807888 l -0.4232,-0.423198 -2.6694,-1.530024 -0.0326,-0.03255 v 0 h -0.0326 v 0 h -2.70196 l -2.70195,1.562577 -0.4232,0.423198 z m 5.43647,12.956373 h -1.88812 V 13.970657 l 1.88812,-1.074272 z"
         id="text430"
         style="font-size:32.5537px;line-height:1;font-family:GargouilleBoldExtra;-inkscape-font-specification:GargouilleBoldExtra;letter-spacing:0px;display:inline;fill:url(#linearGradient437);stroke:#1a1a1a;stroke-width:1.29761;stroke-linecap:round;stroke-linejoin:round;stroke-dasharray:none;paint-order:stroke fill markers"
         inkscape:label="text-title-path"
         aria-label="Krieg" /><text
         xml:space="preserve"
         style="font-style:normal;font-variant:normal;font-weight:normal;font-stretch:normal;font-size:32.5537px;line-height:0.95;font-family:GargouilleBoldExtra;-inkscape-font-specification:GargouilleBoldExtra;letter-spacing:0px;display:none;fill:#000000;fill-opacity:1;stroke:none;stroke-width:1.29761;stroke-linecap:round;stroke-linejoin:round;stroke-dasharray:none;stroke-dashoffset:0;stroke-opacity:1;paint-order:stroke fill markers"
         x="67.944092"
         y="28.750036"
         id="text13-9"
         inkscape:label="text-title-editable"><tspan
           sodipodi:role="line"
           id="tspan13-2"
           style="font-style:normal;font-variant:normal;font-weight:normal;font-stretch:normal;font-size:32.5537px;line-height:0.95;font-family:GargouilleBoldExtra;-inkscape-font-specification:GargouilleBoldExtra;letter-spacing:0px;fill:#000000;fill-opacity:1;stroke:none;stroke-width:1.29761;stroke-linecap:round;stroke-linejoin:round;stroke-dasharray:none;stroke-dashoffset:0;stroke-opacity:1;paint-order:stroke fill markers"
           x="0"
           y="0"
           dx="0">Krieg</tspan><tspan
           sodipodi:role="line"
           style="font-style:normal;font-variant:normal;font-weight:normal;font-stretch:normal;font-size:32.5537px;line-height:0.95;font-family:GargouilleBoldExtra;-inkscape-font-specification:GargouilleBoldExtra;letter-spacing:0px;fill:#000000;fill-opacity:1;stroke:none;stroke-width:1.29761;stroke-linecap:round;stroke-linejoin:round;stroke-dasharray:none;stroke-dashoffset:0;stroke-opacity:1;paint-order:stroke fill markers"
           x="0"
           y="0"
           id="tspan14-5">Eterna</tspan></text></g><path
       d="m 107.43588,15.174313 c 0.216,0.51589 3.52025,-1.743839 10.57292,-1.548503 6.78526,0.187924 10.47596,2.504656 10.66698,2.09123 2.58859,-5.393905 2.5095,-3.838907 0.95217,-6.8846901 -1.88558,1.6144931 -3.0262,2.8004331 -5.97479,-2.2421654 -4.22891,4.0269715 -7.54193,3.2272488 -10.18013,-0.3085291 -3.5922,5.2393446 -4.20966,3.8088676 -6.15652,1.7250701 -2.31053,3.1429985 -2.25397,1.6367799 0.1194,7.1676025 z M 79.780367,145.59608 c 0.783952,0.93131 3.500324,1.58742 6.20273,0.42984 -8.492228,17.06234 -16.400488,27.86221 -19.555784,24.17026 -3.224769,-3.77318 -6.24904,-7.05803 -7.94924,-7.22464 -3.157455,-0.30945 -6.561574,1.57518 -5.766462,6.69533 1.565891,-3.09619 2.854086,-4.10944 4.8059,-2.66242 -1.817234,2.27638 -2.538992,3.76039 -1.713889,4.42977 1.310011,1.06272 2.777866,-0.37615 3.458089,0.047 0.684273,0.42575 0.561038,1.73186 1.322851,1.9807 1.51218,0.494 2.871296,0.51077 4.062092,1.3061 -10.956461,0.94335 -20.284173,2.5871 -16.949022,11.12976 0.601973,-3.22961 0.941087,-4.15253 3.851708,-4.51092 -0.200149,3.33857 0.990252,3.82427 2.934206,3.45016 1.157681,-0.2228 1.146361,-2.23701 2.115128,-2.78314 0.922422,-0.52015 2.182423,1.17369 3.514459,0.40545 2.019794,-1.16495 3.961743,-3.18608 6.071001,-4.18667 -10.481987,14.10654 -5.239418,17.43467 -1.846199,18.30902 -2.018204,-2.55637 -2.366508,-3.77877 -0.589603,-5.65665 2.878791,2.12594 3.474014,-0.18265 4.055367,-1.81452 0.224699,-0.63121 0.0235,-2.39518 0.205049,-3.16332 0.2974,-1.25989 2.217804,-1.68297 2.679052,-3.1451 0.414199,-1.31297 0.11305,-3.47181 0.772618,-4.83679 l 7.171677,-4.09811 c 1.60788,-0.1415 3.963468,0.41275 5.313718,0.35255 2.260763,-0.1008 3.477675,-1.83766 4.114213,-1.84344 0.820972,-0.007 0.607588,1.5037 2.307957,1.48713 2.864286,-0.0285 3.742934,-0.73053 2.848871,-4.53666 1.717435,-0.91167 3.022421,0.10105 4.031703,3.19623 2.911113,-12.47394 -10.845816,-4.88411 -17.821694,-3.43482 3.276789,-6.58405 9.926064,-11.38446 15.479921,-17.04053 0.861822,8.73418 5.266046,13.09205 6.958746,14.99131 -2.807909,-11.81852 2.5425,-22.94951 7.22061,-35.58712 l 0.024,-0.0225 c 8.44339,43.20698 -5.9313,55.58319 -18.771892,51.3733 5.035465,9.17877 -7.957695,3.18498 -9.35284,1.03895 -0.853753,8.95109 13.532297,12.41652 22.316432,7.13959 -2.83592,10.40919 -27.936875,13.35542 -23.299884,24.85346 3.692003,-8.355 21.328554,-1.0758 32.550814,-19.61786 -1.22108,11.29741 -7.35388,19.2745 -15.563692,19.5356 6.526722,3.70212 -1.573775,4.9337 -7.961205,3.79422 3.782658,6.33892 18.949227,6.41124 26.306877,-5.45114 0.699,9.54335 -12.31434,14.23456 -4.20854,24.21032 -0.0749,-3.22689 0.96137,-5.52121 5.30214,-10.83209 -0.84427,11.51836 1.85886,15.58271 6.91,16.27144 -3.19707,-4.76378 -3.70456,-10.49895 0.78638,-6.83933 -1.42744,-4.05169 -1.7474,-4.70131 -1.26865,-10.13608 6.28304,7.43466 5.55695,8.2505 5.7458,11.47471 8.10579,-9.97576 -4.90755,-14.66697 -4.20855,-24.21032 7.35765,11.86237 22.52422,11.79006 26.30688,5.45113 -6.38743,1.13949 -14.48793,-0.0921 -7.96121,-3.79422 -8.20981,-0.2611 -14.3426,-8.23818 -15.56369,-19.53558 11.22226,18.54205 28.85881,11.26285 32.55082,19.61785 4.63699,-11.49805 -20.46397,-14.44427 -23.29989,-24.85346 8.78413,5.27694 23.17018,1.81151 22.31644,-7.13959 -1.39515,2.14603 -14.38831,8.13983 -9.35285,-1.03895 -12.81683,4.20305 -27.25205,-8.31048 -18.77188,-51.3733 l 0.024,0.0225 c 4.6781,12.63761 10.02851,23.76861 7.2206,35.58713 1.6927,-1.89926 6.09693,-6.25714 6.95874,-14.99131 5.55387,5.65606 12.20314,10.45647 15.47993,17.04052 -6.97588,-1.44928 -20.73281,-9.03912 -17.82169,3.43482 1.00928,-3.09516 2.31426,-4.10789 4.0317,-3.19622 -0.89407,3.80612 -0.0155,4.50867 2.84887,4.53666 1.70037,0.0165 1.48699,-1.49472 2.30796,-1.48714 0.63654,0.005 1.85345,1.74262 4.11421,1.84344 1.35025,0.0602 3.70584,-0.49405 5.31372,-0.35255 l 7.17167,4.09811 c 0.65956,1.36498 0.35845,3.52382 0.77262,4.83679 0.46125,1.46213 2.38168,1.88521 2.67906,3.1451 0.1813,0.76814 -0.0195,2.53211 0.2051,3.16332 0.58135,1.63187 1.17657,3.94046 4.05537,1.81452 1.7769,1.87788 1.42859,3.10027 -0.58961,5.65665 3.39322,-0.87435 8.63579,-4.20249 -1.84619,-18.30902 2.10925,1.00059 4.0512,3.02172 6.071,4.18666 1.33203,0.76827 2.59203,-0.92557 3.51446,-0.40545 0.96876,0.54613 0.95744,2.56034 2.11512,2.78315 1.94395,0.3741 3.13439,-0.11155 2.9342,-3.45016 2.91062,0.3584 3.24974,1.28131 3.85171,4.51092 3.33516,-8.54266 -5.99255,-10.18641 -16.94901,-11.12976 1.19079,-0.79533 2.54991,-0.81211 4.06208,-1.3061 0.76182,-0.24885 0.63859,-1.55495 1.32286,-1.9807 0.68022,-0.4232 2.14808,1.01564 3.45808,-0.047 0.82511,-0.66936 0.10335,-2.15338 -1.71388,-4.42976 1.95181,-1.44702 3.24001,-0.43374 4.80589,2.66242 0.79512,-5.12015 -2.609,-7.00475 -5.76645,-6.69533 -1.7002,0.1666 -4.72447,3.45147 -7.94924,7.22464 -3.1553,3.69195 -11.06356,-7.10792 -19.55579,-24.17026 2.7024,1.15758 5.41878,0.50148 6.20273,-0.42984 -7.77598,-3.10444 -9.94512,-19.35592 -21.8423,-27.54506 0.4411,-6.55391 -6.79974,-24.677925 5.63826,-23.17545 0.4291,14.63604 0.92556,26.22854 8.33838,28.06076 -1.51446,-4.16727 -2.46719,-11.51323 -0.13485,-10.08517 -0.1266,-5.33259 0.3098,-9.88753 1.73931,-18.070174 8.03496,40.945634 10.52521,61.588144 24.65491,62.381844 -3.60839,-6.20072 -7.85044,-36.43892 -3.33513,-33.17403 -0.89372,-11.00428 -3.59166,-16.9813 -7.13682,-32.449249 16.05434,20.872569 22.25359,94.837409 47.46194,91.760919 -10.14825,-11.38639 -20.28153,-48.03738 -14.8866,-46.21294 -7.35044,-27.83508 -6.77499,-27.75363 -15.49197,-47.877747 15.53308,17.817567 24.39431,66.070017 48.03131,64.161327 -11.87024,-12.65213 -18.79547,-35.45925 -14.2496,-34.24562 -6.02698,-14.24745 -10.82159,-26.505473 -26.84008,-51.362465 14.5572,10.994716 24.89674,28.241927 40.34308,25.116372 -5.31048,-3.942903 -17.13047,-14.713909 -12.29633,-15.331942 -4.34821,-7.540817 -10.42275,-12.203842 -25.81769,-26.586722 10.14178,1.328796 23.33309,12.112412 31.76204,6.209111 -5.96853,-0.846508 -16.55522,-6.689379 -12.34116,-7.909548 -3.9692,-3.224049 -9.603,-6.692799 -18.71236,-11.013021 4.80972,0.342439 13.08762,2.527417 18.14938,-2.329774 -5.87516,-0.549817 -11.92827,-1.314545 -9.06936,-3.700463 -5.70572,-2.513291 -17.64835,-6.048562 -27.95667,-6.837146 -12.21181,-0.934201 -16.64357,13.990794 -4.00123,13.52589 0.5481,3.290904 0.73007,3.804115 0.53786,5.69591 -0.19595,1.928416 -3.60056,4.264926 -3.84366,6.779975 -0.3615,3.739778 0.99133,5.012714 -2.03457,8.465123 -2.51709,2.871886 -6.77253,2.740652 -9.93147,4.652101 -1.76429,1.067561 -4.48652,5.835021 -9.24835,7.180467 -2.66253,0.752293 -6.59355,0.248599 -10.95459,-2.266683 -2.73909,-1.579815 -3.71319,-1.993004 -7.00218,-2.218313 -1.20837,-0.08275 -0.0105,-3.736548 2.64372,-9.169711 0.92807,0.261649 2.38441,-0.17115 3.12184,-0.642748 -0.98767,-0.987812 -1.02272,-2.658287 -0.3108,-4.447251 1.10769,0.299149 2.09361,0.479798 3.10412,0.293499 -2.04334,-1.767569 -1.85958,-5.148274 -2.06032,-8.098365 0.97947,0.397804 2.03884,1.083263 4.04245,0.410029 -1.93898,-1.201079 -2.61291,-3.654401 -3.07244,-6.947131 1.3846,0.129238 3.09541,-0.16118 4.3555,-1.614532 -2.35266,-0.119266 -3.82191,-1.139052 -5.10151,-3.760429 2.45651,-0.316582 4.61066,-2.14809 5.39151,-4.001221 -2.4845,0.699732 -7.23795,0.875617 -8.65956,-1.809582 0.93405,-0.287259 4.84349,-1.497046 5.36448,-4.344408 -0.9079,0.60285 -3.30223,1.225929 -6.32632,0.782696 1.34362,-1.293673 1.76167,-4.090327 0.97379,-6.873644 -2.25544,3.006234 -5.20264,2.418289 -6.57207,2.025425 -23.29962,-6.870939 -28.226906,10.009885 -21.67397,15.047183 2.6022,-7.105289 10.86762,-1.445425 13.75232,3.517914 -0.55802,0.490249 -2.40766,-0.918396 -5.22304,1.165726 -1.31582,0.974055 -3.9103,1.412885 -5.80849,0.627118 0.4714,2.689441 2.01754,4.537143 2.91474,4.604363 2.20725,0.16538 6.52311,-2.946849 8.86435,-0.474623 0.22325,0.235779 0.53486,0.534373 0.66391,0.789281 -0.86122,4.146193 -5.44545,6.562407 -6.77504,8.050633 -1.40574,1.57347 -5.26939,4.488636 -6.26594,15.234257 -0.0774,1.351266 -2.80722,-0.519988 -5.57042,1.642135 -2.150294,1.68254 -3.172286,3.27441 -7.168368,2.881786 -5.087324,-0.499859 -6.970188,-3.870383 -10.175413,-7.137748 -2.313818,-2.358677 -6.893489,-1.856949 -9.728935,-4.415161 -3.928213,-3.544119 -2.628262,-5.409373 -2.848071,-8.650648 -0.194519,-2.868463 -2.604862,-4.441244 -3.504804,-6.42591 -0.660073,-1.455663 -0.434679,-3.441707 0.131415,-6.431831 12.64234,0.464905 8.210584,-14.460091 -4.001233,-13.52589 -10.308292,0.788583 -22.261321,4.346192 -27.967038,6.859482 2.940645,2.340905 -3.183814,3.12831 -9.058973,3.678127 5.06176,4.857191 13.33966,2.672212 18.149386,2.329775 -9.109366,4.320221 -14.743159,7.788971 -18.712363,11.013018 4.214057,1.220168 -6.372626,7.063045 -12.341693,7.909547 8.428947,5.903302 21.620259,-4.880309 31.762048,-6.20911 C 30.391083,65.397943 24.31655,70.060973 19.968334,77.601784 24.80248,78.219817 12.982485,88.990819 7.6720128,92.933726 23.118352,96.059286 33.480416,78.676906 48.037626,67.68219 32.019131,92.539178 27.201993,104.93236 21.175004,119.17983 c 4.54588,-1.21364 -2.379355,21.59348 -14.2495938,34.24562 23.6370028,1.90868 32.5506198,-46.34564 48.0837038,-64.163202 -8.71698,20.124112 -8.193923,20.044532 -15.544366,47.879612 5.394954,-1.82458 -4.738332,34.82641 -14.886579,46.2128 25.208357,3.07648 31.454452,-70.88851 47.508797,-91.76108 -3.545159,15.46795 -6.289951,21.44513 -7.183438,32.4494 4.515311,-3.26489 0.273249,26.97331 -3.335124,33.17403 14.129685,-0.79369 16.659762,-21.47603 24.694722,-62.421665 1.429541,8.182645 1.826104,12.777405 1.69949,18.109995 2.332318,-1.42805 1.379591,5.9179 -0.13485,10.08518 7.412827,-1.83223 7.909296,-13.42473 8.338379,-28.06076 11.832065,-1.157786 5.683375,13.36735 5.455535,23.12024 -11.89618,8.19017 -14.065318,24.44165 -21.841298,27.54609 z"
       style="display:inline;fill:url(#linearGradient9);stroke:#1a1a1a;stroke-width:4.49999;stroke-linecap:butt;stroke-linejoin:round;stroke-dasharray:none;stroke-opacity:1;paint-order:stroke fill markers"
       id="path2"
       sodipodi:nodetypes="ssccccccscccsccssscccscsccccssccsccccccccccccccccccccccccccccccccccccccsssccssscccssscccsssccssccccccccccccccccccccccccscssssssscccccccccccccccccscsscscsssssscscccccccccccccccccccccccc"
       inkscape:label="logo" /></g></svg>
