<?xml version="1.0" encoding="UTF-8" standalone="no"?>
<svg
   version="1.1"
   id="Layer_1"
   x="0px"
   y="0px"
   width="1000"
   viewBox="0 0 1000 1000"
   enable-background="new 0 0 2466 3366"
   xml:space="preserve"
   sodipodi:docname="logo-fancy.svg"
   inkscape:version="1.3.2 (091e20e, 2023-11-25, custom)"
   height="1000"
   inkscape:export-filename="logo-fancy2.png"
   inkscape:export-xdpi="96"
   inkscape:export-ydpi="96"
   xmlns:inkscape="http://www.inkscape.org/namespaces/inkscape"
   xmlns:sodipodi="http://sodipodi.sourceforge.net/DTD/sodipodi-0.dtd"
   xmlns:xlink="http://www.w3.org/1999/xlink"
   xmlns="http://www.w3.org/2000/svg"
   xmlns:svg="http://www.w3.org/2000/svg"><defs
   id="defs55"><color-profile
     name="Adobe-RGB-1998"
     xlink:href="../../../../../../Windows/system32/spool/drivers/color/AdobeRGB1998.icc"
     id="color-profile1" /><color-profile
     name="sRGB-IEC61966-2.1"
     xlink:href="../../../../../../Windows/system32/spool/drivers/color/sRGB%20Color%20Space%20Profile.icm"
     id="color-profile2" /></defs><sodipodi:namedview
   id="namedview55"
   pagecolor="#ffffff"
   bordercolor="#000000"
   borderopacity="0.25"
   inkscape:showpageshadow="2"
   inkscape:pageopacity="0.0"
   inkscape:pagecheckerboard="0"
   inkscape:deskcolor="#d1d1d1"
   inkscape:zoom="0.84448506"
   inkscape:cx="413.2696"
   inkscape:cy="440.50513"
   inkscape:window-width="2245"
   inkscape:window-height="1352"
   inkscape:window-x="0"
   inkscape:window-y="0"
   inkscape:window-maximized="0"
   inkscape:current-layer="Layer_1"
   showguides="true" />























































<g
   id="g456"
   inkscape:label="title"
   style="display:inline"
   transform="matrix(1.1342938,0,0,1.1342938,299.10499,619.48525)"><path
     style="font-weight:800;font-size:54.4175px;line-height:1;font-family:'Open Sans';-inkscape-font-specification:'Open Sans Ultra-Bold';letter-spacing:0px;display:inline;fill:#000000;stroke:none;stroke-width:7.93445226;stroke-linejoin:round;stroke-dasharray:none;paint-order:stroke fill markers"
     d="m -73.510208,274.98844 q 0,3.16195 -1.594262,6.00505 -1.594263,2.81653 -4.968786,4.57022 -3.347951,1.75369 -8.66216,1.75369 -2.657105,0 -4.676504,-0.23914 -1.992829,-0.23914 -3.719947,-0.77056 -1.727117,-0.55799 -3.587093,-1.43483 v -9.35301 q 3.161957,1.59426 6.377053,2.44453 3.215097,0.82371 5.819059,0.82371 1.567692,0 2.55082,-0.372 1.0097,-0.37199 1.487979,-1.0097 0.478279,-0.66427 0.478279,-1.51455 0,-1.0097 -0.717419,-1.70054 -0.690847,-0.71742 -2.231967,-1.48798 -1.541121,-0.77056 -4.06537,-1.91312 -2.152255,-1.0097 -3.905944,-2.07254 -1.727118,-1.06284 -2.975957,-2.41797 -1.222268,-1.38169 -1.886544,-3.21509 -0.664279,-1.8334 -0.664279,-4.33108 0,-3.74652 1.833405,-6.27077 1.859973,-2.55082 5.154783,-3.82623 3.32138,-1.27541 7.652461,-1.27541 3.799659,0 6.828758,0.85027 3.05567,0.85028 5.473635,1.93969 l -3.215096,8.10417 q -2.497678,-1.14256 -4.915643,-1.80683 -2.417966,-0.69085 -4.490507,-0.69085 -1.355123,0 -2.231968,0.34542 -0.850273,0.31886 -1.27541,0.87685 -0.398566,0.55799 -0.398566,1.27541 0,0.90341 0.690848,1.62083 0.717418,0.71742 2.364823,1.56769 1.673975,0.82371 4.543648,2.15226 2.843102,1.27541 4.83593,2.76339 1.992829,1.46141 3.029099,3.53395 1.062842,2.04597 1.062842,5.07507 z m 20.140852,4.11851 q 1.408265,0 2.577391,-0.29228 1.169126,-0.29228 2.444537,-0.74399 v 7.57275 q -1.700547,0.74398 -3.613663,1.19569 -1.886544,0.47828 -4.83593,0.47828 -2.922815,0 -5.154782,-0.90341 -2.231968,-0.92999 -3.480807,-3.18853 -1.222268,-2.28511 -1.222268,-6.35048 V 264.4663 h -3.640233 v -4.22479 l 4.623361,-3.26824 2.683676,-6.32391 h 6.802187 v 6.03163 h 7.386751 v 7.78531 h -7.386751 v 11.71783 q 0,1.46141 0.74399,2.2054 0.743989,0.71742 2.072541,0.71742 z m 28.457587,-22.95738 q 0.850274,0 1.78026,0.13285 0.929987,0.10629 1.381695,0.186 l -0.929987,9.80471 q -0.50485,-0.13285 -1.301981,-0.21256 -0.797131,-0.10629 -2.231968,-0.10629 -0.983129,0 -2.099112,0.186 -1.115984,0.186 -2.125684,0.79713 -0.983129,0.58456 -1.620834,1.80683 -0.637705,1.1957 -0.637705,3.24167 v 14.80007 h -10.389278 v -30.10499 h 7.732174 l 1.620833,4.80936 h 0.50485 q 0.823703,-1.48798 2.099113,-2.68368 1.301981,-1.22227 2.896244,-1.93969 1.620833,-0.71741 3.32138,-0.71741 z m 22.0539682,0 q 5.7127747,0 8.9278711,2.8431 3.2150964,2.81653 3.2150964,8.05102 v 19.74229 H 2.0844136 l -1.99282839,-3.98566 h -0.21256836 q -1.27541015,1.59427 -2.63053345,2.60397 -1.3285522,0.98312 -3.0556701,1.43483 -1.7271179,0.47828 -4.2247963,0.47828 -2.603962,0 -4.676504,-1.06284 -2.072541,-1.06284 -3.268238,-3.2151 -1.195697,-2.15225 -1.195697,-5.44706 0,-4.83593 3.347951,-7.17418 3.347952,-2.33826 9.6984318,-2.63054 l 5.0219274,-0.15942 v -0.42514 q 0,-2.0194 -1.0096997,-2.86967 -0.9831287,-0.85028 -2.6571045,-0.85028 -1.78026,0 -3.9856567,0.63771 -2.1788253,0.61113 -4.3842223,1.59426 l -3.002528,-6.85533 q 2.603962,-1.32855 5.898772,-2.0194 3.2948094,-0.69084 7.3867502,-0.69084 z m 1.8068311,17.19146 -2.391394,0.10629 q -2.8696729,0.10628 -4.0387988,1.0097 -1.142555,0.87684 -1.142555,2.52424 0,1.54113 0.8237024,2.28511 0.8237024,0.71742 2.1788257,0.71742 1.8865442,0 3.2150964,-1.19569 1.3551233,-1.1957 1.3551233,-3.10882 z m 32.1509667,5.76592 q 1.408265,0 2.577391,-0.29228 1.169126,-0.29228 2.444536,-0.74399 v 7.57275 q -1.700547,0.74398 -3.613662,1.19569 -1.886544,0.47828 -4.83593,0.47828 -2.922815,0 -5.154783,-0.90341 -2.231967,-0.92999 -3.480806,-3.18853 -1.222269,-2.28511 -1.222269,-6.35048 V 264.4663 h -3.640233 v -4.22479 l 4.623362,-3.26824 2.683676,-6.32391 h 6.802187 v 6.03163 h 7.38675 v 7.78531 h -7.38675 v 11.71783 q 0,1.46141 0.743989,2.2054 0.74399,0.71742 2.072542,0.71742 z m 23.834225,-22.95738 q 4.384223,0 7.572748,1.54112 3.188525,1.51455 4.915643,4.57022 1.727118,3.05567 1.727118,7.65246 v 4.62336 h -18.57316 q 0.132855,2.36482 1.753689,3.87937 1.647405,1.51455 4.83593,1.51455 2.816531,0 5.154783,-0.55799 2.364823,-0.55799 4.862501,-1.72712 v 7.46646 q -2.178826,1.14256 -4.756217,1.67398 -2.577391,0.53142 -6.509906,0.53142 -4.543649,0 -8.13074,-1.62083 -3.587091,-1.62084 -5.659632,-5.02193 -2.045971,-3.40109 -2.045971,-8.74187 0,-5.4205 1.859973,-8.9013 1.859974,-3.50738 5.207925,-5.18136 3.347952,-1.70054 7.785316,-1.70054 z m 0.371995,7.06789 q -1.833402,0 -3.082241,1.16913 -1.222268,1.14255 -1.434837,3.61366 h 8.927871 q -0.02657,-1.32855 -0.531421,-2.41796 -0.504849,-1.08942 -1.487978,-1.72712 -0.956558,-0.63771 -2.391394,-0.63771 z m 29.998713,36.64147 q -6.403621,0 -9.884428,-2.15225 -3.454236,-2.12568 -3.454236,-6.13791 0,-2.68368 1.673976,-4.43737 1.673975,-1.75369 5.021927,-2.52425 -1.381694,-0.58456 -2.417965,-1.88654 -1.0097,-1.30198 -1.0097,-2.57739 0,-1.40827 0.770561,-2.47111 0.77056,-1.08941 3.215096,-2.57739 -2.338252,-1.03627 -3.693375,-3.24167 -1.328552,-2.20539 -1.328552,-5.36735 0,-3.26824 1.487978,-5.57992 1.51455,-2.31168 4.384222,-3.53395 2.896244,-1.22226 7.041327,-1.22226 0.557992,0 1.700547,0.10628 1.142555,0.0797 2.311681,0.21257 1.169126,0.10628 1.806831,0.21257 h 10.49556 v 5.02192 l -4.118509,1.51455 q 0.425137,0.77056 0.637705,1.67398 0.212564,0.90341 0.212564,1.91311 0,4.86251 -3.42766,7.54618 -3.401094,2.68368 -10.176711,2.68368 -1.673975,0 -2.657104,-0.21257 -0.185997,0.34542 -0.292282,0.69085 -0.07971,0.31885 -0.07971,0.61113 0,0.61113 0.717419,0.98313 0.743989,0.34542 1.78026,0.47828 1.062841,0.13285 2.019399,0.13285 h 4.995356 q 5.07507,0 7.599313,2.12569 2.52425,2.12568 2.52425,6.40362 0,5.5002 -4.70307,8.55587 -4.676503,3.05567 -13.152667,3.05567 z m 0.50485,-6.48333 q 1.886544,0 3.79966,-0.34542 1.913115,-0.31886 3.215096,-1.06285 1.301981,-0.74399 1.301981,-1.96625 0,-0.92999 -0.77056,-1.40827 -0.77056,-0.45171 -1.992829,-0.61113 -1.222268,-0.15943 -2.577391,-0.15943 h -4.038799 q -1.115984,0 -2.04597,0.34542 -0.903416,0.372 -1.434836,0.98313 -0.531421,0.61114 -0.531421,1.3817 0,1.27541 1.381694,2.04597 1.381694,0.79713 3.693375,0.79713 z m 1.408266,-22.21339 q 1.487978,0 2.285109,-1.14256 0.823703,-1.14255 0.823703,-3.42766 0,-2.33826 -0.770561,-3.50738 -0.77056,-1.16913 -2.338251,-1.16913 -1.620834,0 -2.417966,1.16913 -0.797131,1.14255 -0.797131,3.45423 0,2.31169 0.797131,3.48081 0.797132,1.14256 2.417966,1.14256 z m 17.138324,-14.48122 h 10.94727 l 5.10164,17.27118 q 0.10629,0.37199 0.21257,0.92998 0.10629,0.53142 0.186,1.14256 0.0797,0.61113 0.10628,1.19569 h 0.21257 q 0.13286,-1.08941 0.29228,-1.88654 0.186,-0.8237 0.34543,-1.32855 l 5.23449,-17.32432 h 10.60185 l -11.90383,32.01811 q -1.38169,3.6668 -3.21509,6.13791 -1.80684,2.49767 -4.49051,3.74651 -2.65711,1.27541 -6.61619,1.27541 -1.43484,0 -2.47111,-0.15942 -1.0097,-0.13286 -1.78026,-0.29228 v -8.15731 q 0.58456,0.10628 1.43484,0.21256 0.85027,0.10629 1.78026,0.10629 1.72712,0 2.78996,-0.69085 1.08941,-0.69085 1.78026,-1.8334 0.69085,-1.11598 1.1957,-2.41797 l 0.10628,-0.26571 z m 68.87215,-0.69085 q -1.85997,0 -3.32138,0.79713 -1.46141,0.77056 -2.49768,2.25854 -1.03627,1.48798 -1.59426,3.64023 -0.53142,2.12569 -0.53142,4.83593 0,3.66681 0.92998,6.16449 0.92999,2.49767 2.81653,3.77308 1.91312,1.27541 4.78279,1.27541 2.60396,0 4.99536,-0.71741 2.41796,-0.71742 4.8625,-1.72712 v 8.87473 q -2.57739,1.14255 -5.28764,1.6474 -2.68367,0.50485 -5.71277,0.50485 -6.32391,0 -10.36271,-2.49768 -4.01223,-2.52425 -5.92534,-6.98818 -1.88655,-4.46394 -1.88655,-10.36271 0,-4.41079 1.22227,-8.0776 1.24884,-3.6668 3.64023,-6.35048 2.3914,-2.71024 5.89878,-4.17165 3.53394,-1.48798 8.07759,-1.48798 2.81653,0 5.92535,0.66428 3.13538,0.6377 6.11134,2.07254 l -3.2151,8.26359 q -2.12568,-1.0097 -4.30451,-1.70054 -2.17882,-0.69085 -4.62336,-0.69085 z m 32.09783,0.15943 q 5.71277,0 8.92787,2.8431 3.2151,2.81653 3.2151,8.05102 v 19.74229 h -7.20076 l -1.99282,-3.98566 h -0.21257 q -1.27541,1.59427 -2.63054,2.60397 -1.32855,0.98312 -3.05567,1.43483 -1.72711,0.47828 -4.22479,0.47828 -2.60396,0 -4.67651,-1.06284 -2.07254,-1.06284 -3.26823,-3.2151 -1.1957,-2.15225 -1.1957,-5.44706 0,-4.83593 3.34795,-7.17418 3.34795,-2.33826 9.69843,-2.63054 l 5.02193,-0.15942 v -0.42514 q 0,-2.0194 -1.0097,-2.86967 -0.98313,-0.85028 -2.65711,-0.85028 -1.78026,0 -3.98565,0.63771 -2.17883,0.61113 -4.38422,1.59426 l -3.00253,-6.85533 q 2.60396,-1.32855 5.89877,-2.0194 3.29481,-0.69084 7.38675,-0.69084 z m 1.80683,17.19146 -2.39139,0.10629 q -2.86968,0.10628 -4.0388,1.0097 -1.14256,0.87684 -1.14256,2.52424 0,1.54113 0.82371,2.28511 0.8237,0.71742 2.17882,0.71742 1.88655,0 3.2151,-1.19569 1.35512,-1.1957 1.35512,-3.10882 z m 35.57861,-17.19146 q 0.85027,0 1.78026,0.13285 0.92999,0.10629 1.38169,0.186 l -0.92998,9.80471 q -0.50485,-0.13285 -1.30198,-0.21256 -0.79714,-0.10629 -2.23197,-0.10629 -0.98313,0 -2.09911,0.186 -1.11599,0.186 -2.12569,0.79713 -0.98313,0.58456 -1.62083,1.80683 -0.63771,1.1957 -0.63771,3.24167 v 14.80007 h -10.38928 v -30.10499 h 7.73218 l 1.62083,4.80936 h 0.50485 q 0.8237,-1.48798 2.09911,-2.68368 1.30199,-1.22227 2.89625,-1.93969 1.62083,-0.71741 3.32138,-0.71741 z m 16.7132,31.16783 q -4.64993,0 -7.65246,-3.95908 -3.00253,-3.95909 -3.00253,-11.58498 0,-7.7056 3.08224,-11.66469 3.08225,-3.95908 7.97132,-3.95908 2.0194,0 3.48081,0.58456 1.4614,0.58456 2.52424,1.59426 1.08942,0.98313 1.88655,2.23197 h 0.21257 q -0.186,-1.14256 -0.34543,-3.13538 -0.15942,-2.0194 -0.15942,-3.93252 v -8.05103 h 10.46899 v 41.34455 h -7.83846 l -2.23197,-3.79966 h -0.39856 q -0.71742,1.1957 -1.80683,2.17883 -1.06285,0.98313 -2.60397,1.56769 -1.51455,0.58456 -3.58709,0.58456 z m 4.25137,-8.21045 q 2.49768,0 3.50738,-1.56769 1.03627,-1.59427 1.11598,-4.83593 v -0.82371 q 0,-3.56052 -1.0097,-5.44706 -0.98313,-1.91312 -3.71994,-1.91312 -1.85998,0 -3.08225,1.80684 -1.22226,1.80683 -1.22226,5.60649 0,3.74651 1.22226,5.47363 1.24884,1.70055 3.18853,1.70055 z m 51.73381,-15.06578 h 16.76633 v 20.93798 q -3.00252,1.03627 -6.8819,1.70055 -3.87937,0.6377 -8.13074,0.6377 -5.60649,0 -9.83128,-2.17882 -4.2248,-2.17883 -6.58962,-6.61619 -2.36483,-4.46394 -2.36483,-11.26613 0,-6.11134 2.33826,-10.5487 2.33825,-4.46394 6.8819,-6.8819 4.57022,-2.44454 11.18641,-2.44454 3.64023,0 6.90847,0.69085 3.26824,0.69085 5.6862,1.75369 l -3.32138,8.23702 q -2.09911,-1.03627 -4.35765,-1.54112 -2.25854,-0.53142 -4.8625,-0.53142 -3.48081,0 -5.60649,1.56769 -2.09911,1.56769 -3.05567,4.19823 -0.95656,2.60396 -0.95656,5.76591 0,3.61366 1.0097,6.11134 1.03627,2.47111 3.00253,3.77309 1.99283,1.27541 4.80936,1.27541 0.92998,0 2.25854,-0.13285 1.35512,-0.13286 2.04597,-0.31886 v -6.08477 h -6.93505 z m 38.76716,-7.8916 q 5.71278,0 8.92787,2.8431 3.2151,2.81653 3.2151,8.05102 v 19.74229 h -7.20075 l -1.99283,-3.98566 h -0.21257 q -1.27541,1.59427 -2.63053,2.60397 -1.32856,0.98312 -3.05567,1.43483 -1.72712,0.47828 -4.2248,0.47828 -2.60396,0 -4.6765,-1.06284 -2.07254,-1.06284 -3.26824,-3.2151 -1.1957,-2.15225 -1.1957,-5.44706 0,-4.83593 3.34795,-7.17418 3.34795,-2.33826 9.69843,-2.63054 l 5.02193,-0.15942 v -0.42514 q 0,-2.0194 -1.0097,-2.86967 -0.98313,-0.85028 -2.6571,-0.85028 -1.78026,0 -3.98566,0.63771 -2.17882,0.61113 -4.38422,1.59426 l -3.00253,-6.85533 q 2.60396,-1.32855 5.89877,-2.0194 3.29481,-0.69084 7.38675,-0.69084 z m 1.80683,17.19146 -2.39139,0.10629 q -2.86967,0.10628 -4.0388,1.0097 -1.14255,0.87684 -1.14255,2.52424 0,1.54113 0.8237,2.28511 0.8237,0.71742 2.17882,0.71742 1.88655,0 3.2151,-1.19569 1.35512,-1.1957 1.35512,-3.10882 z m 54.15177,-17.19146 q 5.15478,0 7.86503,2.63053 2.73682,2.63053 2.73682,8.42302 v 19.58286 H 410.3485 v -16.36776 q 0,-3.42767 -0.92999,-4.75622 -0.90341,-1.35512 -2.71024,-1.35512 -2.52425,0 -3.50738,2.20539 -0.95656,2.2054 -0.95656,6.2442 v 14.02951 h -10.41585 v -16.36776 q 0,-2.17883 -0.39856,-3.50738 -0.372,-1.35512 -1.14256,-1.96626 -0.77056,-0.6377 -1.93968,-0.6377 -1.78026,0 -2.78996,1.08941 -0.98313,1.06284 -1.3817,3.13538 -0.39856,2.07254 -0.39856,5.07507 v 13.17924 h -10.38928 v -30.10499 h 7.83846 l 1.51455,3.71994 h 0.29228 q 0.79713,-1.22227 2.04597,-2.17882 1.27541,-0.95656 3.00253,-1.51455 1.75368,-0.55799 3.98565,-0.55799 3.32138,0 5.47364,1.11598 2.15225,1.11598 3.50737,3.08224 h 0.31886 q 1.43483,-2.0194 3.69337,-3.10881 2.25854,-1.08941 5.07507,-1.08941 z m 31.22102,0 q 4.38422,0 7.57275,1.54112 3.18852,1.51455 4.91564,4.57022 1.72712,3.05567 1.72712,7.65246 v 4.62336 H 436.9993 q 0.13286,2.36482 1.75369,3.87937 1.6474,1.51455 4.83593,1.51455 2.81653,0 5.15478,-0.55799 2.36483,-0.55799 4.8625,-1.72712 v 7.46646 q -2.17882,1.14256 -4.75621,1.67398 -2.57739,0.53142 -6.50991,0.53142 -4.54365,0 -8.13074,-1.62083 -3.58709,-1.62084 -5.65963,-5.02193 -2.04597,-3.40109 -2.04597,-8.74187 0,-5.4205 1.85997,-8.9013 1.85997,-3.50738 5.20793,-5.18136 3.34795,-1.70054 7.78531,-1.70054 z m 0.372,7.06789 q -1.83341,0 -3.08224,1.16913 -1.22227,1.14255 -1.43484,3.61366 h 8.92787 q -0.0266,-1.32855 -0.53142,-2.41796 -0.50485,-1.08942 -1.48798,-1.72712 -0.95656,-0.63771 -2.39139,-0.63771 z"
     id="text13"
     inkscape:label="text-subtitle-path"
     aria-label="Strategy Card Game" /><path
     d="m -167.32306,-2.8969169 h 17.79892 l 3.12684,-3.126838 -3.12684,-2.886312 -20.92576,-12.0263001 h -20.68524 l -3.12684,2.886312 v 60.612552 8.899462 h -15.15313 l 0.24052,-69.512014 -3.12684,-2.886312 h -20.92576 l -2.88631,2.886312 -0.48105,168.368205 2.88631,3.12683 h 20.92576 l 3.12684,-3.12683 0.24053,-91.399885 15.15313,8.899462 V 138.7729 l 3.12684,2.88631 20.68524,12.0263 h 20.92576 l 3.12684,-3.12684 -3.12684,-2.88631 -17.79892,-10.34262 V 66.374571 l -3.12684,-2.886312 -15.39367,-9.139988 15.39367,-8.658936 3.12684,-3.126838 z m 80.095498,57.7262399 3.126838,-3.126838 -3.126838,-3.126838 -20.204188,-11.545248 h -17.07734 v -8.658936 l -3.12684,-3.126838 -20.20418,11.545248 -2.88632,3.126838 v 99.096709 l 3.12684,3.12684 20.20419,11.54525 3.12683,-2.88631 -0.24052,-105.831443 17.07734,9.861566 z m 8.418495,95.729347 3.126838,3.12684 h 19.723133 c 0.962104,-0.9621 2.164734,-1.92421 3.126838,-3.12684 V 28.371463 c -0.962104,-0.962104 -1.924208,-1.924208 -3.126838,-2.886312 l -19.723133,13.469456 -3.126838,3.126838 z m 25.976809,-168.368199 c -0.962104,-1.20263 -1.924208,-2.164734 -3.126838,-3.126838 l -19.723133,13.4694561 -3.126838,3.126838 V 22.839365 l 2.886312,3.126838 19.963659,-13.709982 c 0.962104,-0.962104 2.164734,-1.924208 3.126838,-2.8863118 z M 25.338715,40.157237 22.211877,37.030399 2.0076931,25.485151 h -19.9636581 -0.240526 -0.240526 l -19.963658,11.545248 -3.126838,2.886312 V 86.578755 138.7729 l 3.126838,3.12684 20.204184,11.54524 H 1.7671671 l 20.2041839,-11.54524 2.886312,-3.12684 -2.886312,-3.12684 H 1.7671671 l -17.0773461,9.86157 V 91.389276 l 17.3178721,9.861564 v 0 l -0.962104,-0.9621 0.962104,1.20263 H 22.211877 l 3.126838,-3.12684 z M -0.8786189,83.451917 H -15.310179 V 33.181983 l 14.4315601,8.177884 z M 35.921785,39.916711 V 150.31815 l 3.126838,2.88631 h 19.963658 l 17.077347,-9.62104 v 56.76413 L 59.012281,190.48599 H 39.048623 l -3.126838,3.12684 3.126838,3.12683 19.963658,11.54525 H 78.97594 c 6.734728,-3.84841 13.469456,-7.69683 20.204184,-11.54525 l 3.126836,-3.12683 V 39.916711 L 99.180124,36.789873 79.456992,25.485151 79.216466,25.244625 v 0 H 78.97594 v 0 H 59.012281 L 39.048623,36.789873 Z M 76.089628,135.64606 H 62.13912 V 41.119341 l 13.950508,-7.937358 z"
     id="path10"
     style="font-size:240.526px;line-height:0.95;font-family:GargouilleBoldExtra;-inkscape-font-specification:GargouilleBoldExtra;letter-spacing:0px;display:inline;fill:#000000;stroke:none;stroke-width:10.13846677;stroke-linecap:round;stroke-linejoin:round;stroke-dasharray:none;stroke-opacity:1;paint-order:stroke fill markers"
     inkscape:label="text-title-path" /><path
     d="M 192.74486,51.943011 V -6.5048069 l 7.21578,4.329468 h 20.68523 l 3.12684,-3.126838 -3.12684,-3.126838 -20.68523,-11.7857741 h -41.37048 l -3.12683,2.886312 3.12683,3.126838 7.21578,4.3294681 V 138.29185 l 3.12684,3.12683 c 18.5205,10.82367 21.88787,12.74788 21.88787,12.74788 l 0.9621,-0.72158 h 29.10365 l 2.88631,-3.12683 -2.88631,-2.88632 -10.34262,-6.01315 h -10.58314 l -7.21578,-4.32946 V 69.982461 h 24.0526 l 3.12683,-3.126838 -3.12683,-3.126838 -20.68524,-11.785774 z m 22.60919,-26.698386 -3.12684,3.126838 3.12684,3.126838 17.07735,9.861566 V 150.31815 l 3.12683,3.12683 20.20419,-11.54524 2.88631,-3.12684 V 43.043549 c 5.77262,0 11.54525,0 17.07735,0 l 3.12683,-3.126838 -3.12683,-2.886312 -17.07735,-9.861566 V -6.5048069 l -2.88631,-2.886312 -20.20419,-11.5452481 -3.12683,2.886312 v 43.29468 z m 131.32706,14.912612 -3.12684,-3.126838 -20.20418,-11.545248 h -19.96366 -0.24053 -0.24053 l -19.96365,11.545248 -3.12684,2.886312 V 86.578755 138.7729 l 3.12684,3.12684 20.20418,11.54524 h 19.96366 l 20.20418,-11.54524 2.88632,-3.12684 -2.88632,-3.12684 h -20.20418 l -17.07735,9.86157 V 91.389276 l 17.31788,9.861564 v 0 l -0.96211,-0.9621 0.96211,1.20263 h 20.20418 l 3.12684,-3.12684 z m -26.21734,43.29468 H 306.03221 V 33.181983 l 14.43156,8.177884 z M 420.282,54.829323 423.40884,51.702485 420.282,48.575647 400.07782,37.030399 h -17.07735 v -8.658936 l -3.12683,-3.126838 -20.20419,11.545248 -2.88631,3.126838 v 99.096709 l 3.12684,3.12684 20.20418,11.54525 3.12684,-2.88631 -0.24053,-105.831443 17.07735,9.861566 z m 22.12847,-23.571548 -10.10209,-5.772624 -3.12684,2.886312 V 150.7992 l 3.12684,3.12684 h 20.20418 l 2.88631,-3.12684 V 41.359867 l 14.19104,-8.177884 V 150.7992 l 3.12683,3.12684 h 20.20419 l 3.12684,-3.12684 V 40.157237 L 492.92093,37.030399 472.71674,25.485151 H 452.51256 Z M 530.44314,135.64606 V 93.55401 l 13.95051,-8.177885 v 50.269935 z m 40.40837,0 V 39.916711 l -3.12684,-2.886312 -20.20418,-11.545248 h -19.96366 l -20.20418,11.545248 -3.12684,3.126838 v 23.090496 l 3.12684,3.126838 h 20.20418 l 2.88631,-3.126838 V 41.359867 l 13.95051,-8.177884 V 77.438767 H 527.3163 l -19.96365,11.785775 c -1.20263,0.962104 -2.16474,1.924208 -3.12684,2.886312 v 58.207296 l 3.12684,3.12683 h 19.96365 l 0.24053,-0.24052 v 0 l 16.83682,-9.62104 v 6.73473 l 3.12684,3.12683 h 20.20418 c 4.57,-2.64578 19.96366,-11.54524 19.96366,-11.54524 l 3.12684,-3.12684 -3.12684,-3.12684 c -5.5321,0 -11.30472,0 -16.83682,0 z"
     id="path11"
     style="font-size:240.526px;line-height:0.95;font-family:GargouilleBoldExtra;-inkscape-font-specification:GargouilleBoldExtra;letter-spacing:0px;display:inline;fill:#000000;stroke:none;stroke-width:10.13846677;stroke-linecap:round;stroke-linejoin:round;stroke-dasharray:none;stroke-opacity:1;paint-order:stroke fill markers"
     inkscape:label="text-title-path" /><text
     xml:space="preserve"
     style="font-size:54.4175px;line-height:1;font-family:Arial;-inkscape-font-specification:Arial;letter-spacing:0px;display:none;opacity:1;fill:#000000;fill-opacity:1;stroke:#333333;stroke-width:6.06963;stroke-linejoin:round;stroke-dasharray:none;stroke-opacity:1;paint-order:stroke fill markers"
     x="-103.11035"
     y="286.78598"
     id="text486"
     inkscape:label="text-subtitle-editable"><tspan
       sodipodi:role="line"
       id="tspan486"
       style="font-style:normal;font-variant:normal;font-weight:800;font-stretch:normal;font-family:'Open Sans';-inkscape-font-specification:'Open Sans Ultra-Bold';fill:#000000;fill-opacity:1;stroke:#333333;stroke-width:6.06963;stroke-dasharray:none"
       x="-103.11035"
       y="286.78598">Strategy Card Game</tspan></text><text
     xml:space="preserve"
     style="font-style:normal;font-variant:normal;font-weight:normal;font-stretch:normal;font-size:240.526px;line-height:0.95;font-family:GargouilleBoldExtra;-inkscape-font-specification:GargouilleBoldExtra;letter-spacing:0px;display:none;fill:#000000;fill-opacity:1;stroke:none;stroke-width:11.0829;stroke-linecap:round;stroke-linejoin:round;stroke-dasharray:none;stroke-dashoffset:0;stroke-opacity:1;paint-order:stroke fill markers"
     x="-241.88612"
     y="150.31815"
     id="text9"
     inkscape:label="text-title-editable"><tspan
       sodipodi:role="line"
       style="font-style:normal;font-variant:normal;font-weight:normal;font-stretch:normal;font-size:240.526px;line-height:0.95;font-family:GargouilleBoldExtra;-inkscape-font-specification:GargouilleBoldExtra;letter-spacing:0px;fill:#000000;fill-opacity:1;stroke:none;stroke-width:11.0829;stroke-linecap:round;stroke-linejoin:round;stroke-dasharray:none;stroke-dashoffset:0;stroke-opacity:1;paint-order:stroke fill markers"
       x="-241.88612"
       y="150.31815"
       id="tspan9"><tspan
   dx="0"
   id="tspan8"
   style="font-style:normal;font-variant:normal;font-weight:normal;font-stretch:normal;font-size:240.526px;line-height:0.95;font-family:GargouilleBoldExtra;-inkscape-font-specification:GargouilleBoldExtra;letter-spacing:0px;fill:#000000;fill-opacity:1;stroke:none;stroke-width:11.0829;stroke-linecap:round;stroke-linejoin:round;stroke-dasharray:none;stroke-dashoffset:0;stroke-opacity:1;paint-order:stroke fill markers">Krieg </tspan>Eterna</tspan></text></g><g
   id="g15"
   inkscape:label="logo"
   style="display:inline"
   transform="matrix(0.30359802,0,0,0.30359802,-38.950731,0.29024759)"><path
     fill="#030200"
     opacity="1"
     stroke="none"
     d="m 2012.5539,453.24079 c -7.5442,1.54188 -15.89,14.09947 4.8947,18.94183 -16.5433,6.55895 -24.5538,-2.92477 -23.9369,-12.31487 1.8146,-27.62178 54.5048,-9.64744 59.87,-36.18257 5.604,-27.71617 -42.9218,-33.78954 -55.1777,-9.45191 27.1762,22.10137 -5.8411,34.10508 -8.8623,26.15272 13.0939,-0.29061 8.25,-22.99496 -15.5269,-5.7486 -40.1069,29.09119 -70.7044,8.88389 -88.439,-2.11474 -10.4319,14.93549 -3.4681,39.91859 14.1287,24.26312 -0.3014,21.24728 -23.502,23.45381 -36.8598,8.50275 -22.3919,60.18804 -32.7644,67.52494 10.8009,75.62176 40.3617,7.50144 17.3767,23.76483 64.6617,40.56061 25.7802,9.15719 41.9913,-5.07224 75.257,-41.51068 3.9027,-4.27494 22.2087,-32.38613 58.5404,-33.45996 18.4826,-0.54628 37.0214,-4.45135 45.031,-16.50556 12.0119,-17.16199 7.9304,-37.53221 6.8731,-56.97558 -2.2527,-45.17019 43.5402,-36.30608 32.948,-64.69025 -4.6333,-12.41608 -9.7584,-24.56134 -8.6582,-38.63007 -17.6301,0.16419 -32.132,-5.27923 -44.6455,-17.76861 -2.9091,11.22693 -10.3977,15.28698 -19.0228,17.67017 -14.3753,3.97201 -26.6599,11.17064 -28.5613,27.30602 -1.2499,22.86162 24.9349,25.02279 17.5228,8.36548 1.8306,0.29637 16.436,10.6526 1.5919,26.29254 29.4319,-0.30844 24.8769,-25.33219 11.9118,-35.65924 49.0823,19.32479 5.3414,68.59367 -26.2956,47.49909 17.1006,43.743 -19.4438,43.99085 -48.046,49.83655 z m 28.5448,-106.55434 c -11.8732,5.28119 -25.6759,5.97156 -38.8273,5.7948 -51.0138,-0.68563 -35.2087,-80.86741 1.3688,-55.91012 7.698,5.25243 1.0212,20.31616 -13.6449,18.29732 8.9199,-6.83493 3.569,-14.60915 -3.3639,-7.89337 -19.5971,18.98346 26.2152,51.73243 53.4651,8.02057 -52.913,-16.5016 -29.0637,-80.08675 12.8364,-63.32159 18.6731,7.47153 3.4181,44.13841 -14.4246,19.28613 12.8658,2.91678 13.346,-7.06101 1.8648,-9.92505 -21.4898,-5.36072 -26.0618,54.39561 30.1018,30.45856 7.4543,-3.23419 14.596,-0.39984 21.0854,1.58484 0.1729,-30.45057 31.9018,-56.93979 87.0445,-58.95203 17.6237,-0.64319 35.3521,-0.89258 52.9536,0.46069 34.2117,2.63034 77.2999,-0.25528 97.6944,-14.72088 11.0048,-7.80558 15.1032,-19.72767 19.454,-31.43378 2.6646,7.77454 2.6074,20.97919 -1.4905,24.36971 -8.5643,7.08587 -5.2834,14.96606 -10.3192,17.85801 -32.5195,18.67532 -82.0284,19.08956 -96.8233,16.0575 6.6007,7.45993 52.8467,23.09445 93.1455,26.39783 23.7653,1.94796 38.9457,24.07986 99.3394,34.16137 3.2092,0.53575 8.4955,5.66002 2.1161,10.06403 -41.8849,28.91509 -79.4435,19.37766 -119.3543,5.21228 -3.5419,4.33697 123.5305,55.54447 148.8248,18.20471 1.5687,10.65228 -7.179,15.71768 -15.1302,22.81348 21.3662,0.50812 47.4672,-6.06722 64.2328,-23.8445 0.5874,-0.82749 2.2161,-0.22511 1.4769,1.14113 -33.263,53.80587 -96.9742,28.62642 -150.0637,14.36352 -7.3395,-1.44464 -16.5484,-3.64788 -7.6207,1.50867 65.5402,28.34548 138.7577,102.59731 167.8728,95.88257 11.6483,24.17774 -19.3584,22.20097 -34.735,24.25214 -0.5274,4.57037 2.6615,10.91662 -2.8421,15.85461 -46.4778,-45.63143 -95.8303,-29.27581 -163.81,-73.72546 -20.028,-10.45384 -22.4631,-10.2058 -1.3043,4.39459 114.6956,76.81686 148.7763,125.55425 209.3169,100.2666 3.0978,-1.29395 5.937,-2.46454 9.0317,-4.05099 -7.5704,14.43235 -23.857,19.6527 -39.8623,20.13211 24.6161,21.83022 61.3702,7.95096 79.4961,0.24206 -19.8214,22.19539 -55.653,23.53031 -82.6759,13.89044 -78.4936,-28.00098 -119.4615,-85.87719 -178.2899,-120.36047 -3.0121,-0.20052 -4.211,-0.23157 -1.6032,1.84064 78.4865,73.84116 65.7065,67.71651 123.0625,117.60003 24.9575,21.7048 11.9895,34.04728 49.7783,64.56775 4.803,3.87921 9.9797,8.73141 12.0688,14.24621 12.6458,25.8475 37.2832,50.5913 69.7221,82.2667 0.237,0.2313 0.4236,0.5137 0.6407,0.7661 9.5001,11.0429 -5.0862,17.3909 -10.7552,16.6825 -28.0833,-3.509 -40.966,-12.744 -51.9692,-7.2104 -5.0643,2.5469 -18.4773,-3.9556 -27.8148,-12.6608 -12.8406,-11.9704 -25.2646,-24.3876 -38.7658,-37.5194 -6.685,2.7421 -9.5389,-0.9174 -13.6974,-4.5265 -34.8488,-28.8171 -56.8098,-62.59295 -73.2359,-77.21427 -1.9177,1.56891 -5.9926,2.17595 -8.5128,0.56514 -20.493,-22.04871 -33.878,-43.01741 -60.3536,-58.98079 34.4596,50.05966 51.5364,43.03772 146.5873,196.08182 22.2398,41.2465 45.0166,81.4606 81.5552,111.8281 23.238,18.593 34.8187,18.505 35.7677,24.0529 -18.7841,-0.1 -33.3782,-12.1586 -48.6034,-21.4882 21.2774,33.157 51.886,58.6447 85.1132,79.1312 -101.5455,-13.6698 -159.0991,-204.8897 -276.4906,-340.41221 -18.2289,-20.91265 -4.5864,-1.09434 -2.211,2.31933 64.3396,93.22978 109.1107,195.00448 154.934,297.77428 3.0479,9.0008 12.6016,19.459 6.4872,28.4858 -2.8403,4.1932 5.6371,23.144 6.3117,24.4605 42.0165,81.99269 27.6947,120.97339 101.7705,194.60889 4.6305,4.6029 4.3815,5.9487 0.095,10.8309 -25.8802,29.476 -63.3949,-3.0904 -82.978,-24.4599 -5.8364,0.7182 -7.0564,12.0539 -19.0347,-1.3543 -35.0864,-48.4379 -59.4618,-103.5565 -85.9376,-156.96039 -10.6112,1.6277 -17.092,-4.8511 -20.9213,-13.9806 -22.892,-50.5899 -15.8188,-70.0754 -39.3324,-109.3353 -9.413,-17.6147 -23.1178,-36.1956 -19.9139,-57.1662 0.9288,-5.0124 -0.4207,-8.982 -4.3623,-12.4463 -5.2877,-4.6471 -9.988,-9.7475 -10.2883,-17.5575 -2.3357,-4.858 -9.4942,-8.9218 -11.7477,-11.7794 -12.0325,-15.6521 -5.4538,-3.5942 -2.7678,2.668 48.8099,106.1993 80.9543,216.9718 115.3006,328.08309 14.5566,46.664 46.3713,113.8808 100.7497,143.6601 1.1536,0.6315 2.4526,0.9975 2.6348,2.7316 -25.4129,-2.9272 -41.2081,-20.4819 -59.2909,-36.1813 16.1352,38.3513 43.5452,89.1634 88.5369,97.4284 1.398,0.1875 2.7249,0.9058 3.8987,2.4091 -64.2602,7.5433 -99.1421,-85.2016 -119.9359,-133.427 -74.5798,-159.67499 -84.9897,-318.40889 -165.4478,-445.15259 -4.8111,-6.1181 -4.5785,-3.3197 -2.5797,2.6012 20.1863,49.834 58.8612,154.2545 77.7893,261.5753 1.8877,10.7031 2.3238,11.382 13.4325,28.9492 2.6109,4.1289 -2.1515,9.66739 -5.3348,12.49899 13.6631,48.9285 25.0927,99.5572 46.0256,148.0895 0.222,5.8664 -5.9104,8.0264 -4.0945,14.2948 11.677,38.9209 18.033,80.6438 41.0032,115.0243 7.1693,10.245 -3.9576,13.2478 11.938,37.0111 9.0631,13.5492 18.7034,26.7119 28.0654,40.062 1.3071,1.8642 2.4179,3.8662 3.6958,5.9275 -21.9137,22.5873 -49.4032,-10.6929 -65.5859,-25.1595 -18.5881,10.3057 -27.3748,-19.7369 -36.0894,-37.9911 -6.0542,-12.6815 -10.8364,-1.0439 -22.4089,-21.8716 -4.0217,-8.2357 -7.4312,-17.0713 -13.7466,-23.9051 -6.0314,-6.1221 -10.6274,-12.8858 -12.5503,-21.1821 -2.3177,-10.0011 -4.4243,-20.0749 -5.9826,-30.2157 -0.568,-3.6953 -2.0892,-5.6282 -4.8069,-7.9653 -4.1718,-3.5874 -8.2538,-7.8015 -10.8689,-12.5742 -13.8837,-25.3387 -9.2059,-42.8175 -19.3374,-54.8499 -17.9962,-21.3733 -7.0048,-42.9018 -10.2074,-53.7622 -67.2291,-226.55919 -112.3332,-339.22509 -114.2246,-343.63269 -0.9207,-2.0271 -3.3716,-2.3068 -2.6133,0.9721 79.122,229.6271 97.9027,411.52839 170.5646,565.82989 14.5676,30.9351 39.4078,86.951 94.1848,106.9057 0.2324,0.085 0.2592,0.5637 0.383,0.8564 -19.1078,4.6653 -35.0693,-6.722 -49.8384,-17.2814 18.5553,28.3803 33.0758,46.6383 66.9952,58.1173 2.0476,0.693 3.8664,2.1253 5.6328,4.946 -83.5097,3.245 -144.0378,-166.9896 -170.6856,-254.1764 -64.4075,-215.50391 -58.5972,-249.18699 -129.0836,-472.63469 -9.4028,-24.451 -13.135,-23.2696 -9.0552,-9.6165 35.4238,115.6956 55.2379,242.3951 57.9648,363.71459 0.9271,39.896 8.4613,78.4546 22.6099,115.7619 6.6281,16.8043 -26.0814,12.8817 -34.4307,8.7481 -9.2984,-4.6035 -46.6173,-30.9777 -52.1767,-63.9955 -0.8725,-5.1804 -1.1515,-10.4608 -1.7659,-16.3003 -12.4892,1.8221 -14.6635,-14.205 -14.8834,-16.1793 -3.3024,-29.6323 -4.6864,-45.4771 -6.1377,-55.4228 -14.2862,-8.2848 -10.5935,2.4806 -20.4875,-96.30769 -16.7777,-3.508 -15.1194,-3.651 -51.8325,-220.5852 -0.9058,-2.0978 -1.8503,-4.5953 -2.0849,0.2701 3.38,85.0697 7.1798,154.8467 13.643,258.7236 -4.545,1.4231 -6.6201,-4.9597 -6.6941,-5.5876 -6.8927,-58.3615 -16.4162,-152.7888 -17.5756,-211.7328 -5.5849,64.3235 0.3126,118.1633 -2.8126,156.2843 -11.1878,-0.3961 -15.1036,-10.609 -23.8417,-16.7238 -11.6485,-8.1519 -17.928,-19.7715 -19.8299,-33.1318 -5.1693,-36.3135 -5.4551,-109.7551 -14.4876,-154.5395 -6.3177,69.4656 -9.6894,117.1499 6.4471,181.9151 -8.9578,-2.7003 -13.658,-8.5238 -16.7871,-15.8125 -18.1197,-56.8271 -13.1528,-108.5985 -19.7876,-168.4559 -44.7859,47.202 -9.4874,107.7695 -9.3829,163.3776 -0.2245,4.7606 1.7869,8.0571 5.9687,10.6085 84.0058,51.2524 49.8755,122.47479 166.7555,203.07239 -10.7604,3.9903 -27.8942,-2.1124 -29.7474,-2.5664 -2.3335,9.4862 32.0335,25.4841 34.1499,26.6619 -28.8084,8.0091 -55.1244,-23.8187 -62.3689,-31.0942 -0.4252,5.1868 19.9453,52.4314 39.7746,79.9889 21.4628,29.8277 43.1897,64.3932 49.8232,73.5879 14.7807,20.4869 39.1958,30.867 50.1884,16.4331 3.8144,-3.2549 9.9248,-3.3245 14.7541,-3.5473 -0.4947,-18.0847 -3.0525,-25.1043 16.4635,-27.3162 15.9627,-38.9611 73.4906,-18.0329 63.3703,29.4409 -1.8358,-4.1892 -11.6476,-23.6662 -27.8844,-22.2649 0.58,7.7983 5.7297,11.7556 10.0393,16.2466 2.9472,3.0711 7.4618,5.8646 5.63,10.8012 -2.0281,5.4659 -4.4478,11.2449 -8.2721,15.4577 -3.8682,4.2611 -9.7555,3.466 -14.656,0.2794 -2.6999,-1.7554 -5.1264,-3.931 -8.2135,-6.3359 -0.4244,4.2098 -0.6167,7.7452 -1.1625,11.2253 -1.5147,9.6577 -6.2724,12.9174 -16.0287,11.1714 -5.1733,-0.9259 -10.3458,-1.8558 -16.1204,-1.2371 9.1003,5.4044 17.9728,12.4196 22.7453,16.4816 6.2846,5.3491 11.0029,5.192 14.0003,-1.9712 2.0109,-4.8047 3.3595,-9.5226 9.4081,-10.1399 6.8725,-0.7014 13.4098,0.093 18.3002,5.7035 3.4392,3.9453 7.4634,5.5778 12.8318,6.3679 18.6586,2.747 33.4668,11.3124 38.6138,30.9352 2.8278,10.7811 1.619,21.7094 -2.9538,32.8743 -0.5445,-9.1445 -9.4217,-30.1058 -24.6899,-30.6812 1.7424,11.8787 -2.3548,20.9092 -13.9284,24.6398 -7.4803,2.411 -13.3741,-1.5663 -18.0739,-7.6516 -10.1483,7.8823 -23.2532,-5.2067 -25.039,-10.1029 -0.8241,-1.6492 -6.2484,-2.4931 -8.7198,-1.5419 -7.0331,2.7065 -12.4599,-0.1332 -16.8871,-4.4183 -12.9093,-12.4951 -15.0724,-23.4799 -25.1342,-26.3391 5.2096,12.8458 6.5546,26.252 18.1784,34.3057 7.2195,6.3175 19.4332,8.6722 24.6266,17.2403 5.7233,11.0251 10.4923,22.4198 0.6944,34.0376 -1.0881,1.29 -0.9191,3.7942 -0.9971,5.7489 -0.146,3.6601 -0.01,7.3305 -0.056,10.9958 -0.2086,16.3755 -10.2445,27.3415 -27.9761,29.9375 3.3794,-3.4113 11.3136,-18.7361 4.3347,-35.4005 -15.8673,-3.7037 -30.1115,-1.1319 -29.928,-22.4105 0.099,-11.4692 -1.5067,-22.1963 -11.5813,-29.1101 -12.1323,-8.3258 -12.5699,-21.4024 -14.0371,-33.6454 -1.5597,-16.1943 -17.9092,-19.9627 -30.1181,-26.6035 -14.4119,-5.9378 -14.6269,-21.3054 -31.2249,-16.086 -15.1931,9.3426 -22.9898,2.6765 -39.7829,3.1647 -4.1391,0.1203 -12.4334,-11.679 -14.6946,-12.3583 -3.0985,-0.9308 -13.5595,22.4194 -32.4022,9.4925 -10.5773,-7.6186 -13.758,-18.9513 -9.9725,-32.9181 -15.9283,0.7828 -21.9148,21.0133 -23.49,24.6217 -3.7917,-9.2804 -13.6452,-48.6774 27.6185,-52.0333 5.4002,-0.4391 10.9872,1.1478 14.9403,-5.122 1.2737,-2.0202 7.566,-1.0633 11.023,0.1113 18.0967,6.1503 8.7672,29.645 31.8433,31.7913 11.5657,1.2443 24.0704,-1.3315 35.767,-2.4945 -23.5465,-48.5245 -67.2141,-81.377 -106.2759,-116.8112 -6.1671,30.827 1.276,108.7723 -52.8814,124.128 49.6695,-60.1831 -14.6419,-186.561 -48.6532,-271.88929 -11.7192,44.38239 -68.8251,170.86569 2.6056,189.99609 9.8078,1.9244 22.6257,-11.1376 14.5187,-17.996 -1.8888,-1.5979 -9.4919,0.6487 -11.1785,10.0438 -1.3947,-1.0785 -5.7393,-20.3312 9.7679,-21.9603 17.8422,-1.8749 26.6867,24.8536 8.7224,40.1582 42.3226,8.2009 20.6254,75.4545 -5.817,46.2434 -15.4983,-17.1211 -32.7956,10.4635 -2.172,19.7379 2.5388,0.6334 7.4637,6.4704 10.0067,9.7957 -65.2054,-14.7585 -25.3662,-58.1186 -6.4931,-39.5479 14.8735,14.6354 21.4471,-16.082 9.7921,-17.3269 -51.744,-5.5267 -55.3134,-20.7557 -63.7106,-31.9359 -7.4111,77.1145 25.3618,136.9758 39.7798,111.8961 8.2124,-14.2868 26.5022,-6.7957 19.0586,9.7047 -2.5129,-6.7234 -5.6793,-8.1917 -9.1677,-1.7904 -4.9449,12.7417 -15.5742,17.0288 -27.6024,10.2196 -4.7221,-2.6732 -7.8158,-6.5892 -11.6102,-12.5496 11.4739,38.7009 17.148,71.1773 57.7316,87.8033 -12.5252,4.3561 -18.7874,0.8539 -26.5876,-2.1687 2.4894,18.114 15.5763,34.5476 20.2845,41.132 -38.0076,-6.9326 -56.4837,-88.2723 -66.7633,-130.0334 1.8181,38.992 18.0644,162.1554 92.259,176.4632 0.1701,0.033 25.4945,2.3244 25.3943,-17.1034 -0.1296,-25.0093 -29.0642,-33.2481 -28.3328,-17.6553 -0.2071,5.0423 7.6694,13.5182 17.4006,3.9484 1.5069,17.5094 -22.4278,15.9891 -27.7952,6.4771 -6.9734,-12.3581 -9.6603,-37.2462 26.3953,-47.2921 -30.4209,-29.1919 -27.4419,-94.6907 14.6591,-99.5425 57.5919,-3.2538 49.181,53.0461 33.0744,56.7144 -8.2155,1.8711 -10.8075,-0.7058 -16.5578,-9.0006 -6.0168,-8.6791 -12.2011,-11.7711 -12.2431,-4.1989 -0.016,2.8063 2.7801,4.7784 4.3437,7.4659 -27.1134,-2.0408 -12.0881,-38.4587 8.1765,-19.8814 15.2701,13.9987 13.9806,-6.6192 3.2171,-14.0941 -23.6268,-11.0277 -47.1939,15.4249 -27.6692,38.9635 3.5616,4.2942 7.8502,8.347 12.5828,11.2399 13.5852,8.3039 27.5882,15.929 38.8765,29.479 8.8713,-40.5602 44.4285,-39.3828 38.2096,-59.4651 -4.0548,-13.0953 -20.3132,-0.7724 -11.7284,5.2916 -13.343,3.9212 -10.2345,-19.8809 -3.5781,-23.0491 14.574,-6.9362 30.8749,2.4226 32.2876,18.6662 0.5325,6.1222 0.086,12.3294 0.086,19.5348 43.7953,-24.2997 103.1937,11.709 96.1009,66.1473 -0.8699,6.6832 2.1739,10.3069 8.1746,12.9977 18.9969,9.0548 21.5473,24.1506 16.8466,43.6333 -2.97,10.6396 -11.6706,17.4415 -18.5618,25.3635 -7.6283,9.2505 4.5163,23.4314 10.9479,17.0665 8.3092,-9.7786 14.7929,-20.3455 29.4573,-15.4997 15.5476,6.065 10.746,46.2399 -11.5239,28.0471 6.2334,-1.091 9.4929,-1.7159 9.2219,-7.311 -0.2501,-4.2725 -6.0488,-11.5642 -11.95,1.3597 -5.9799,13.0962 -42.9445,22.296 -42.9445,-22.0969 -19.7916,8.4801 -41.8876,16.0897 -35.0423,42.2289 3.7954,12.2911 23.6541,18.1969 27.0467,-1.7211 1.0046,-5.8979 -8.9435,-3.3572 -11.5478,-1.4813 -2.0122,-8.7195 23.4636,-15.6347 23.3612,4.8032 -0.1823,35.9093 -52.048,26.8147 -54.0861,-13.7902 -0.2148,-4.2839 -0.053,-8.5869 -0.053,-13.3059 -1.0674,-1.1587 -2.6803,-6.208 -7.18,1.0702 -4.5254,-17.5928 1.8948,-29.943 17.859,-43.8634 -34.7857,-19.1177 -18.7555,-73.0694 9.7131,-66.291 8.3854,1.9971 11.1794,9.7584 6.8826,20.298 -6.4459,-18.0815 -19.0412,-2.6637 -10.0006,3.8573 28.9336,20.6679 38.2541,-51.8848 -12.5752,-43.0301 -51.9656,10.8526 -15.3509,100.712 -77.3351,126.0342 31.5783,14.393 35.2894,31.7503 51.1076,43.8535 7.362,5.633 11.6635,-1.169 12.4618,-6.2678 7.1719,19.7477 -9.7376,28.5428 -26.7846,19.4977 0.6802,34.9829 25.4891,34.1528 24.5348,23.2325 -0.7721,-8.8349 -7.5321,-8.4413 -12.8631,-3.9936 1.547,-21.1969 22.2878,-10.268 23.6118,1.1036 3.5886,30.8222 -33.2614,28.0827 -49.3603,4.1361 -8.3438,2.1076 -13.0331,-3.2666 -17.5335,-10.3713 -12.3371,18.3301 -35.2428,22.5391 -34.7235,3.9014 7.8643,8.3998 23.9165,-2.8272 18.8706,-13.7247 -17.9966,-38.8671 -153.6555,-5.6743 -183.8488,-232.113 -3.5354,18.8499 5.0756,133.3619 28.9842,188.6694 17.6004,45.7013 61.0511,52.2154 71.2531,34.6701 5.3767,-9.2468 -11.7662,-11.3667 -7.1709,-1.4648 -10.8554,-0.6738 -6.774,-18.6037 7.5205,-16.1774 13.3995,2.2745 18.4787,7.4517 20.4316,21.325 16.8211,5.0531 17.5709,8.0832 6.4844,29.9595 77.002,13.6906 39.24,83.4834 8.9322,60.3333 -6.138,-5.8322 -5.7027,-14.0388 1.6348,-16.5565 -1.7988,6.0692 -0.099,11.4558 6.52,11.8487 16.7103,0.9919 19.852,-25.0278 -10.5271,-25.9381 -5.7401,-0.172 -11.5596,2.31 -17.9906,3.7556 -0.3354,5.3661 0.9122,11.7122 -2.5078,16.8249 -2.7375,4.0925 -7.0597,3.3857 -9.1141,8.575 -4.6902,11.847 -28.293,3.621 -26.9972,-9.5811 0.3927,-4.0019 4.5593,-7.5303 10.1584,-5.9544 -7.9747,6.9826 -0.1326,16.0397 7.3112,11.3347 6.4262,-4.0617 4.786,-15.5386 -6.1998,-18.5315 -51.4929,-14.0284 -73.7571,-46.6906 -88.8533,-85.0387 -8.8147,48.4912 28.8579,159.6972 53.6207,121.2966 4.9756,14.1394 4.9756,14.1394 -7.7051,24.9673 8.226,5.1277 15.5428,4.2886 20.6903,-2.3728 4.5005,-5.824 4.2968,-17.3234 -5.7918,-21.4238 24.7395,-8.6808 28.3565,38.1756 -6.0673,38.6977 -4.8861,0.074 -9.7932,-1.237 -15.2111,-1.9841 -2.8675,4.0842 -2.1604,9.4153 -1.6618,13.9634 2.4027,21.9172 -16.4537,23.859 -29.2727,21.4709 35.802,-11.5897 -13.5496,-79.1667 -16.6084,-78.4257 4.6007,12.1838 10.0956,38.1289 10.954,43.0676 1.2096,6.959 0.4635,14.3469 -6.1512,19.6535 -4.3654,3.5024 -2.9211,21.942 -2.7482,23.97 1.9475,22.8502 -21.312,34.4977 -35.0393,29.3486 -14.8526,-5.5703 -18.3706,-34.6512 3.3861,-31.3833 3.9976,0.6004 5.8488,6.6802 4.5888,8.9245 -9.3939,-7.4169 -13.269,12.9596 0.094,11.732 13.6986,-2.103 12.2053,-17.435 10.7588,-27.7197 -0.5228,-3.581 -2.6226,-6.5001 -6.8314,-7.7219 -32.8826,-9.5457 -19.2373,-43.3244 -15.6178,-71.1306 -3.2409,4.9359 -50.2732,69.358 -15.2248,80.241 -12.819,2.3881 -31.6754,0.4463 -29.2727,-21.4709 0.4986,-4.5481 1.2057,-9.8792 -1.6618,-13.9634 -5.4179,0.7471 -10.325,2.0581 -15.2111,1.9841 -34.4238,-0.5221 -30.8068,-47.3785 -6.0673,-38.6977 -10.0886,4.1004 -10.2923,15.5998 -5.7918,21.4238 5.1475,6.6614 12.4643,7.5005 20.6903,2.3728 -12.6807,-10.8279 -12.6807,-10.8279 -7.7051,-24.9673 24.7628,38.4006 62.4354,-72.8054 53.6207,-121.2966 -15.0962,38.3481 -37.3604,71.0103 -88.8533,85.0387 -10.9858,2.9929 -12.626,14.4698 -6.1998,18.5315 7.4438,4.705 15.2859,-4.3521 7.3112,-11.3347 5.5991,-1.5759 9.7657,1.9525 10.1584,5.9544 1.2958,13.2021 -22.307,21.4281 -26.9972,9.5811 -2.0544,-5.1893 -6.3766,-4.4825 -9.1141,-8.575 -3.42,-5.1127 -2.1724,-11.4588 -2.5078,-16.8249 -6.431,-1.4456 -12.2505,-3.9276 -17.9906,-3.7556 -30.3791,0.9103 -27.2374,26.93 -10.5271,25.9381 6.619,-0.3929 8.3188,-5.7795 6.52,-11.8487 7.3375,2.5177 7.7728,10.7243 1.6348,16.5565 -30.3078,23.1501 -68.0698,-46.6427 8.9322,-60.3333 -11.0865,-21.8763 -10.3367,-24.9064 6.4844,-29.9595 1.9529,-13.8733 7.0321,-19.0505 20.4316,-21.325 14.2945,-2.4263 18.3759,15.5036 7.5205,16.1774 4.5953,-9.9019 -12.5476,-7.782 -7.1709,1.4648 10.202,17.5453 53.6527,11.0312 71.2531,-34.6701 23.9086,-55.3075 32.5196,-169.8195 28.9842,-188.6694 -30.1933,226.4387 -165.8522,193.2459 -183.8488,232.113 -5.0459,10.8975 11.0063,22.1245 18.8706,13.7247 0.5193,18.6377 -22.3864,14.4287 -34.7235,-3.9014 -4.5004,7.1047 -9.1897,12.4789 -17.5334,10.3713 -16.0989,23.9466 -52.9489,26.6861 -49.3603,-4.1361 1.324,-11.3716 22.0648,-22.3005 23.6118,-1.1036 -5.331,-4.4477 -12.091,-4.8413 -12.8631,3.9936 -0.9543,10.9203 23.8546,11.7504 24.5348,-23.2325 -17.047,9.0451 -33.9565,0.25 -26.7846,-19.4977 0.7983,5.0988 5.0998,11.9008 12.4618,6.2678 15.8182,-12.1032 19.5293,-29.4605 51.1075,-43.8535 -61.9841,-25.3222 -25.3694,-115.1816 -77.335,-126.0342 -50.8293,-8.8547 -41.5088,63.698 -12.5752,43.0301 9.0406,-6.521 -3.5547,-21.9388 -10.0006,-3.8573 -4.2968,-10.5396 -1.5028,-18.3009 6.8826,-20.298 28.4686,-6.7784 44.4988,47.1733 9.7131,66.291 15.9642,13.9204 22.3844,26.2706 17.859,43.8634 -4.4997,-7.2782 -6.1126,-2.2289 -7.18,-1.0702 0,4.719 0.1618,9.022 -0.053,13.3059 -2.0381,40.6049 -53.9038,49.6995 -54.0861,13.7902 -0.1024,-20.4379 25.3734,-13.5227 23.3612,-4.8032 -2.6043,-1.8759 -12.5524,-4.4166 -11.5478,1.4813 3.3926,19.918 23.2513,14.0122 27.0467,1.7211 6.8453,-26.1392 -15.2507,-33.7488 -35.0423,-42.2289 0,44.3929 -36.9646,35.1931 -42.9445,22.0969 -5.9012,-12.9239 -11.6999,-5.6322 -11.95,-1.3597 -0.271,5.5951 2.9885,6.22 9.2219,7.311 -22.2699,18.1928 -27.0715,-21.9821 -11.5239,-28.0471 14.6644,-4.8458 21.1481,5.7211 29.4573,15.4997 6.4316,6.3649 18.5762,-7.816 10.9479,-17.0665 -6.8912,-7.922 -15.5918,-14.7239 -18.5618,-25.3635 -4.7007,-19.4827 -2.1503,-34.5785 16.8466,-43.6333 6.0007,-2.6908 9.0445,-6.3145 8.1746,-12.9977 -7.0928,-54.4383 52.3056,-90.447 96.1009,-66.1473 0,-7.2054 -0.4465,-13.4126 0.086,-19.5348 1.4127,-16.2436 17.7136,-25.6024 32.2875,-18.6662 6.6564,3.1682 9.7649,26.9703 -3.5781,23.0491 8.5848,-6.064 -7.6736,-18.3869 -11.7283,-5.2916 -6.2189,20.0823 29.3382,18.9049 38.2095,59.4651 11.2883,-13.55 25.2913,-21.1751 38.8765,-29.479 4.7326,-2.8929 9.0212,-6.9457 12.5828,-11.2399 19.5247,-23.5386 -4.0424,-49.9912 -27.6692,-38.9635 -10.7635,7.4749 -12.053,28.0928 3.2171,14.0941 20.2646,-18.5773 35.2899,17.8406 8.1765,19.8814 1.5636,-2.6875 4.3597,-4.6596 4.3437,-7.4659 -0.042,-7.5722 -6.2263,-4.4802 -12.2431,4.1989 -5.7503,8.2948 -8.3423,10.8717 -16.5578,9.0006 -16.1066,-3.6683 -24.5175,-59.9682 33.0744,-56.7144 42.101,4.8518 45.08,70.3506 14.6591,99.5425 36.0556,10.0459 33.3687,34.934 26.3953,47.2921 -5.3674,9.512 -29.3021,11.0323 -27.7952,-6.4771 9.7312,9.5698 17.6077,1.0939 17.4006,-3.9484 0.7314,-15.5928 -28.2032,-7.354 -28.3328,17.6553 -0.1002,19.4278 25.2242,17.1364 25.3943,17.1034 74.1946,-14.3078 90.4409,-137.4712 92.259,-176.4632 -10.2796,41.7611 -28.7557,123.1008 -66.7633,130.0334 4.7082,-6.5844 17.7951,-23.018 20.2845,-41.132 -7.8002,3.0226 -14.0624,6.5248 -26.5876,2.1687 40.5836,-16.626 46.2577,-49.1024 57.7316,-87.8033 -3.7944,5.9604 -6.8881,9.8764 -11.6102,12.5496 -12.0282,6.8092 -22.6575,2.5221 -27.6024,-10.2196 -3.4884,-6.4013 -6.6548,-4.933 -9.1677,1.7904 -7.4436,-16.5004 10.8462,-23.9915 19.0586,-9.7047 14.418,25.0797 47.1909,-34.7816 39.7798,-111.8961 -8.3972,11.1802 -11.9666,26.4092 -63.7106,31.9359 -11.655,1.2449 -5.0814,31.9623 9.7921,17.3269 18.8731,-18.5707 58.7123,24.7894 -6.4931,39.5479 2.543,-3.3253 7.4679,-9.1623 10.0067,-9.7957 30.6236,-9.2744 13.3263,-36.859 -2.172,-19.7379 -26.4424,29.2111 -48.1396,-38.0425 -5.817,-46.2434 -17.9643,-15.3046 -9.1198,-42.0331 8.7224,-40.1582 15.5072,1.6291 11.1626,20.8818 9.7679,21.9603 -1.6866,-9.3951 -9.2897,-11.6417 -11.1785,-10.0438 -8.107,6.8584 4.7109,19.9204 14.5187,17.996 71.4307,-19.1304 14.3248,-145.6137 2.6056,-189.99609 -34.0113,85.32829 -98.3227,211.70619 -48.6532,271.88929 -54.1574,-15.3557 -46.7143,-93.301 -52.8814,-124.128 -39.0618,35.4342 -82.7293,68.2867 -106.2758,116.8112 11.6966,1.163 24.2013,3.7388 35.767,2.4945 23.076,-2.1463 13.7465,-25.641 31.8432,-31.7913 3.457,-1.1746 9.7493,-2.1315 11.023,-0.1113 3.9531,6.2698 9.5401,4.6829 14.9403,5.122 41.2637,3.3559 31.4102,42.7529 27.6185,52.0333 -1.5752,-3.6084 -7.5617,-23.8389 -23.49,-24.6217 3.7855,13.9668 0.6048,25.2995 -9.9725,32.9181 -18.8427,12.9269 -29.3037,-10.4233 -32.4022,-9.4925 -2.2612,0.6793 -10.5554,12.4786 -14.6945,12.3583 -16.7931,-0.4882 -24.5898,6.1779 -39.7829,-3.1647 -16.598,-5.2194 -16.813,10.1482 -31.2249,16.086 -12.2089,6.6408 -28.5584,10.4092 -30.1181,26.6035 -1.4672,12.243 -1.9048,25.3196 -14.0371,33.6454 -10.0746,6.9138 -11.6803,17.6409 -11.5813,29.1101 0.1835,21.2786 -14.0607,18.7068 -29.928,22.4105 -6.9789,16.6644 0.9553,31.9892 4.3347,35.4005 -17.7316,-2.596 -27.7675,-13.562 -27.9761,-29.9375 -0.046,-3.6653 0.09,-7.3357 -0.056,-10.9958 -0.078,-1.9547 0.091,-4.4589 -0.9971,-5.7489 -9.7979,-11.6178 -5.0289,-23.0125 0.6944,-34.0376 5.1934,-8.5681 17.4071,-10.9228 24.6266,-17.2403 11.6238,-8.0537 12.9688,-21.4599 18.1784,-34.3057 -10.0618,2.8592 -12.2249,13.844 -25.1342,26.3391 -4.4272,4.2851 -9.854,7.1248 -16.8871,4.4183 -2.4714,-0.9512 -7.8957,-0.1073 -8.7198,1.5419 -1.7858,4.8962 -14.8907,17.9852 -25.039,10.1029 -4.6998,6.0853 -10.5936,10.0626 -18.0739,7.6516 -11.5736,-3.7306 -15.6708,-12.7611 -13.9284,-24.6398 -15.2682,0.5754 -24.1454,21.5367 -24.6899,30.6812 -4.5728,-11.1649 -5.7816,-22.0932 -2.9538,-32.8743 5.147,-19.6228 19.9552,-28.1882 38.6138,-30.9352 5.3684,-0.7901 9.3926,-2.4226 12.8318,-6.3679 4.8904,-5.6105 11.4277,-6.4049 18.3002,-5.7035 6.0486,0.6173 7.3972,5.3352 9.4081,10.1399 2.9974,7.1632 7.7157,7.3203 14.0003,1.9712 4.7725,-4.062 13.645,-11.0772 22.7453,-16.4816 -5.7746,-0.6187 -10.9471,0.3112 -16.1204,1.2371 -9.7563,1.746 -14.514,-1.5137 -16.0287,-11.1714 -0.5458,-3.4801 -0.7381,-7.0155 -1.1625,-11.2253 -3.0871,2.4049 -5.5136,4.5805 -8.2135,6.3359 -4.9005,3.1866 -10.7878,3.9817 -14.656,-0.2794 -3.8243,-4.2128 -6.244,-9.9918 -8.2721,-15.4577 -1.8318,-4.9366 2.6828,-7.7301 5.63,-10.8012 4.3096,-4.491 9.4593,-8.4483 10.0393,-16.2466 -16.2368,-1.4013 -26.0486,18.0757 -27.8844,22.2649 -10.1203,-47.4738 47.4076,-68.402 63.3703,-29.4409 19.516,2.2119 16.9582,9.2315 16.4635,27.3162 4.8293,0.2228 10.9397,0.2924 14.7541,3.5473 10.9926,14.4339 35.4077,4.0538 50.1884,-16.4331 6.6335,-9.1947 28.3604,-43.7602 49.8232,-73.5879 19.8293,-27.5575 40.1998,-74.8021 39.7746,-79.9889 -7.2445,7.2755 -33.5605,39.1033 -62.3689,31.0942 2.1164,-1.1778 36.4834,-17.1757 34.1499,-26.6619 -1.8532,0.454 -18.987,6.5567 -29.7474,2.5664 116.8799,-80.5976 82.7496,-151.81999 166.7554,-203.07239 4.1818,-2.5514 6.1932,-5.8479 5.9687,-10.6085 0.1045,-55.6081 35.403,-116.1756 -9.3829,-163.3776 -6.6348,59.8574 -1.6679,111.6288 -19.7876,168.4559 -3.1291,7.2887 -7.8293,13.1122 -16.7871,15.8125 16.1365,-64.7652 12.7648,-112.4495 6.4471,-181.9151 -9.0325,44.7844 -9.3183,118.226 -14.4876,154.5395 -1.9019,13.3603 -8.1814,24.9799 -19.8299,33.1318 -8.7381,6.1148 -12.6539,16.3277 -23.8417,16.7238 -3.1252,-38.121 2.7723,-91.9608 -2.8126,-156.2843 -1.1594,58.944 -10.6828,153.3713 -17.5755,211.7328 -0.074,0.6279 -2.1491,7.0107 -6.6941,5.5876 6.4632,-103.8769 10.263,-173.6539 13.643,-258.7236 -0.2346,-4.8654 -1.1791,-2.3679 -2.0849,-0.2701 -36.7131,216.9342 -35.0548,217.0772 -51.8325,220.5852 -9.894,98.78829 -6.2013,88.02289 -20.4875,96.30769 -1.4513,9.9457 -2.8353,25.7905 -6.1377,55.4228 -0.2199,1.9743 -2.3942,18.0014 -14.8834,16.1793 -0.6144,5.8395 -0.8934,11.1199 -1.7659,16.3003 -5.5594,33.0178 -41.639,56.841 -50.3628,62.4577 -7.5031,4.8307 -42.918,9.2918 -36.2446,-7.737 14.1486,-37.3073 21.6828,-75.3392 22.6099,-115.2352 2.7269,-121.31949 22.541,-248.01899 57.9648,-363.71459 4.0798,-13.6531 0.3476,-14.8345 -9.0552,9.6165 -70.4864,223.4477 -64.6849,256.57626 -129.0924,472.08019 -26.6478,87.1868 -87.1759,257.4214 -170.6856,254.1764 1.7664,-2.8207 3.5852,-4.253 5.6328,-4.946 33.9194,-11.479 48.4399,-29.737 66.9952,-58.1173 -14.7691,10.5594 -30.7306,21.9467 -49.8384,17.2814 0.1238,-0.2927 0.1506,-0.7714 0.383,-0.8564 54.777,-19.9547 79.6172,-75.9706 94.1848,-106.9057 72.6619,-154.3015 91.4514,-335.64829 170.5734,-565.27539 0.7583,-3.2789 -1.6926,-2.9992 -2.6133,-0.9721 -1.8914,4.4076 -46.9955,117.0735 -114.2246,343.63269 -3.2026,10.8604 7.7888,32.3889 -10.2074,53.7622 -10.1315,12.0324 -5.4537,29.5112 -19.3374,54.8499 -2.6151,4.7727 -6.6971,8.9868 -10.8689,12.5742 -2.7177,2.3371 -4.2389,4.27 -4.8069,7.9653 -1.5583,10.1408 -3.6649,20.2146 -5.9826,30.2157 -1.9229,8.2963 -6.5189,15.06 -12.5503,21.1821 -6.3154,6.8338 -9.7249,15.6694 -13.7466,23.9051 -11.5725,20.8277 -16.3547,9.1901 -22.4089,21.8716 -8.7146,18.2542 -17.5013,48.2968 -36.0894,37.9911 -16.1827,14.4666 -43.6722,47.7468 -65.5859,25.1595 1.2779,-2.0613 2.3887,-4.0633 3.6958,-5.9275 9.362,-13.3501 19.0023,-26.5128 28.0654,-40.062 15.8956,-23.7633 4.7687,-26.7661 11.938,-37.0111 22.9702,-34.3805 29.3262,-76.1034 41.0032,-115.0243 1.8159,-6.2684 -4.3165,-8.4284 -4.0945,-14.2948 20.9329,-48.5323 32.3625,-99.161 46.0256,-148.0895 -3.1833,-2.8316 -7.9457,-8.37009 -5.3348,-12.49899 11.1087,-17.5672 11.5448,-18.2461 13.4325,-28.9492 18.9281,-107.3208 57.603,-211.7413 77.7893,-261.5753 1.9988,-5.9209 2.2314,-8.7193 -2.5797,-2.6012 -80.4581,126.7437 -90.868,285.4776 -165.4478,445.15259 -20.7938,48.2254 -55.6757,140.9703 -119.9359,133.427 1.1738,-1.5033 2.5007,-2.2216 3.8987,-2.4091 44.9917,-8.265 72.4017,-59.0771 88.5369,-97.4284 -18.0828,15.6994 -33.878,33.2541 -59.2909,36.1813 0.1822,-1.7341 1.4812,-2.1001 2.6348,-2.7316 54.3784,-29.7793 86.1931,-96.9961 100.7497,-143.6601 34.3463,-111.11129 66.4907,-221.88379 115.3006,-328.08309 2.686,-6.2622 9.2647,-18.3201 -2.7678,-2.668 -2.2535,2.8576 -9.412,6.9214 -11.7477,11.7794 -0.3003,7.81 -5.0006,12.9104 -10.2883,17.5575 -3.9416,3.4643 -5.2911,7.4339 -4.3623,12.4463 3.2039,20.9706 -10.5009,39.5515 -19.9139,57.1662 -23.5136,39.2599 -16.4404,58.7454 -39.3324,109.3353 -3.8293,9.1295 -10.3101,15.6083 -20.9213,13.9806 -26.4758,53.40389 -50.8512,108.52249 -85.9376,156.96039 -11.9783,13.4082 -13.1983,2.0725 -19.0347,1.3543 -19.5831,21.3695 -57.09776,53.9359 -82.97796,24.4599 -4.2865,-4.8822 -4.5355,-6.228 0.095,-10.8309 74.07576,-73.6355 59.75396,-112.6162 101.77046,-194.60889 0.6746,-1.3165 9.152,-20.2673 6.3117,-24.4605 -6.1144,-9.0268 3.4393,-19.485 6.4872,-28.4858 45.8233,-102.7698 90.5944,-204.5445 154.934,-297.77424 2.3754,-3.41367 16.0179,-23.23197 -2.211,-2.31933 -117.3915,135.52247 -174.9451,326.74237 -276.49056,340.41217 33.2272,-20.4865 63.83576,-45.9742 85.11316,-79.1312 -15.2252,9.3296 -29.8193,21.3882 -48.60336,21.4882 0.949,-5.5479 12.52966,-5.4599 35.76766,-24.0529 36.5386,-30.3675 59.3154,-70.5816 81.5552,-111.8281 95.0509,-153.04405 112.1277,-146.02212 146.5873,-196.08177 -26.4756,15.96338 -39.8606,36.93208 -60.3536,58.98078 -2.5202,1.61081 -6.5951,1.00377 -8.5128,-0.56514 -16.4261,14.62132 -38.3871,48.39713 -73.2359,77.21423 -4.1585,3.6091 -7.0124,7.2686 -13.6974,4.5265 -13.5012,13.1318 -25.9252,25.549 -38.7658,37.5194 -9.3375,8.7052 -22.7505,15.2077 -27.8148,12.6608 -11.0032,-5.5336 -23.8859,3.7014 -51.96916,7.2104 -5.669,0.7084 -20.2553,-5.6396 -10.7552,-16.6825 0.2171,-0.2524 0.4037,-0.5348 0.6407,-0.7661 32.43886,-31.6754 57.07626,-56.4192 69.72206,-82.2667 2.0891,-5.5148 7.2658,-10.367 12.0688,-14.24617 37.7888,-30.52047 24.8208,-42.86294 49.7783,-64.56774 57.356,-49.88352 44.576,-43.75887 123.0625,-117.60003 2.6078,-2.07221 1.4089,-2.04116 -1.6032,-1.84064 -58.8284,34.48328 -99.7963,92.35949 -178.2899,120.36047 -27.0229,9.63987 -62.85446,8.30495 -82.67586,-13.89044 18.1259,7.7089 54.87996,21.58816 79.49606,-0.24206 -16.0053,-0.47941 -32.2919,-5.69976 -39.8623,-20.13211 3.0947,1.58645 5.9339,2.75704 9.0317,4.05099 60.5406,25.28765 94.6213,-23.44974 209.3169,-100.2666 21.1588,-14.60039 18.7237,-14.84843 -1.3043,-4.39459 -67.9797,44.44965 -117.3322,28.09403 -163.81,73.72546 -5.5036,-4.93799 -2.3147,-11.28424 -2.8421,-15.85461 -15.3766,-2.05117 -46.3833,-0.0744 -34.735,-24.25214 29.1151,6.71474 102.3326,-67.53709 167.8728,-95.88257 8.9277,-5.15655 -0.2812,-2.95331 -7.6207,-1.50867 -53.0895,14.2629 -116.8007,39.44235 -150.0637,-14.36352 -0.7392,-1.36624 0.8895,-1.96862 1.4769,-1.14113 16.7656,17.77728 42.8666,24.35262 64.2328,23.8445 -7.9512,-7.0958 -16.6989,-12.1612 -15.1302,-22.81348 25.2943,37.33976 152.3667,-13.86774 148.8248,-18.20471 -39.9108,14.16538 -77.4694,23.70281 -119.3543,-5.21228 -6.3794,-4.40401 -1.0931,-9.52828 2.1161,-10.06403 60.3937,-10.08151 75.5741,-32.21341 99.3394,-34.16137 40.2988,-3.30338 86.5448,-18.9379 93.1455,-26.39783 -14.7949,3.03206 -64.3038,2.61782 -96.8233,-16.0575 -5.0358,-2.89195 -1.7549,-10.77214 -10.3192,-17.85801 -4.0979,-3.39052 -4.1551,-16.59517 -1.4905,-24.36971 4.3508,11.70611 8.4492,23.6282 19.454,31.43378 20.3945,14.4656 63.4827,17.35122 97.6944,14.72088 17.6015,-1.35327 35.3301,-1.10826 52.9536,-0.46069 55.7752,2.04944 88.0333,26.71325 85.1318,56.96017 1.3369,-0.33483 13.7403,-6.36208 30.059,2.8975 27.5916,15.65626 53.1827,-22.19965 30.1988,-32.23743 -21.3111,-8.00543 -20.8196,14.90649 -5.4879,8.26514 -3.752,14.50684 -18.1352,7.82422 -21.0756,3.75207 -5.5496,-7.68567 0.4626,-22.13177 9.971,-23.69635 44.8967,-7.38757 55.2705,55.05565 9.036,63.55384 8.1917,15.99401 25.5042,24.96027 37.3308,24.29303 16.8783,-1.29655 28.9758,-15.5925 17.2433,-31.02497 -4.2269,-5.48863 -13.5358,-4.45926 -3.4904,7.28656 -15.7767,0.58911 -19.2956,-12.97964 -14.424,-17.91963 14.7723,-12.17052 28.6313,-0.34746 33.0565,11.0956 2.5066,6.48179 10.6652,61.369 -69.3876,38.31128 0.862,26.16351 0.9821,52.73592 -32.7624,58.65472 -38.9647,6.83435 -51.8666,-40.21768 -13.7026,-48.60425 -26.0258,25.63285 3.0219,36.46403 11.9461,34.68537 -8.7355,-6.28379 -12.6563,-23.37901 1.1118,-25.99604 -6.1782,21.27884 24.6073,9.83632 16.5007,-13.78332 -3.1021,-9.03821 -8.1455,-15.93047 -18.7111,-18.82617 -11.5937,-3.17745 -28.7212,-7.88022 -26.4062,-20.33905 -14.5435,9.3869 -27.4302,19.49816 -45.5501,17.24731 0.8706,34.14333 -24.1006,47.32442 -1.4604,60.66754 28.2478,16.55827 26.5983,38.93269 23.5568,66.78723 -2.4567,22.29492 9.4036,49.78329 50.5466,49.49335 56.4857,-0.39843 56.1345,41.58685 93.7675,67.56116 4.2381,2.92519 42.509,27.85736 65.0532,-9.25421 5.4241,-8.02429 6.5042,-20.35445 17.2403,-22.91571 12.1094,-3.78866 28.2565,1.92038 30.7277,-12.03437 9.6927,-58.08812 11.8955,-61.03418 37.0958,-90.98046 -54.7173,-12.36752 -54.6167,40.07835 -94.0826,19.34234 -13.0867,-6.87619 -22.2138,-15.81729 -29.2266,-16.41919 -14.5802,-1.25139 -12.3616,13.00166 -3.4318,13.44598 2.1369,0.10632 5.6626,-0.88677 6.087,-4.09978 4.1645,3.98774 0.2146,9.73826 -4.6162,10.44472 -20.0261,2.92867 -27.0362,-26.45872 -0.2373,-35.84542 -39.754,-51.30646 -92.3077,7.64996 -51.9137,18.93693 19.7836,5.52798 25.2057,37.8334 2.9138,43.02886 -9.8895,2.30488 -23.7416,-2.62734 -21.5962,-16.17563 5.5505,10.29018 25.5757,10.12661 23.4963,-6.50458 -4.3954,-14.14817 -20.9439,-2.13512 -33.8336,-21.17169 -2.7109,-4.00364 -5.0531,-15.48868 -3.4232,-23.13479 7.7194,-36.21518 63.9819,-47.00543 100.781,-15.91807 7.3141,-48.73848 57.7132,-35.38177 50.6233,-13.01449 -3.3298,10.50518 -19.3162,6.26245 -13.1271,17.31478 -8.247,0.70948 -10.4901,-10.81155 -0.7275,-13.90801 23.242,-7.37181 -10.4443,-26.96711 -20.5086,-3.90735 -6.1926,14.1891 10.8904,49.61518 36.272,32.75396 37.8087,-25.11683 58.2482,8.13524 75.3712,-9.64056 -8.6511,-2.6508 -13.711,-7.08626 -14.0316,-10.32312 15.9983,3.6766 45.3929,1.23194 51.6603,-30.51031 0.6696,-3.39147 -4.4575,-7.48987 -8.1398,-10.20618 -14.7984,-11.81255 -40.113,1.38958 -59.2517,2.42344 -10.5419,0.56947 -21.1549,-17.07052 -22.2115,-29.65194 13.0385,7.05771 33.3677,2.0917 41.3123,-4.00177 20.9631,-16.07856 34.4011,-4.55863 38.3693,-8.87221 -15.3684,-30.82701 -81.2482,-79.2469 -99.3629,-24.15767 -22.107,-19.21591 -23.4116,-53.75566 -12.3681,-61.09589 2.8458,-1.89147 2.7591,-4.77053 1.8968,-8.07062 -2.8658,-10.96797 1.5397,-17.21283 13.1274,-19.22912 2.8503,-7.388 6.4462,-13.75965 15.984,-13.42475 5.3062,0.18616 6.9827,-10.45442 23.1668,-14.0426 8.3792,-1.85779 17.5165,-0.79328 25.4797,-4.04333 11.5689,-4.72165 22.5038,-6.40913 34.6693,-3.22211 21.1648,5.54459 40.1293,12.45732 61.6537,9.98791 13.1556,-1.50929 19.315,-9.641 24.5843,-20.03357 4.7561,11.28198 5.5309,23.4604 -11.9803,37.17554 6.3732,5.91162 19.8199,4.69832 29.4594,-2.98718 -0.9914,13.7083 -3.4876,17.13014 -9.9437,23.37842 22.4449,11.58867 55.2358,-19.80158 57.7776,10.08014 -15.8634,-14.66475 -17.2377,13.51645 -50.077,14.00409 9.8966,17.1994 27.9155,22.21362 52.0998,15.25903 -1.4158,4.35608 -1.8737,8.05679 -19.5295,15.12939 12.6654,4.10315 23.4941,2.8561 38.4518,-4.13904 -6.017,18.81842 -29.7502,17.4316 -45.9983,17.10773 5.2361,14.29032 16.6428,26.0541 32.7689,17.99408 -0.3667,7.48858 -4.8,11.36622 -8.35,14.69434 6.1751,-0.35754 9.6343,-1.05846 11.9666,-2.65619 -5.7312,11.04497 -12.8314,13.45615 -31.1824,9.2417 0.4442,13.18866 20.1779,47.31937 26.5504,49.19995 -9.9589,3.67662 -18.3048,-2.26734 -26.9767,-6.16077 3.7498,6.95772 10.253,15.82597 15.663,17.3031 -8.6648,2.57001 -15.7073,0.0908 -22.5551,-5.71435 -2.5325,14.41871 24.3895,58.52207 64.9825,33.84149 10.7052,-6.50878 15.8315,-23.27595 11.8181,-35.08637 -7.3255,-21.55749 -38.2308,-17.07703 -30.4901,-0.36599 2.8914,6.2421 12.8391,2.82489 8.507,-8.69712 16.3016,11.91006 1.1984,27.00074 -13.5395,16.41547 -8.0748,-5.79961 -4.9443,-22.30331 6.2598,-26.59827 25.7711,-9.87907 47.2319,13.0566 38.0354,44.57929 21.2731,-19.60718 49.2042,-27.72269 68.7431,-17.36751 -6.2396,-14.63774 -6.3861,-29.11284 -5.6615,-44.58116 z"
     id="path198"
     sodipodi:nodetypes="scssccsccccssssssscssccccscsscscscsscssscsscsssccccccccccccscccsccsssscssccccccsscccccssssscccsssssccssccscsccssccssssccsssssssscccssccscsccscsssscccccccssscccsssccccssssccccsssscsssssssccscccssscssssccssssssscscssssccccsscscsccsscsccccccccssccscsssscscsscscsssssssssccscsscsscccsccscsccscscccscsscsccccsscscscsscccccscccccsssscsssccscscscccsscssscssccccscsccscccscsccsccccccccsccsccscccccccccsscccsscscsssccscccscccccsccccssccscscscccccccsscccsscccsscccsscccssccsccscsssscsscsssscccccssccccccccccssccccccccccssccccccsccsscccsssssccsccssccccsscccccccsccccscccccccscsccccccccccccccsscscscccscccsccccccccccccssscsscssscsccsscccccscscccssccssssssscssscscsscssscscsssccscscsccsscsssssccccccccccccccccccssscssccc"
     style="display:inline;opacity:1;fill:#000000;stroke:none;stroke-width:30.2362;stroke-linejoin:round;stroke-dasharray:none;stroke-opacity:1;paint-order:stroke fill markers"
     inkscape:label="logo" /></g></svg>
